Geist.glyphspackage
{
color = 4;
glyphname = exclam;
kernLeft = exclam;
kernRight = exclam;
layers = (
{
anchors = (
{
name = top;
pos = (138,530);
}
);
associatedMasterId = "EE2FFE84-06F1-4AFB-BBEC-60D09A436D14";
layerId = "89098DA8-21DF-4174-9759-EA410723EA26";
name = "25 de ene. de 23 09:33";
shapes = (
{
closed = 1;
nodes = (
(171,-6,o),
(196,18,o),
(196,51,cs),
(196,84,o),
(171,108,o),
(138,108,cs),
(105,108,o),
(80,84,o),
(80,51,cs),
(80,18,o),
(105,-6,o),
(138,-6,cs)
);
},
{
closed = 1;
nodes = (
(94,480,l),
(110,205,l),
(166,205,l),
(182,480,l),
(182,710,l),
(94,710,l)
);
}
);
width = 276;
},
{
layerId = "EE2FFE84-06F1-4AFB-BBEC-60D09A436D14";
name = Regular;
shapes = (
{
closed = 1;
nodes = (
(96,205,l),
(98,295,o),
(101,378,o),
(101,460,cs),
(101,710,l),
(69,710,l),
(69,460,ls),
(69,378,o),
(72,295,o),
(74,205,c)
);
},
{
pos = (5,0);
ref = period;
}
);
width = 169;
},
{
layerId = "3507EE3D-0D92-4546-A145-3A991F0A2B71";
name = Regular;
shapes = (
{
closed = 1;
nodes = (
(206,242,l),
(218,308,o),
(236,427,o),
(236,507,cs),
(236,710,l),
(41,710,l),
(41,507,ls),
(41,427,o),
(60,308,o),
(72,242,c)
);
},
{
alignment = -1;
pos = (7,0);
ref = period;
}
);
width = 276;
},
{
layerId = "6C190511-B94A-4F5A-B519-D6E9DB0E7B93";
name = Regular;
shapes = (
{
closed = 1;
nodes = (
(139,205,l),
(145,275,o),
(154,400,o),
(154,480,cs),
(154,710,l),
(68,710,l),
(68,480,ls),
(68,400,o),
(78,275,o),
(84,205,c)
);
},
{
alignment = -1;
pos = (7,0);
ref = period;
}
);
width = 221;
}
);
metricLeft = "=O+5";
metricRight = "=O+5";
unicode = 33;
}
{
color = 4;
glyphname = quotedbl;
kernLeft = quotesingle;
kernRight = quotesingle;
layers = (
{
background = {
shapes = (
{
angle = 180;
pos = (263,1240);
ref = quotedblleft;
}
);
};
layerId = "EE2FFE84-06F1-4AFB-BBEC-60D09A436D14";
shapes = (
{
closed = 1;
nodes = (
(86,464,l),
(88,710,l),
(50,710,l),
(50,640,l),
(58,464,l)
);
},
{
closed = 1;
nodes = (
(198,464,l),
(206,640,l),
(206,710,l),
(168,710,l),
(170,464,l)
);
}
);
width = 256;
},
{
layerId = "3507EE3D-0D92-4546-A145-3A991F0A2B71";
shapes = (
{
closed = 1;
nodes = (
(172,422,l),
(180,710,l),
(40,710,l),
(40,624,l),
(62,422,l)
);
},
{
closed = 1;
nodes = (
(358,422,l),
(380,624,l),
(380,710,l),
(240,710,l),
(248,422,l)
);
}
);
width = 420;
},
{
layerId = "6C190511-B94A-4F5A-B519-D6E9DB0E7B93";
shapes = (
{
closed = 1;
nodes = (
(127,444,l),
(133,710,l),
(45,710,l),
(45,630,l),
(65,444,l)
);
},
{
closed = 1;
nodes = (
(281,444,l),
(301,630,l),
(301,710,l),
(213,710,l),
(219,444,l)
);
}
);
width = 346;
}
);
metricLeft = O;
metricRight = O;
unicode = 34;
}
{
color = 4;
glyphname = dollar;
layers = (
{
background = {
shapes = (
{
closed = 1;
nodes = (
(335,-91,l),
(335,805,l),
(303,805,l),
(303,-91,l)
);
},
{
pos = (1,0);
ref = S;
}
);
};
layerId = "EE2FFE84-06F1-4AFB-BBEC-60D09A436D14";
shapes = (
{
closed = 1;
nodes = (
(324,-90,l),
(324,800,l),
(294,800,l),
(294,-90,l)
);
},
{
pos = (1,0);
ref = S;
scale = (0.98,0.98);
}
);
width = 613;
},
{
background = {
shapes = (
{
closed = 1;
nodes = (
(387,-91,l),
(387,805,l),
(301,805,l),
(301,-91,l)
);
},
{
alignment = -1;
pos = (-13,0);
ref = S;
}
);
};
layerId = "3507EE3D-0D92-4546-A145-3A991F0A2B71";
shapes = (
{
closed = 1;
nodes = (
(395,-90,l),
(395,800,l),
(309,800,l),
(309,-90,l)
);
},
{
alignment = -1;
pos = (1,8);
ref = S;
scale = (0.98,0.98);
}
);
width = 687;
},
{
background = {
shapes = (
{
closed = 1;
nodes = (
(360,-91,l),
(360,805,l),
(285,805,l),
(285,-91,l)
);
},
{
alignment = -1;
pos = (-10,0);
ref = S;
}
);
};
layerId = "6C190511-B94A-4F5A-B519-D6E9DB0E7B93";
shapes = (
{
closed = 1;
nodes = (
(359,-90,l),
(359,800,l),
(285,800,l),
(285,-90,l)
);
},
{
alignment = -1;
pos = (1,0);
ref = S;
scale = (0.98,0.98);
}
);
width = 637;
}
);
metricLeft = S;
metricRight = S;
unicode = 36;
}
{
color = 4;
glyphname = percent;
layers = (
{
background = {
shapes = (
{
closed = 1;
nodes = (
(149,-12,l),
(667,726,l),
(627,726,l),
(109,-12,l)
);
},
{
closed = 1;
nodes = (
(254,438,o),
(304,498,o),
(304,574,cs),
(304,650,o),
(254,710,o),
(191,710,cs),
(128,710,o),
(78,650,o),
(78,574,cs),
(78,498,o),
(128,438,o),
(191,438,cs)
);
},
{
closed = 1;
nodes = (
(143,468,o),
(110,512,o),
(110,574,cs),
(110,639,o),
(143,680,o),
(191,680,cs),
(239,680,o),
(272,639,o),
(272,574,cs),
(272,512,o),
(239,468,o),
(191,468,cs)
);
},
{
closed = 1;
nodes = (
(640,0,o),
(690,60,o),
(690,136,cs),
(690,212,o),
(640,272,o),
(577,272,cs),
(514,272,o),
(464,212,o),
(464,136,cs),
(464,60,o),
(514,0,o),
(577,0,cs)
);
},
{
closed = 1;
nodes = (
(529,30,o),
(496,74,o),
(496,136,cs),
(496,201,o),
(529,242,o),
(577,242,cs),
(625,242,o),
(658,201,o),
(658,136,cs),
(658,74,o),
(625,30,o),
(577,30,cs)
);
}
);
};
layerId = "EE2FFE84-06F1-4AFB-BBEC-60D09A436D14";
shapes = (
{
closed = 1;
nodes = (
(248,398,o),
(298,458,o),
(298,558,cs),
(298,658,o),
(248,718,o),
(174,718,cs),
(100,718,o),
(50,658,o),
(50,558,cs),
(50,458,o),
(100,398,o),
(174,398,cs)
);
},
{
closed = 1;
nodes = (
(116,426,o),
(80,470,o),
(80,558,cs),
(80,646,o),
(116,690,o),
(174,690,cs),
(232,690,o),
(268,646,o),
(268,558,cs),
(268,470,o),
(232,426,o),
(174,426,cs)
);
},
{
pos = (269,0);
ref = fraction;
},
{
closed = 1;
nodes = (
(577,-8,o),
(627,52,o),
(627,152,cs),
(627,252,o),
(577,312,o),
(503,312,cs),
(429,312,o),
(379,252,o),
(379,152,cs),
(379,52,o),
(429,-8,o),
(503,-8,cs)
);
},
{
closed = 1;
nodes = (
(445,20,o),
(409,64,o),
(409,152,cs),
(409,240,o),
(445,284,o),
(503,284,cs),
(561,284,o),
(597,240,o),
(597,152,cs),
(597,64,o),
(561,20,o),
(503,20,cs)
);
}
);
width = 677;
},
{
background = {
shapes = (
{
closed = 1;
nodes = (
(271,-12,l),
(789,726,l),
(599,726,l),
(81,-12,l)
);
},
{
closed = 1;
nodes = (
(293,364,o),
(370,437,o),
(370,537,cs),
(370,638,o),
(293,711,o),
(197,711,cs),
(100,711,o),
(23,638,o),
(23,537,cs),
(23,437,o),
(100,364,o),
(197,364,cs)
);
},
{
closed = 1;
nodes = (
(164,450,o),
(145,483,o),
(145,537,cs),
(145,592,o),
(164,625,o),
(197,625,cs),
(230,625,o),
(249,592,o),
(249,537,cs),
(249,483,o),
(230,450,o),
(197,450,cs)
);
},
{
closed = 1;
nodes = (
(768,0,o),
(845,73,o),
(845,174,cs),
(845,274,o),
(768,347,o),
(671,347,cs),
(575,347,o),
(498,274,o),
(498,174,cs),
(498,73,o),
(575,0,o),
(671,0,cs)
);
},
{
closed = 1;
nodes = (
(638,86,o),
(620,119,o),
(620,174,cs),
(620,228,o),
(638,261,o),
(671,261,cs),
(705,261,o),
(723,228,o),
(723,174,cs),
(723,119,o),
(705,86,o),
(671,86,cs)
);
}
);
};
layerId = "3507EE3D-0D92-4546-A145-3A991F0A2B71";
shapes = (
{
closed = 1;
nodes = (
(306,366,o),
(379,419,o),
(379,542,cs),
(379,664,o),
(306,718,o),
(206,718,cs),
(106,718,o),
(32,664,o),
(32,542,cs),
(32,419,o),
(106,366,o),
(206,366,cs)
);
},
{
closed = 1;
nodes = (
(172,452,o),
(154,479,o),
(154,542,cs),
(154,604,o),
(172,632,o),
(206,632,cs),
(240,632,o),
(258,604,o),
(258,542,cs),
(258,479,o),
(240,452,o),
(206,452,cs)
);
},
{
pos = (341,0);
ref = fraction;
},
{
closed = 1;
nodes = (
(736,-8,o),
(809,45,o),
(809,168,cs),
(809,290,o),
(736,344,o),
(636,344,cs),
(536,344,o),
(462,290,o),
(462,168,cs),
(462,45,o),
(536,-8,o),
(636,-8,cs)
);
},
{
closed = 1;
nodes = (
(602,78,o),
(584,105,o),
(584,168,cs),
(584,230,o),
(602,258,o),
(636,258,cs),
(670,258,o),
(688,230,o),
(688,168,cs),
(688,105,o),
(670,78,o),
(636,78,cs)
);
}
);
width = 841;
},
{
background = {
shapes = (
{
closed = 1;
nodes = (
(225,-12,l),
(743,726,l),
(648,726,l),
(130,-12,l)
);
},
{
closed = 1;
nodes = (
(321,366,o),
(385,442,o),
(385,538,cs),
(385,635,o),
(321,711,o),
(241,711,cs),
(161,711,o),
(97,635,o),
(97,538,cs),
(97,442,o),
(161,366,o),
(241,366,cs)
);
},
{
closed = 1;
nodes = (
(199,441,o),
(173,479,o),
(173,538,cs),
(173,597,o),
(199,636,o),
(241,636,cs),
(283,636,o),
(309,597,o),
(309,538,cs),
(309,479,o),
(283,441,o),
(241,441,cs)
);
},
{
closed = 1;
nodes = (
(707,0,o),
(771,76,o),
(771,173,cs),
(771,269,o),
(707,345,o),
(627,345,cs),
(547,345,o),
(483,269,o),
(483,173,cs),
(483,76,o),
(547,0,o),
(627,0,cs)
);
},
{
closed = 1;
nodes = (
(585,75,o),
(559,114,o),
(559,173,cs),
(559,232,o),
(585,270,o),
(627,270,cs),
(669,270,o),
(695,232,o),
(695,173,cs),
(695,114,o),
(669,75,o),
(627,75,cs)
);
}
);
};
layerId = "6C190511-B94A-4F5A-B519-D6E9DB0E7B93";
shapes = (
{
closed = 1;
nodes = (
(288,366,o),
(352,428,o),
(352,542,cs),
(352,656,o),
(288,718,o),
(198,718,cs),
(108,718,o),
(44,656,o),
(44,542,cs),
(44,428,o),
(108,366,o),
(198,366,cs)
);
},
{
closed = 1;
nodes = (
(144,428,o),
(116,470,o),
(116,542,cs),
(116,614,o),
(144,656,o),
(198,656,cs),
(252,656,o),
(280,614,o),
(280,542,cs),
(280,470,o),
(252,428,o),
(198,428,cs)
);
},
{
pos = (316,0);
ref = fraction;
},
{
closed = 1;
nodes = (
(694,-8,o),
(758,54,o),
(758,168,cs),
(758,282,o),
(694,344,o),
(604,344,cs),
(514,344,o),
(450,282,o),
(450,168,cs),
(450,54,o),
(514,-8,o),
(604,-8,cs)
);
},
{
closed = 1;
nodes = (
(550,54,o),
(522,96,o),
(522,168,cs),
(522,240,o),
(550,282,o),
(604,282,cs),
(658,282,o),
(686,240,o),
(686,168,cs),
(686,96,o),
(658,54,o),
(604,54,cs)
);
}
);
width = 802;
}
);
metricLeft = o;
metricRight = o;
unicode = 37;
}
{
color = 4;
glyphname = ampersand;
kernLeft = ampersand;
kernRight = ampersand;
layers = (
{
associatedMasterId = "EE2FFE84-06F1-4AFB-BBEC-60D09A436D14";
layerId = "ED6EEBD0-B4D0-4FD3-8853-D40404FF21B9";
name = "25 de ene. de 23 17:22";
shapes = (
{
closed = 1;
nodes = (
(45,276,o),
(85,327,o),
(183,393,c),
(-5,633,o),
(263,821,o),
(412,673,cs),
(501,584,o),
(453,452,o),
(305,374,c),
(467,168,l),
(491,200,o),
(500,265,o),
(496,320,c),
(586,312,l),
(586,232,o),
(560,150,o),
(521,103,c),
(607,0,l),
(503,0,l),
(467,44,l),
(428,8,o),
(366,-16,o),
(297,-16,cs),
(147,-16,o),
(45,58,o),
(45,188,cs)
);
},
{
closed = 1;
nodes = (
(134,117,o),
(189,64,o),
(297,64,cs),
(337,64,o),
(386,81,o),
(408,108,c),
(237,326,l),
(193,297,o),
(134,254,o),
(134,188,cs)
);
},
{
closed = 1;
nodes = (
(295,677,o),
(124,618,o),
(254,440,c),
(347,498,o),
(397,563,o),
(352,611,cs)
);
}
);
width = 642;
},
{
background = {
shapes = (
{
closed = 1;
nodes = (
(342,-12,o),
(410,19,o),
(459,70,c),
(514,0,l),
(554,0,l),
(480,94,l),
(511,135,o),
(533,186,o),
(541,242,c),
(507,247,l),
(500,200,o),
(483,157,o),
(458,122,c),
(248,390,l),
(331,443,o),
(391,505,o),
(391,575,cs),
(391,665,o),
(327,729,o),
(246,729,cs),
(163,729,o),
(104,675,o),
(104,585,cs),
(104,514,o),
(161,449,o),
(204,395,c),
(194,388,o),
(185,382,o),
(181,380,cs),
(92,321,o),
(50,256,o),
(50,178,cs),
(50,64,o),
(147,-12,o),
(263,-12,cs)
);
},
{
closed = 1;
nodes = (
(166,20,o),
(84,82,o),
(84,178,cs),
(84,252,o),
(123,306,o),
(221,370,cs),
(438,96,l),
(395,49,o),
(334,20,o),
(263,20,cs)
);
},
{
closed = 1;
nodes = (
(180,477,o),
(138,532,o),
(138,584,cs),
(138,656,o),
(183,697,o),
(246,697,cs),
(308,697,o),
(357,646,o),
(357,574,cs),
(357,518,o),
(316,473,o),
(230,413,c)
);
}
);
};
layerId = "EE2FFE84-06F1-4AFB-BBEC-60D09A436D14";
name = Regular;
shapes = (
{
closed = 1;
nodes = (
(346,-16,o),
(413,20,o),
(459,70,c),
(514,0,l),
(554,0,l),
(479,95,l),
(509,131,o),
(534,188,o),
(542,242,c),
(508,246,l),
(502,198,o),
(485,155,o),
(460,120,c),
(249,384,l),
(359,452,o),
(401,506,o),
(401,584,cs),
(401,676,o),
(340,726,o),
(256,726,cs),
(169,726,o),
(112,671,o),
(112,584,cs),
(112,524,o),
(136,486,o),
(205,395,c),
(110,335,o),
(50,272,o),
(50,170,cs),
(50,50,o),
(136,-16,o),
(260,-16,cs)
);
},
{
closed = 1;
nodes = (
(158,16,o),
(84,68,o),
(84,170,cs),
(84,246,o),
(123,306,o),
(223,370,c),
(439,96,l),
(400,48,o),
(333,16,o),
(264,16,cs)
);
},
{
closed = 1;
nodes = (
(166,494,o),
(146,534,o),
(146,584,cs),
(146,652,o),
(189,694,o),
(256,694,cs),
(325,694,o),
(367,651,o),
(367,582,cs),
(367,512,o),
(334,476,o),
(232,408,c)
);
}
);
width = 584;
},
{
background = {
shapes = (
{
closed = 1;
nodes = (
(411,-12,o),
(464,0,o),
(508,21,c),
(526,0,l),
(753,0,l),
(649,118,l),
(697,170,o),
(730,240,o),
(738,315,c),
(540,334,l),
(539,308,o),
(533,279,o),
(521,260,c),
(442,356,l),
(534,401,o),
(593,457,o),
(599,529,cs),
(608,636,o),
(494,723,o),
(351,726,cs),
(218,728,o),
(109,647,o),
(109,540,cs),
(109,486,o),
(133,438,o),
(187,386,c),
(185,384,o),
(182,383,o),
(179,381,cs),
(74,325,o),
(32,272,o),
(32,194,cs),
(32,65,o),
(159,-12,o),
(357,-12,cs)
);
},
{
closed = 1;
nodes = (
(263,146,o),
(231,173,o),
(230,208,cs),
(228,237,o),
(252,261,o),
(282,278,c),
(381,160,l),
(366,152,o),
(346,146,o),
(325,146,cs)
);
},
{
closed = 1;
nodes = (
(319,485,o),
(309,505,o),
(309,523,cs),
(309,549,o),
(330,570,o),
(358,569,cs),
(384,568,o),
(399,549,o),
(399,524,cs),
(399,501,o),
(381,479,o),
(341,458,c)
);
}
);
};
layerId = "3507EE3D-0D92-4546-A145-3A991F0A2B71";
name = "Ultra Black";
shapes = (
{
closed = 1;
nodes = (
(384,-16,o),
(462,-1,o),
(508,21,c),
(526,0,l),
(753,0,l),
(649,118,l),
(698,171,o),
(730,242,o),
(738,315,c),
(540,334,l),
(539,305,o),
(532,277,o),
(521,260,c),
(442,354,l),
(544,406,o),
(599,455,o),
(599,544,cs),
(599,644,o),
(517,726,o),
(351,726,cs),
(192,726,o),
(109,648,o),
(109,534,cs),
(109,472,o),
(137,430,o),
(183,386,c),
(76,327,o),
(30,266,o),
(30,176,cs),
(30,52,o),
(121,-16,o),
(307,-16,cs)
);
},
{
closed = 1;
nodes = (
(266,148,o),
(231,170,o),
(231,204,cs),
(231,233,o),
(247,258,o),
(282,278,c),
(381,160,l),
(367,152,o),
(348,148,o),
(321,148,cs)
);
},
{
closed = 1;
nodes = (
(317,486,o),
(307,504,o),
(307,524,cs),
(307,550,o),
(324,569,o),
(355,569,cs),
(384,569,o),
(401,552,o),
(401,526,cs),
(401,498,o),
(382,480,o),
(345,460,c)
);
}
);
width = 763;
},
{
background = {
shapes = (
{
closed = 1;
nodes = (
(360,-12,o),
(423,8,o),
(462,45,c),
(499,0,l),
(600,0,l),
(515,103,l),
(554,150,o),
(579,230,o),
(580,310,c),
(492,318,l),
(495,263,o),
(486,199,o),
(462,166,c),
(298,375,l),
(368,418,o),
(412,471,o),
(430,524,cs),
(464,626,o),
(384,717,o),
(288,726,cs),
(198,734,o),
(113,666,o),
(113,562,cs),
(113,511,o),
(133,454,o),
(179,393,c),
(175,390,o),
(170,387,o),
(166,384,cs),
(77,322,o),
(40,271,o),
(40,188,cs),
(40,58,o),
(142,-12,o),
(291,-12,cs)
);
},
{
closed = 1;
nodes = (
(191,66,o),
(128,113,o),
(128,188,cs),
(128,254,o),
(186,297,o),
(232,327,cs),
(404,108,l),
(383,82,o),
(340,66,o),
(291,66,cs)
);
},
{
closed = 1;
nodes = (
(213,488,o),
(198,527,o),
(198,559,cs),
(197,606,o),
(234,645,o),
(283,642,cs),
(326,639,o),
(353,605,o),
(353,559,cs),
(353,515,o),
(313,469,o),
(248,439,c)
);
}
);
};
layerId = "6C190511-B94A-4F5A-B519-D6E9DB0E7B93";
name = Regular;
shapes = (
{
closed = 1;
nodes = (
(356,-16,o),
(423,8,o),
(462,45,c),
(499,0,l),
(600,0,l),
(515,103,l),
(554,150,o),
(581,230,o),
(582,310,c),
(498,318,l),
(498,250,o),
(486,199,o),
(462,166,c),
(300,373,l),
(407,444,o),
(448,498,o),
(448,574,cs),
(448,668,o),
(388,726,o),
(282,726,cs),
(174,726,o),
(108,664,o),
(108,562,cs),
(108,499,o),
(134,454,o),
(180,394,c),
(74,319,o),
(40,265,o),
(40,174,cs),
(40,52,o),
(124,-16,o),
(260,-16,cs)
);
},
{
closed = 1;
nodes = (
(172,64,o),
(130,107,o),
(130,174,cs),
(130,236,o),
(158,278,o),
(230,328,c),
(406,106,l),
(383,82,o),
(338,64,o),
(270,64,cs)
);
},
{
closed = 1;
nodes = (
(212,488,o),
(198,521,o),
(198,562,cs),
(198,612,o),
(229,642,o),
(282,642,cs),
(330,642,o),
(358,616,o),
(358,568,cs),
(358,517,o),
(330,481,o),
(254,434,c)
);
}
);
width = 620;
}
);
metricLeft = eight;
metricRight = "=eight-20";
unicode = 38;
}
{
color = 4;
glyphname = quotesingle;
layers = (
{
layerId = "EE2FFE84-06F1-4AFB-BBEC-60D09A436D14";
shapes = (
{
closed = 1;
nodes = (
(82,467,l),
(88,640,l),
(88,710,l),
(50,710,l),
(50,640,l),
(56,467,l)
);
}
);
width = 138;
},
{
layerId = "3507EE3D-0D92-4546-A145-3A991F0A2B71";
shapes = (
{
closed = 1;
nodes = (
(161,422,l),
(175,624,l),
(175,710,l),
(35,710,l),
(35,624,l),
(49,422,l)
);
}
);
width = 210;
},
{
layerId = "6C190511-B94A-4F5A-B519-D6E9DB0E7B93";
shapes = (
{
closed = 1;
nodes = (
(121,444,l),
(137,630,l),
(137,710,l),
(49,710,l),
(49,630,l),
(65,444,l)
);
}
);
width = 186;
}
);
metricLeft = O;
metricRight = O;
unicode = 39;
}
{
color = 4;
glyphname = parenleft;
kernLeft = parenleft;
kernRight = parenleft;
layers = (
{
background = {
shapes = (
{
closed = 1;
nodes = (
(189,-110,l),
(49,177,o),
(49,463,o),
(189,750,c),
(164,750,l),
(12,463,o),
(12,177,o),
(164,-110,c)
);
}
);
};
layerId = "EE2FFE84-06F1-4AFB-BBEC-60D09A436D14";
shapes = (
{
closed = 1;
nodes = (
(189,-110,l),
(119,34,o),
(84,177,o),
(84,320,cs),
(84,463,o),
(119,607,o),
(189,750,c),
(164,750,l),
(88,607,o),
(50,463,o),
(50,320,cs),
(50,177,o),
(88,34,o),
(164,-110,c)
);
}
);
width = 209;
},
{
background = {
shapes = (
{
closed = 1;
nodes = (
(340,-110,l),
(184,177,o),
(184,463,o),
(340,750,c),
(168,750,l),
(-9,466,o),
(-9,174,o),
(168,-110,c)
);
}
);
};
layerId = "3507EE3D-0D92-4546-A145-3A991F0A2B71";
shapes = (
{
closed = 1;
nodes = (
(345,-110,l),
(267,34,o),
(228,177,o),
(228,320,cs),
(228,463,o),
(267,607,o),
(345,750,c),
(173,750,l),
(85,608,o),
(40,464,o),
(40,320,cs),
(40,176,o),
(85,32,o),
(173,-110,c)
);
}
);
width = 355;
},
{
background = {
shapes = (
{
closed = 1;
nodes = (
(263,-110,l),
(94,177,o),
(94,463,o),
(263,750,c),
(188,750,l),
(3,474,o),
(3,166,o),
(188,-110,c)
);
}
);
};
layerId = "6C190511-B94A-4F5A-B519-D6E9DB0E7B93";
shapes = (
{
closed = 1;
nodes = (
(259,-110,l),
(175,34,o),
(132,177,o),
(132,320,cs),
(132,463,o),
(175,607,o),
(259,750,c),
(184,750,l),
(92,612,o),
(45,466,o),
(45,320,cs),
(45,174,o),
(92,28,o),
(184,-110,c)
);
}
);
width = 274;
}
);
metricLeft = O;
metricRight = X;
unicode = 40;
}
{
color = 4;
glyphname = asterisk;
kernLeft = asterisk;
kernRight = asterisk;
layers = (
{
guides = (
{
pos = (238,706);
},
{
pos = (225,378);
},
{
angle = 270;
pos = (382,608);
},
{
angle = 270;
pos = (61,598);
},
{
pos = (164,706);
}
);
layerId = "EE2FFE84-06F1-4AFB-BBEC-60D09A436D14";
shapes = (
{
closed = 1;
nodes = (
(221,530,l),
(298,398,l),
(324,414,l),
(248,539,l),
(392,539,l),
(392,569,l),
(248,569,l),
(324,694,l),
(298,710,l),
(221,578,l),
(144,710,l),
(118,694,l),
(194,569,l),
(50,569,l),
(50,539,l),
(194,539,l),
(118,414,l),
(144,398,l)
);
}
);
width = 442;
},
{
associatedMasterId = "EE2FFE84-06F1-4AFB-BBEC-60D09A436D14";
guides = (
{
pos = (228,706);
},
{
pos = (215,378);
},
{
angle = 270;
pos = (372,608);
},
{
angle = 270;
pos = (51,598);
},
{
pos = (154,706);
}
);
layerId = "5C64FE3B-FF75-41D6-99E9-254AEB2DE07B";
name = "24 de feb. de 23 13:25";
shapes = (
{
closed = 1;
nodes = (
(40,562,l),
(40,532,l),
(382,532,l),
(382,562,l)
);
},
{
closed = 1;
nodes = (
(138,703,l),
(113,688,l),
(284,391,l),
(309,406,l)
);
},
{
closed = 1;
nodes = (
(138,391,l),
(309,688,l),
(284,703,l),
(113,406,l)
);
}
);
width = 422;
},
{
layerId = "3507EE3D-0D92-4546-A145-3A991F0A2B71";
shapes = (
{
closed = 1;
nodes = (
(210,431,l),
(252,351,l),
(347,403,l),
(295,479,l),
(385,477,l),
(385,601,l),
(295,599,l),
(347,675,l),
(252,727,l),
(210,647,l),
(168,727,l),
(73,675,l),
(123,599,l),
(33,601,l),
(33,477,l),
(123,479,l),
(73,403,l),
(168,351,l)
);
}
);
width = 418;
},
{
layerId = "6C190511-B94A-4F5A-B519-D6E9DB0E7B93";
shapes = (
{
closed = 1;
nodes = (
(218,488,l),
(285,382,l),
(337,416,l),
(269,518,l),
(389,518,l),
(389,582,l),
(269,582,l),
(337,684,l),
(285,718,l),
(218,611,l),
(152,718,l),
(100,684,l),
(167,582,l),
(47,582,l),
(47,518,l),
(167,518,l),
(100,416,l),
(152,382,l)
);
}
);
width = 436;
}
);
metricLeft = o;
metricRight = o;
unicode = 42;
}
{
color = 4;
glyphname = plus;
kernLeft = plus;
kernRight = plus;
layers = (
{
background = {
shapes = (
{
closed = 1;
nodes = (
(295,47,l),
(295,523,l),
(263,523,l),
(263,47,l)
);
},
{
closed = 1;
nodes = (
(517,270,l),
(517,300,l),
(41,300,l),
(41,270,l)
);
}
);
};
layerId = "EE2FFE84-06F1-4AFB-BBEC-60D09A436D14";
shapes = (
{
closed = 1;
nodes = (
(293,46,l),
(293,524,l),
(265,524,l),
(265,46,l)
);
},
{
closed = 1;
nodes = (
(518,271,l),
(518,299,l),
(40,299,l),
(40,271,l)
);
}
);
width = 558;
},
{
background = {
shapes = (
{
closed = 1;
nodes = (
(365,43,l),
(365,519,l),
(214,519,l),
(214,43,l)
);
},
{
closed = 1;
nodes = (
(527,205,l),
(527,356,l),
(51,356,l),
(51,205,l)
);
}
);
};
layerId = "3507EE3D-0D92-4546-A145-3A991F0A2B71";
shapes = (
{
closed = 1;
nodes = (
(364,32,l),
(364,530,l),
(214,530,l),
(214,32,l)
);
},
{
closed = 1;
nodes = (
(538,206,l),
(538,356,l),
(40,356,l),
(40,206,l)
);
}
);
width = 578;
},
{
background = {
shapes = (
{
closed = 1;
nodes = (
(318,57,l),
(318,533,l),
(240,533,l),
(240,57,l)
);
},
{
closed = 1;
nodes = (
(517,256,l),
(517,334,l),
(41,334,l),
(41,256,l)
);
}
);
};
layerId = "6C190511-B94A-4F5A-B519-D6E9DB0E7B93";
shapes = (
{
closed = 1;
nodes = (
(318,56,l),
(318,534,l),
(240,534,l),
(240,56,l)
);
},
{
closed = 1;
nodes = (
(518,256,l),
(518,334,l),
(40,334,l),
(40,256,l)
);
}
);
width = 558;
}
);
metricLeft = "=40";
metricRight = "=40";
unicode = 43;
}
{
color = 4;
glyphname = comma;
kernLeft = period;
kernRight = period;
layers = (
{
background = {
shapes = (
{
closed = 1;
nodes = (
(72,-125,l),
(112,0,l),
(80,0,l),
(50,-125,l)
);
},
{
closed = 1;
nodes = (
(112,0,l),
(112,65,l),
(53,65,l),
(53,0,l)
);
}
);
};
layerId = "EE2FFE84-06F1-4AFB-BBEC-60D09A436D14";
shapes = (
{
closed = 1;
nodes = (
(72,-125,l),
(112,8,l),
(112,65,l),
(53,65,l),
(53,0,l),
(82,0,l),
(50,-125,l)
);
}
);
width = 162;
},
{
background = {
shapes = (
{
closed = 1;
nodes = (
(153,-160,l),
(229,0,l),
(99,0,l),
(50,-160,l)
);
},
{
closed = 1;
nodes = (
(229,0,l),
(229,180,l),
(33,180,l),
(33,0,l)
);
}
);
};
layerId = "3507EE3D-0D92-4546-A145-3A991F0A2B71";
shapes = (
{
closed = 1;
nodes = (
(152,-160,l),
(228,18,l),
(228,180,l),
(32,180,l),
(32,0,l),
(107,0,l),
(49,-160,l)
);
}
);
width = 260;
},
{
background = {
shapes = (
{
closed = 1;
nodes = (
(103,-154,l),
(160,0,l),
(93,0,l),
(54,-154,l)
);
},
{
closed = 1;
nodes = (
(160,0,l),
(160,113,l),
(47,113,l),
(47,0,l)
);
}
);
};
layerId = "6C190511-B94A-4F5A-B519-D6E9DB0E7B93";
shapes = (
{
closed = 1;
nodes = (
(97,-156,l),
(157,14,l),
(157,113,l),
(44,113,l),
(44,0,l),
(95,0,l),
(47,-156,l)
);
}
);
width = 201;
}
);
metricLeft = o;
metricRight = o;
unicode = 44;
}
{
color = 4;
glyphname = hyphen;
kernLeft = hyphen;
kernRight = hyphen;
layers = (
{
background = {
shapes = (
{
closed = 1;
nodes = (
(22,232,l),
(354,232,l),
(354,312,l),
(22,312,l)
);
}
);
};
layerId = "EE2FFE84-06F1-4AFB-BBEC-60D09A436D14";
shapes = (
{
closed = 1;
nodes = (
(346,266,l),
(346,296,l),
(50,296,l),
(50,266,l)
);
}
);
width = 396;
},
{
layerId = "3507EE3D-0D92-4546-A145-3A991F0A2B71";
shapes = (
{
closed = 1;
nodes = (
(384,216,l),
(384,368,l),
(32,368,l),
(32,216,l)
);
}
);
width = 416;
},
{
layerId = "6C190511-B94A-4F5A-B519-D6E9DB0E7B93";
shapes = (
{
closed = 1;
nodes = (
(375,252,l),
(375,331,l),
(44,331,l),
(44,252,l)
);
}
);
width = 419;
}
);
metricLeft = o;
metricRight = o;
unicode = 45;
}
{
color = 4;
glyphname = period;
kernLeft = period;
kernRight = period;
layers = (
{
background = {
shapes = (
{
closed = 1;
nodes = (
(91,-6,o),
(104,7,o),
(104,24,cs),
(104,42,o),
(91,55,o),
(73,55,cs),
(55,55,o),
(42,42,o),
(42,24,cs),
(42,7,o),
(55,-6,o),
(73,-6,cs)
);
}
);
};
layerId = "EE2FFE84-06F1-4AFB-BBEC-60D09A436D14";
shapes = (
{
closed = 1;
nodes = (
(109,0,l),
(109,65,l),
(50,65,l),
(50,0,l)
);
}
);
width = 159;
},
{
layerId = "3507EE3D-0D92-4546-A145-3A991F0A2B71";
shapes = (
{
closed = 1;
nodes = (
(229,0,l),
(229,180,l),
(33,180,l),
(33,0,l)
);
}
);
width = 262;
},
{
layerId = "6C190511-B94A-4F5A-B519-D6E9DB0E7B93";
shapes = (
{
closed = 1;
nodes = (
(160,0,l),
(160,113,l),
(47,113,l),
(47,0,l)
);
}
);
width = 207;
}
);
metricLeft = o;
metricRight = o;
unicode = 46;
}
{
color = 4;
glyphname = zero;
kernLeft = O;
kernRight = O;
layers = (
{
background = {
shapes = (
{
closed = 1;
nodes = (
(481,-16,o),
(583,127,o),
(583,354,cs),
(583,583,o),
(481,726,o),
(319,726,cs),
(157,726,o),
(55,583,o),
(55,354,cs),
(55,127,o),
(157,-16,o),
(319,-16,cs)
);
},
{
closed = 1;
nodes = (
(178,16,o),
(89,146,o),
(89,354,cs),
(89,563,o),
(178,694,o),
(319,694,cs),
(460,694,o),
(549,563,o),
(549,354,cs),
(549,146,o),
(460,16,o),
(319,16,cs)
);
}
);
};
layerId = "EE2FFE84-06F1-4AFB-BBEC-60D09A436D14";
shapes = (
{
closed = 1;
nodes = (
(481,-16,o),
(583,127,o),
(583,354,cs),
(583,583,o),
(481,726,o),
(319,726,cs),
(157,726,o),
(55,583,o),
(55,354,cs),
(55,127,o),
(157,-16,o),
(319,-16,cs)
);
},
{
closed = 1;
nodes = (
(177,16,o),
(89,142,o),
(89,354,cs),
(89,566,o),
(177,694,o),
(319,694,cs),
(461,694,o),
(549,566,o),
(549,354,cs),
(549,142,o),
(461,16,o),
(319,16,cs)
);
}
);
width = 638;
},
{
layerId = "3507EE3D-0D92-4546-A145-3A991F0A2B71";
shapes = (
{
closed = 1;
nodes = (
(553,-16,o),
(673,125,o),
(673,354,cs),
(673,584,o),
(552,726,o),
(357,726,cs),
(161,726,o),
(40,584,o),
(40,354,cs),
(40,124,o),
(160,-16,o),
(357,-16,cs)
);
},
{
closed = 1;
nodes = (
(281,141,o),
(241,209,o),
(241,354,cs),
(241,499,o),
(281,569,o),
(357,569,cs),
(432,569,o),
(472,499,o),
(472,354,cs),
(472,209,o),
(432,141,o),
(357,141,cs)
);
}
);
width = 713;
},
{
layerId = "6C190511-B94A-4F5A-B519-D6E9DB0E7B93";
shapes = (
{
closed = 1;
nodes = (
(508,-16,o),
(617,127,o),
(617,354,cs),
(617,583,o),
(508,726,o),
(335,726,cs),
(163,726,o),
(54,582,o),
(54,354,cs),
(54,127,o),
(163,-16,o),
(335,-16,cs)
);
},
{
closed = 1;
nodes = (
(213,68,o),
(144,171,o),
(144,354,cs),
(144,538,o),
(213,642,o),
(335,642,cs),
(458,642,o),
(527,538,o),
(527,354,cs),
(527,171,o),
(458,68,o),
(335,68,cs)
);
}
);
width = 671;
}
);
metricLeft = "=O+5";
metricRight = "=O+5";
unicode = 48;
}
{
color = 4;
glyphname = one;
kernLeft = one;
kernRight = H;
layers = (
{
background = {
shapes = (
{
closed = 1;
nodes = (
(221,0,l),
(221,710,l),
(196,710,l),
(196,627,o),
(163,590,o),
(87,590,c),
(40,590,l),
(40,564,l),
(189,564,l),
(189,0,l)
);
}
);
};
layerId = "EE2FFE84-06F1-4AFB-BBEC-60D09A436D14";
shapes = (
{
closed = 1;
nodes = (
(231,0,l),
(231,710,l),
(205,710,l),
(205,614,o),
(178,590,o),
(98,590,cs),
(50,590,l),
(50,564,l),
(199,564,l),
(199,0,l)
);
}
);
width = 351;
},
{
associatedMasterId = "EE2FFE84-06F1-4AFB-BBEC-60D09A436D14";
background = {
shapes = (
{
closed = 1;
nodes = (
(46,512,l),
(192,620,l),
(160,647,l),
(160,0,l),
(246,0,l),
(246,710,l),
(172,710,l),
(-8,577,l)
);
}
);
};
layerId = "62097056-30DA-40BF-A05F-DD5AA35C8A84";
name = "4 de may. de 23 16:51";
shapes = (
{
closed = 1;
nodes = (
(25,590,l),
(143,678,l),
(143,0,l),
(173,0,l),
(173,710,l),
(137,710,l),
(5,611,l)
);
}
);
width = 269;
},
{
background = {
shapes = (
{
closed = 1;
nodes = (
(374,0,l),
(374,710,l),
(222,710,l),
(220,611,o),
(172,564,o),
(74,564,c),
(20,564,l),
(20,428,l),
(180,428,l),
(180,0,l)
);
}
);
};
layerId = "3507EE3D-0D92-4546-A145-3A991F0A2B71";
shapes = (
{
closed = 1;
nodes = (
(390,0,l),
(390,710,l),
(234,710,l),
(234,600,o),
(194,564,o),
(98,564,cs),
(36,564,l),
(36,428,l),
(194,428,l),
(194,0,l)
);
}
);
width = 492;
},
{
background = {
shapes = (
{
closed = 1;
nodes = (
(264,0,l),
(264,710,l),
(196,710,l),
(196,633,o),
(163,600,o),
(87,600,c),
(30,600,l),
(30,526,l),
(177,526,l),
(177,0,l)
);
}
);
};
layerId = "6C190511-B94A-4F5A-B519-D6E9DB0E7B93";
shapes = (
{
closed = 1;
nodes = (
(274,0,l),
(274,710,l),
(206,710,l),
(206,626,o),
(178,600,o),
(100,600,cs),
(40,600,l),
(40,526,l),
(188,526,l),
(188,0,l)
);
}
);
width = 384;
}
);
unicode = 49;
}
{
color = 4;
glyphname = two;
kernLeft = two;
kernRight = two;
layers = (
{
background = {
shapes = (
{
closed = 1;
nodes = (
(545,0,l),
(545,30,l),
(106,30,l),
(109,110,o),
(204,208,o),
(355,293,cs),
(483,365,o),
(547,448,o),
(547,524,cs),
(547,643,o),
(458,726,o),
(331,726,cs),
(197,726,o),
(101,637,o),
(83,496,c),
(117,493,l),
(138,622,o),
(215,694,o),
(331,694,cs),
(438,694,o),
(513,624,o),
(513,524,cs),
(513,459,o),
(466,390,o),
(336,317,cs),
(156,216,o),
(70,116,o),
(70,0,c)
);
}
);
};
layerId = "EE2FFE84-06F1-4AFB-BBEC-60D09A436D14";
shapes = (
{
closed = 1;
nodes = (
(547,0,l),
(547,30,l),
(106,30,l),
(112,122,o),
(190,213,o),
(344,288,cs),
(480,354,o),
(547,412,o),
(547,522,cs),
(547,637,o),
(465,726,o),
(325,726,cs),
(185,726,o),
(90,639,o),
(72,496,c),
(106,493,l),
(126,625,o),
(204,694,o),
(325,694,cs),
(448,694,o),
(513,618,o),
(513,520,cs),
(513,426,o),
(454,379,o),
(326,315,cs),
(146,225,o),
(70,130,o),
(70,0,c)
);
}
);
width = 617;
},
{
associatedMasterId = "EE2FFE84-06F1-4AFB-BBEC-60D09A436D14";
background = {
shapes = (
{
closed = 1;
nodes = (
(178,279,o),
(34,219,o),
(34,0,c),
(533,0,l),
(533,82,l),
(88,82,l),
(133,45,l),
(124,147,o),
(198,200,o),
(293,260,cs),
(345,293,ls),
(442,355,o),
(527,420,o),
(527,524,cs),
(527,640,o),
(431,726,o),
(301,726,cs),
(139,726,o),
(40,599,o),
(43,440,c),
(-4,501,l),
(176,489,l),
(131,434,l),
(131,545,o),
(191,644,o),
(301,644,cs),
(379,644,o),
(437,599,o),
(437,524,cs),
(437,469,o),
(379,417,o),
(316,374,cs),
(251,329,ls)
);
}
);
};
layerId = "E03EF528-E65A-45B9-8975-F20273B8112F";
name = "24 de feb. de 23 11:29";
shapes = (
{
closed = 1;
nodes = (
(87,493,l),
(108,622,o),
(185,694,o),
(301,694,cs),
(408,694,o),
(483,624,o),
(483,524,cs),
(483,463,o),
(435,401,o),
(321,326,cs),
(256,283,ls),
(100,180,o),
(40,101,o),
(40,0,c),
(515,0,l),
(515,30,l),
(64,30,l),
(76,25,l),
(74,93,o),
(151,182,o),
(288,269,cs),
(340,302,ls),
(454,375,o),
(517,454,o),
(517,524,cs),
(517,643,o),
(428,726,o),
(301,726,cs),
(167,726,o),
(71,637,o),
(53,496,c)
);
}
);
width = 557;
},
{
background = {
shapes = (
{
closed = 1;
nodes = (
(615,0,l),
(615,157,l),
(287,157,l),
(293,207,o),
(408,266,o),
(435,280,cs),
(525,329,o),
(615,387,o),
(615,501,cs),
(615,632,o),
(501,726,o),
(340,726,cs),
(173,726,o),
(57,621,o),
(50,474,c),
(250,463,l),
(259,532,o),
(290,569,o),
(340,569,cs),
(384,569,o),
(415,541,o),
(415,504,cs),
(415,464,o),
(376,439,o),
(305,398,cs),
(144,313,o),
(51,206,o),
(51,0,c)
);
}
);
};
layerId = "3507EE3D-0D92-4546-A145-3A991F0A2B71";
shapes = (
{
closed = 1;
nodes = (
(621,0,l),
(621,157,l),
(288,157,l),
(292,185,o),
(336,224,o),
(440,280,cs),
(566,348,o),
(621,394,o),
(621,506,cs),
(621,638,o),
(520,726,o),
(346,726,cs),
(172,726,o),
(67,634,o),
(56,474,c),
(256,463,l),
(262,532,o),
(294,569,o),
(348,569,cs),
(395,569,o),
(421,542,o),
(421,504,cs),
(421,462,o),
(392,440,o),
(296,390,cs),
(130,303,o),
(57,204,o),
(57,0,c)
);
}
);
width = 676;
},
{
background = {
shapes = (
{
closed = 1;
nodes = (
(559,0,l),
(559,84,l),
(167,84,l),
(170,155,o),
(307,252,o),
(364,284,cs),
(471,351,o),
(553,421,o),
(553,524,cs),
(553,640,o),
(457,726,o),
(327,726,cs),
(185,726,o),
(92,629,o),
(73,498,c),
(163,492,l),
(182,588,o),
(241,642,o),
(327,642,cs),
(407,642,o),
(463,593,o),
(463,524,cs),
(463,469,o),
(408,414,o),
(333,366,cs),
(212,289,o),
(60,212,o),
(60,0,c)
);
}
);
};
layerId = "6C190511-B94A-4F5A-B519-D6E9DB0E7B93";
shapes = (
{
closed = 1;
nodes = (
(559,0,l),
(559,84,l),
(166,84,l),
(170,138,o),
(236,212,o),
(364,280,cs),
(511,358,o),
(559,412,o),
(559,520,cs),
(559,642,o),
(473,726,o),
(327,726,cs),
(173,726,o),
(80,637,o),
(64,498,c),
(154,492,l),
(169,588,o),
(227,642,o),
(327,642,cs),
(421,642,o),
(469,591,o),
(469,518,cs),
(469,446,o),
(430,414,o),
(332,362,cs),
(119,249,o),
(60,150,o),
(60,0,c)
);
}
);
width = 619;
}
);
unicode = 50;
}
{
color = 4;
glyphname = three;
kernLeft = three;
kernRight = three;
layers = (
{
background = {
shapes = (
{
closed = 1;
nodes = (
(445,-16,o),
(549,71,o),
(549,195,cs),
(549,296,o),
(467,378,o),
(341,395,c),
(341,372,l),
(453,386,o),
(525,457,o),
(525,541,cs),
(525,650,o),
(434,726,o),
(300,726,cs),
(195,726,o),
(108,659,o),
(90,564,c),
(124,561,l),
(139,639,o),
(211,694,o),
(300,694,cs),
(414,694,o),
(491,631,o),
(491,541,cs),
(491,456,o),
(411,397,o),
(297,397,c),
(231,398,l),
(231,367,l),
(297,368,l),
(425,368,o),
(515,298,o),
(515,199,cs),
(515,88,o),
(425,16,o),
(297,16,cs),
(182,16,o),
(101,81,o),
(91,177,c),
(60,174,l),
(70,61,o),
(164,-16,o),
(297,-16,cs)
);
}
);
};
layerId = "EE2FFE84-06F1-4AFB-BBEC-60D09A436D14";
shapes = (
{
closed = 1;
nodes = (
(447,-16,o),
(549,69,o),
(549,195,cs),
(549,299,o),
(470,374,o),
(340,392,c),
(340,376,l),
(459,389,o),
(525,452,o),
(525,543,cs),
(525,654,o),
(438,726,o),
(308,726,cs),
(188,726,o),
(109,663,o),
(90,564,c),
(124,561,l),
(140,643,o),
(210,694,o),
(308,694,cs),
(420,694,o),
(491,635,o),
(491,543,cs),
(491,454,o),
(418,397,o),
(298,397,cs),
(231,397,l),
(231,367,l),
(298,367,ls),
(429,367,o),
(515,300,o),
(515,199,cs),
(515,85,o),
(429,16,o),
(304,16,cs),
(181,16,o),
(101,80,o),
(91,177,c),
(60,174,l),
(70,60,o),
(163,-16,o),
(304,-16,cs)
);
}
);
width = 609;
},
{
background = {
shapes = (
{
closed = 1;
nodes = (
(525,-16,o),
(637,63,o),
(637,195,cs),
(637,296,o),
(569,364,o),
(447,384,c),
(447,384,l),
(554,403,o),
(613,458,o),
(613,541,cs),
(613,657,o),
(510,726,o),
(335,726,cs),
(178,726,o),
(67,645,o),
(53,519,c),
(249,510,l),
(253,545,o),
(283,569,o),
(330,569,cs),
(381,569,o),
(412,543,o),
(412,506,cs),
(412,457,o),
(375,432,o),
(330,433,cs),
(265,434,l),
(265,314,l),
(330,315,ls),
(387,316,o),
(435,286,o),
(435,230,cs),
(435,173,o),
(390,141,o),
(338,141,cs),
(292,141,o),
(248,174,o),
(242,231,c),
(43,225,l),
(50,78,o),
(165,-16,o),
(335,-16,cs)
);
}
);
};
layerId = "3507EE3D-0D92-4546-A145-3A991F0A2B71";
shapes = (
{
closed = 1;
nodes = (
(526,-16,o),
(637,66,o),
(637,200,cs),
(637,299,o),
(574,360,o),
(456,380,c),
(456,364,l),
(556,382,o),
(615,441,o),
(615,522,cs),
(615,648,o),
(520,726,o),
(336,726,cs),
(168,726,o),
(63,643,o),
(49,513,c),
(245,504,l),
(251,540,o),
(278,569,o),
(336,569,cs),
(393,569,o),
(415,539,o),
(415,498,cs),
(415,449,o),
(379,429,o),
(334,429,cs),
(265,429,l),
(265,297,l),
(334,297,ls),
(398,297,o),
(436,268,o),
(436,218,cs),
(436,172,o),
(399,141,o),
(342,141,cs),
(281,141,o),
(248,171,o),
(242,231,c),
(43,225,l),
(50,73,o),
(154,-16,o),
(342,-16,cs)
);
}
);
width = 679;
},
{
background = {
shapes = (
{
closed = 1;
nodes = (
(455,-16,o),
(563,71,o),
(563,195,cs),
(563,297,o),
(494,370,o),
(372,392,c),
(371,375,l),
(481,395,o),
(539,451,o),
(539,541,cs),
(539,650,o),
(441,726,o),
(301,726,cs),
(182,726,o),
(89,655,o),
(76,555,c),
(166,549,l),
(175,606,o),
(227,642,o),
(301,642,cs),
(392,642,o),
(448,603,o),
(448,541,cs),
(448,449,o),
(368,418,o),
(301,419,c),
(246,420,l),
(246,335,l),
(301,336,l),
(385,338,o),
(473,297,o),
(473,202,cs),
(473,106,o),
(385,68,o),
(301,68,cs),
(230,68,o),
(147,102,o),
(139,189,c),
(50,183,l),
(56,66,o),
(159,-16,o),
(301,-16,cs)
);
}
);
};
layerId = "6C190511-B94A-4F5A-B519-D6E9DB0E7B93";
shapes = (
{
closed = 1;
nodes = (
(455,-16,o),
(563,62,o),
(563,198,cs),
(563,302,o),
(490,376,o),
(374,390,c),
(374,372,l),
(482,392,o),
(538,446,o),
(538,534,cs),
(538,652,o),
(450,726,o),
(306,726,cs),
(164,726,o),
(81,653,o),
(68,547,c),
(158,541,l),
(167,604,o),
(212,642,o),
(306,642,cs),
(400,642,o),
(448,603,o),
(448,530,cs),
(448,449,o),
(386,419,o),
(302,419,cs),
(246,419,l),
(246,335,l),
(302,335,ls),
(404,335,o),
(473,292,o),
(473,198,cs),
(473,102,o),
(393,68,o),
(301,68,cs),
(212,68,o),
(147,102,o),
(139,189,c),
(50,183,l),
(56,66,o),
(143,-16,o),
(301,-16,cs)
);
}
);
width = 613;
}
);
unicode = 51;
}
{
color = 4;
glyphname = four;
kernLeft = four;
kernRight = four;
layers = (
{
background = {
shapes = (
{
closed = 1;
nodes = (
(455,0,l),
(455,165,l),
(540,165,l),
(540,195,l),
(455,195,l),
(455,710,l),
(423,710,l),
(40,191,l),
(40,165,l),
(423,165,l),
(423,0,l)
);
},
{
closed = 1;
nodes = (
(423,657,l),
(423,195,l),
(82,195,l)
);
}
);
};
layerId = "EE2FFE84-06F1-4AFB-BBEC-60D09A436D14";
shapes = (
{
closed = 1;
nodes = (
(450,0,l),
(450,175,l),
(540,175,l),
(540,205,l),
(450,205,l),
(450,710,l),
(418,710,l),
(40,201,l),
(40,175,l),
(418,175,l),
(418,0,l)
);
},
{
closed = 1;
nodes = (
(418,657,l),
(418,205,l),
(82,205,l)
);
}
);
width = 600;
},
{
background = {
shapes = (
{
closed = 1;
nodes = (
(570,0,l),
(570,117,l),
(644,117,l),
(644,274,l),
(570,274,l),
(570,710,l),
(327,710,l),
(20,273,l),
(20,117,l),
(373,117,l),
(373,0,l)
);
},
{
closed = 1;
nodes = (
(373,478,l),
(373,274,l),
(227,274,l)
);
}
);
};
layerId = "3507EE3D-0D92-4546-A145-3A991F0A2B71";
shapes = (
{
closed = 1;
nodes = (
(564,0,l),
(564,123,l),
(644,123,l),
(644,280,l),
(564,280,l),
(564,710,l),
(324,710,l),
(20,272,l),
(20,123,l),
(368,123,l),
(368,0,l)
);
},
{
closed = 1;
nodes = (
(368,486,l),
(368,280,l),
(219,280,l)
);
}
);
width = 684;
},
{
background = {
shapes = (
{
closed = 1;
nodes = (
(484,0,l),
(484,146,l),
(565,146,l),
(565,230,l),
(484,230,l),
(484,710,l),
(392,710,l),
(30,230,l),
(30,146,l),
(398,146,l),
(398,0,l)
);
},
{
closed = 1;
nodes = (
(398,578,l),
(398,230,l),
(136,230,l)
);
}
);
};
layerId = "6C190511-B94A-4F5A-B519-D6E9DB0E7B93";
shapes = (
{
closed = 1;
nodes = (
(477,0,l),
(477,154,l),
(565,154,l),
(565,238,l),
(477,238,l),
(477,710,l),
(385,710,l),
(30,232,l),
(30,154,l),
(391,154,l),
(391,0,l)
);
},
{
closed = 1;
nodes = (
(391,578,l),
(391,238,l),
(134,238,l)
);
}
);
width = 615;
}
);
unicode = 52;
}
{
color = 4;
glyphname = five;
kernLeft = five;
kernRight = five;
layers = (
{
background = {
shapes = (
{
closed = 1;
nodes = (
(446,-16,o),
(543,85,o),
(543,228,cs),
(543,371,o),
(445,471,o),
(306,471,cs),
(222,471,o),
(133,418,o),
(104,348,c),
(111,334,l),
(160,680,l),
(497,680,l),
(497,710,l),
(132,710,l),
(78,327,l),
(117,327,l),
(152,396,o),
(225,439,o),
(306,439,cs),
(425,439,o),
(509,352,o),
(509,228,cs),
(509,104,o),
(429,16,o),
(316,16,cs),
(200,16,o),
(117,78,o),
(102,176,c),
(70,173,l),
(82,62,o),
(181,-16,o),
(309,-16,cs)
);
}
);
};
layerId = "EE2FFE84-06F1-4AFB-BBEC-60D09A436D14";
shapes = (
{
closed = 1;
nodes = (
(446,-16,o),
(543,80,o),
(543,228,cs),
(543,365,o),
(459,471,o),
(308,471,cs),
(218,471,o),
(131,418,o),
(104,344,c),
(112,336,l),
(152,680,l),
(498,680,l),
(498,710,l),
(124,710,l),
(80,327,l),
(119,327,l),
(151,395,o),
(226,439,o),
(308,439,cs),
(440,439,o),
(509,347,o),
(509,228,cs),
(509,95,o),
(429,16,o),
(309,16,cs),
(191,16,o),
(116,76,o),
(102,176,c),
(70,173,l),
(82,63,o),
(171,-16,o),
(309,-16,cs)
);
}
);
width = 613;
},
{
background = {
shapes = (
{
closed = 1;
nodes = (
(534,-16,o),
(645,89,o),
(645,250,cs),
(645,380,o),
(555,473,o),
(427,473,cs),
(350,473,o),
(276,438,o),
(248,386,c),
(249,380,l),
(273,553,l),
(596,553,l),
(596,710,l),
(110,710,l),
(56,284,l),
(247,284,l),
(258,318,o),
(299,342,o),
(344,342,cs),
(404,342,o),
(445,301,o),
(445,244,cs),
(445,186,o),
(404,142,o),
(347,142,cs),
(302,142,o),
(259,170,o),
(246,212,c),
(50,204,l),
(62,73,o),
(186,-16,o),
(354,-16,cs)
);
}
);
};
layerId = "3507EE3D-0D92-4546-A145-3A991F0A2B71";
shapes = (
{
closed = 1;
nodes = (
(532,-16,o),
(648,79,o),
(648,242,cs),
(648,373,o),
(560,474,o),
(410,474,cs),
(324,474,o),
(266,442,o),
(232,396,c),
(250,382,l),
(272,553,l),
(599,553,l),
(599,710,l),
(109,710,l),
(58,284,l),
(250,284,l),
(263,315,o),
(296,342,o),
(348,342,cs),
(409,342,o),
(448,300,o),
(448,242,cs),
(448,178,o),
(412,142,o),
(348,142,cs),
(293,142,o),
(262,164,o),
(250,212,c),
(53,204,l),
(65,69,o),
(158,-16,o),
(348,-16,cs)
);
}
);
width = 701;
},
{
background = {
shapes = (
{
closed = 1;
nodes = (
(461,-16,o),
(565,85,o),
(565,228,cs),
(565,370,o),
(468,473,o),
(331,473,cs),
(258,473,o),
(182,441,o),
(157,385,c),
(167,363,l),
(203,626,l),
(517,626,l),
(517,710,l),
(127,710,l),
(72,311,l),
(165,311,l),
(188,361,o),
(243,391,o),
(309,391,cs),
(411,391,o),
(475,328,o),
(475,228,cs),
(475,134,o),
(412,68,o),
(318,68,cs),
(233,68,o),
(161,112,o),
(150,189,c),
(60,183,l),
(70,66,o),
(176,-16,o),
(318,-16,cs)
);
}
);
};
layerId = "6C190511-B94A-4F5A-B519-D6E9DB0E7B93";
shapes = (
{
closed = 1;
nodes = (
(461,-16,o),
(565,85,o),
(565,228,cs),
(565,370,o),
(468,473,o),
(326,473,cs),
(250,473,o),
(181,441,o),
(150,380,c),
(166,364,l),
(198,626,l),
(517,626,l),
(517,710,l),
(119,710,l),
(72,311,l),
(164,311,l),
(187,361,o),
(244,391,o),
(310,391,cs),
(414,391,o),
(475,328,o),
(475,228,cs),
(475,128,o),
(412,68,o),
(312,68,cs),
(222,68,o),
(160,109,o),
(150,189,c),
(60,183,l),
(70,65,o),
(162,-16,o),
(312,-16,cs)
);
}
);
width = 626;
}
);
unicode = 53;
}
{
color = 4;
glyphname = six;
kernLeft = zero;
kernRight = six;
layers = (
{
background = {
shapes = (
{
closed = 1;
nodes = (
(443,-16,o),
(538,88,o),
(538,236,cs),
(538,376,o),
(443,474,o),
(307,474,cs),
(204,474,o),
(113,410,o),
(81,309,c),
(90,292,l),
(94,562,o),
(182,694,o),
(333,694,cs),
(400,694,o),
(467,638,o),
(495,559,c),
(528,563,l),
(496,663,o),
(418,726,o),
(327,726,cs),
(132,726,o),
(60,512,o),
(60,313,cs),
(60,194,o),
(80,119,o),
(125,65,cs),
(169,13,o),
(235,-16,o),
(307,-16,cs)
);
},
{
closed = 1;
nodes = (
(185,16,o),
(94,113,o),
(97,236,cs),
(98,357,o),
(184,442,o),
(307,442,cs),
(423,442,o),
(504,357,o),
(504,236,cs),
(504,107,o),
(423,16,o),
(307,16,cs)
);
}
);
};
layerId = "EE2FFE84-06F1-4AFB-BBEC-60D09A436D14";
shapes = (
{
closed = 1;
nodes = (
(443,-16,o),
(538,84,o),
(538,234,cs),
(538,376,o),
(447,472,o),
(307,472,cs),
(191,472,o),
(104,404,o),
(80,302,c),
(90,298,l),
(96,568,o),
(189,694,o),
(321,694,cs),
(422,694,o),
(475,633,o),
(495,559,c),
(528,563,l),
(498,659,o),
(435,726,o),
(321,726,cs),
(138,726,o),
(60,533,o),
(60,298,cs),
(60,78,o),
(162,-16,o),
(307,-16,cs)
);
},
{
closed = 1;
nodes = (
(177,16,o),
(98,113,o),
(98,242,cs),
(98,362,o),
(190,441,o),
(307,441,cs),
(427,441,o),
(504,357,o),
(504,234,cs),
(504,96,o),
(423,16,o),
(307,16,cs)
);
}
);
width = 588;
},
{
background = {
shapes = (
{
closed = 1;
nodes = (
(490,-16,o),
(616,69,o),
(616,230,cs),
(616,366,o),
(520,457,o),
(379,457,cs),
(308,457,o),
(247,427,o),
(207,362,c),
(209,361,l),
(210,482,o),
(254,573,o),
(346,573,cs),
(392,573,o),
(422,555,o),
(439,519,c),
(612,528,l),
(587,652,o),
(477,726,o),
(351,726,cs),
(136,726,o),
(37,544,o),
(37,321,cs),
(37,225,o),
(61,144,o),
(107,87,cs),
(160,20,o),
(236,-16,o),
(324,-16,cs)
);
},
{
closed = 1;
nodes = (
(268,124,o),
(228,170,o),
(229,230,cs),
(230,289,o),
(269,334,o),
(329,334,cs),
(386,334,o),
(424,289,o),
(424,230,cs),
(424,170,o),
(385,124,o),
(327,124,cs)
);
}
);
};
layerId = "3507EE3D-0D92-4546-A145-3A991F0A2B71";
shapes = (
{
closed = 1;
nodes = (
(504,-16,o),
(619,71,o),
(619,232,cs),
(619,368,o),
(523,458,o),
(375,458,cs),
(275,458,o),
(221,412,o),
(201,364,c),
(224,360,l),
(230,508,o),
(275,573,o),
(353,573,cs),
(403,573,o),
(425,553,o),
(441,516,c),
(615,528,l),
(590,652,o),
(499,726,o),
(354,726,cs),
(150,726,o),
(40,561,o),
(40,321,cs),
(40,111,o),
(134,-16,o),
(333,-16,cs)
);
},
{
closed = 1;
nodes = (
(271,130,o),
(232,170,o),
(232,230,cs),
(232,290,o),
(272,332,o),
(332,332,cs),
(389,332,o),
(427,289,o),
(427,230,cs),
(427,170,o),
(388,130,o),
(330,130,cs)
);
}
);
width = 649;
},
{
background = {
shapes = (
{
closed = 1;
nodes = (
(450,-16,o),
(553,81,o),
(553,236,cs),
(553,382,o),
(458,484,o),
(318,484,cs),
(226,484,o),
(154,433,o),
(120,344,c),
(136,340,l),
(141,534,o),
(208,642,o),
(323,642,cs),
(389,642,o),
(439,609,o),
(460,551,c),
(550,558,l),
(518,667,o),
(431,726,o),
(323,726,cs),
(118,726,o),
(50,526,o),
(50,313,cs),
(50,202,o),
(75,112,o),
(126,60,cs),
(178,6,o),
(241,-16,o),
(303,-16,cs)
);
},
{
closed = 1;
nodes = (
(209,68,o),
(142,138,o),
(144,236,cs),
(145,332,o),
(215,399,o),
(312,399,cs),
(401,399,o),
(463,332,o),
(463,236,cs),
(463,138,o),
(398,68,o),
(305,68,cs)
);
}
);
};
layerId = "6C190511-B94A-4F5A-B519-D6E9DB0E7B93";
shapes = (
{
closed = 1;
nodes = (
(449,-16,o),
(553,80,o),
(553,236,cs),
(553,382,o),
(458,478,o),
(318,478,cs),
(216,478,o),
(142,416,o),
(120,344,c),
(138,340,l),
(142,542,o),
(212,642,o),
(330,642,cs),
(408,642,o),
(444,606,o),
(460,550,c),
(550,558,l),
(522,658,o),
(456,726,o),
(330,726,cs),
(120,726,o),
(50,534,o),
(50,300,cs),
(50,97,o),
(142,-16,o),
(302,-16,cs)
);
},
{
closed = 1;
nodes = (
(206,68,o),
(144,138,o),
(144,236,cs),
(144,334,o),
(216,396,o),
(312,396,cs),
(401,396,o),
(463,334,o),
(463,236,cs),
(463,130,o),
(397,68,o),
(304,68,cs)
);
}
);
width = 593;
}
);
metricLeft = zero;
metricRight = "=zero-10";
unicode = 54;
}
{
color = 4;
glyphname = seven;
kernLeft = T;
kernRight = seven;
layers = (
{
background = {
shapes = (
{
closed = 1;
nodes = (
(238,0,l),
(238,240,o),
(335,500,o),
(489,672,c),
(489,710,l),
(20,710,l),
(20,680,l),
(457,680,l),
(302,505,o),
(204,243,o),
(204,0,c)
);
}
);
};
layerId = "EE2FFE84-06F1-4AFB-BBEC-60D09A436D14";
shapes = (
{
closed = 1;
nodes = (
(228,0,l),
(228,258,o),
(341,508,o),
(489,682,c),
(489,710,l),
(20,710,l),
(20,680,l),
(452,680,l),
(299,500,o),
(194,240,o),
(194,0,c)
);
}
);
width = 489;
},
{
background = {
shapes = (
{
closed = 1;
nodes = (
(375,0,l),
(362,249,o),
(435,441,o),
(558,574,c),
(558,710,l),
(20,710,l),
(20,553,l),
(389,553,l),
(256,405,o),
(177,203,o),
(177,0,c)
);
}
);
};
layerId = "3507EE3D-0D92-4546-A145-3A991F0A2B71";
shapes = (
{
closed = 1;
nodes = (
(353,0,l),
(353,260,o),
(428,419,o),
(558,563,c),
(558,710,l),
(20,710,l),
(20,553,l),
(363,553,l),
(241,407,o),
(155,220,o),
(155,0,c)
);
}
);
width = 558;
},
{
background = {
shapes = (
{
closed = 1;
nodes = (
(282,0,l),
(282,232,o),
(382,447,o),
(524,629,c),
(524,710,l),
(20,710,l),
(20,626,l),
(426,626,l),
(284,445,o),
(192,230,o),
(192,0,c)
);
}
);
};
layerId = "6C190511-B94A-4F5A-B519-D6E9DB0E7B93";
shapes = (
{
closed = 1;
nodes = (
(266,0,l),
(266,240,o),
(345,428,o),
(524,632,c),
(524,710,l),
(20,710,l),
(20,626,l),
(430,626,l),
(272,444,o),
(178,220,o),
(178,0,c)
);
}
);
width = 524;
}
);
unicode = 55;
}
{
color = 4;
glyphname = eight;
kernLeft = eight;
kernRight = eight;
layers = (
{
background = {
shapes = (
{
closed = 1;
nodes = (
(447,-16,o),
(550,71,o),
(550,195,cs),
(550,283,o),
(490,355,o),
(394,387,c),
(469,415,o),
(516,472,o),
(516,535,cs),
(516,647,o),
(427,726,o),
(300,726,cs),
(173,726,o),
(84,647,o),
(84,535,cs),
(84,473,o),
(131,416,o),
(207,387,c),
(110,356,o),
(50,284,o),
(50,195,cs),
(50,71,o),
(153,-16,o),
(300,-16,cs)
);
},
{
closed = 1;
nodes = (
(167,16,o),
(84,86,o),
(84,200,cs),
(84,297,o),
(173,368,o),
(300,368,cs),
(427,368,o),
(516,297,o),
(516,200,cs),
(516,86,o),
(433,16,o),
(300,16,cs)
);
},
{
closed = 1;
nodes = (
(193,403,o),
(118,458,o),
(118,537,cs),
(118,630,o),
(193,694,o),
(300,694,cs),
(407,694,o),
(482,630,o),
(482,537,cs),
(482,458,o),
(407,403,o),
(300,403,cs)
);
}
);
};
layerId = "EE2FFE84-06F1-4AFB-BBEC-60D09A436D14";
shapes = (
{
closed = 1;
nodes = (
(451,-16,o),
(550,67,o),
(550,193,cs),
(550,298,o),
(475,374,o),
(361,392,c),
(359,378,l),
(454,398,o),
(516,446,o),
(516,541,cs),
(516,651,o),
(437,726,o),
(300,726,cs),
(163,726,o),
(84,651,o),
(84,541,cs),
(84,446,o),
(146,399,o),
(242,378,c),
(240,392,l),
(126,374,o),
(50,298,o),
(50,193,cs),
(50,67,o),
(149,-16,o),
(300,-16,cs)
);
},
{
closed = 1;
nodes = (
(163,16,o),
(84,82,o),
(84,194,cs),
(84,297,o),
(162,370,o),
(300,370,cs),
(438,370,o),
(516,297,o),
(516,194,cs),
(516,82,o),
(437,16,o),
(300,16,cs)
);
},
{
closed = 1;
nodes = (
(193,400,o),
(118,449,o),
(118,543,cs),
(118,634,o),
(183,694,o),
(300,694,cs),
(417,694,o),
(482,634,o),
(482,543,cs),
(482,449,o),
(407,400,o),
(300,400,cs)
);
}
);
width = 600;
},
{
background = {
shapes = (
{
closed = 1;
nodes = (
(556,-16,o),
(677,65,o),
(677,195,cs),
(677,287,o),
(616,359,o),
(507,385,c),
(595,408,o),
(643,461,o),
(643,531,cs),
(643,649,o),
(535,726,o),
(355,726,cs),
(176,726,o),
(67,649,o),
(67,531,cs),
(67,460,o),
(115,407,o),
(204,385,c),
(94,360,o),
(33,288,o),
(33,195,cs),
(33,65,o),
(155,-16,o),
(355,-16,cs)
);
},
{
closed = 1;
nodes = (
(283,141,o),
(234,176,o),
(234,227,cs),
(234,280,o),
(283,316,o),
(355,316,cs),
(427,316,o),
(476,280,o),
(476,227,cs),
(476,176,o),
(427,141,o),
(355,141,cs)
);
},
{
closed = 1;
nodes = (
(300,440,o),
(266,465,o),
(266,504,cs),
(266,544,o),
(300,569,o),
(355,569,cs),
(410,569,o),
(444,544,o),
(444,504,cs),
(444,465,o),
(410,440,o),
(355,440,cs)
);
}
);
};
layerId = "3507EE3D-0D92-4546-A145-3A991F0A2B71";
shapes = (
{
closed = 1;
nodes = (
(556,-16,o),
(677,55,o),
(677,192,cs),
(677,300,o),
(602,372,o),
(483,390,c),
(481,369,l),
(581,386,o),
(642,447,o),
(642,531,cs),
(642,649,o),
(545,726,o),
(355,726,cs),
(165,726,o),
(68,649,o),
(68,531,cs),
(68,447,o),
(129,384,o),
(229,369,c),
(227,390,l),
(108,374,o),
(33,300,o),
(33,192,cs),
(33,55,o),
(155,-16,o),
(355,-16,cs)
);
},
{
closed = 1;
nodes = (
(283,142,o),
(234,176,o),
(234,227,cs),
(234,280,o),
(283,316,o),
(355,316,cs),
(427,316,o),
(476,280,o),
(476,227,cs),
(476,176,o),
(427,142,o),
(355,142,cs)
);
},
{
closed = 1;
nodes = (
(300,440,o),
(266,460,o),
(266,504,cs),
(266,544,o),
(297,570,o),
(355,570,cs),
(413,570,o),
(444,544,o),
(444,504,cs),
(444,460,o),
(410,440,o),
(355,440,cs)
);
}
);
width = 710;
},
{
background = {
shapes = (
{
closed = 1;
nodes = (
(455,-16,o),
(564,65,o),
(564,195,cs),
(564,282,o),
(512,350,o),
(427,385,c),
(491,413,o),
(530,459,o),
(530,531,cs),
(530,643,o),
(435,726,o),
(302,726,cs),
(170,726,o),
(74,643,o),
(74,531,cs),
(74,459,o),
(112,413,o),
(177,385,c),
(92,351,o),
(40,283,o),
(40,195,cs),
(40,65,o),
(149,-16,o),
(302,-16,cs)
);
},
{
closed = 1;
nodes = (
(197,68,o),
(130,120,o),
(130,202,cs),
(130,283,o),
(197,335,o),
(302,335,cs),
(407,335,o),
(473,283,o),
(473,202,cs),
(473,120,o),
(407,68,o),
(302,68,cs)
);
},
{
closed = 1;
nodes = (
(217,421,o),
(164,464,o),
(164,531,cs),
(164,599,o),
(217,642,o),
(302,642,cs),
(387,642,o),
(439,599,o),
(439,531,cs),
(439,464,o),
(387,421,o),
(302,421,cs)
);
}
);
};
layerId = "6C190511-B94A-4F5A-B519-D6E9DB0E7B93";
shapes = (
{
closed = 1;
nodes = (
(455,-16,o),
(564,57,o),
(564,195,cs),
(564,298,o),
(498,367,o),
(396,391,c),
(394,371,l),
(476,393,o),
(530,443,o),
(530,531,cs),
(530,643,o),
(440,726,o),
(302,726,cs),
(164,726,o),
(74,643,o),
(74,531,cs),
(74,443,o),
(128,393,o),
(210,371,c),
(208,391,l),
(106,367,o),
(40,298,o),
(40,195,cs),
(40,57,o),
(149,-16,o),
(302,-16,cs)
);
},
{
closed = 1;
nodes = (
(197,68,o),
(130,110,o),
(130,200,cs),
(130,283,o),
(184,337,o),
(302,337,cs),
(420,337,o),
(474,283,o),
(474,200,cs),
(474,110,o),
(407,68,o),
(302,68,cs)
);
},
{
closed = 1;
nodes = (
(214,417,o),
(164,455,o),
(164,531,cs),
(164,599,o),
(212,642,o),
(302,642,cs),
(392,642,o),
(440,599,o),
(440,531,cs),
(440,455,o),
(390,417,o),
(302,417,cs)
);
}
);
width = 604;
}
);
unicode = 56;
}
{
color = 4;
glyphname = nine;
kernLeft = nine;
kernRight = O;
layers = (
{
background = {
shapes = (
{
closed = 1;
nodes = (
(492,-16,o),
(548,202,o),
(548,397,cs),
(548,516,o),
(528,591,o),
(482,645,cs),
(439,697,o),
(374,726,o),
(301,726,cs),
(165,726,o),
(70,622,o),
(70,474,cs),
(70,334,o),
(165,236,o),
(301,236,cs),
(404,236,o),
(495,300,o),
(527,401,c),
(515,415,l),
(526,171,o),
(444,16,o),
(297,16,cs),
(218,16,o),
(153,58,o),
(129,126,c),
(96,122,l),
(123,37,o),
(201,-16,o),
(297,-16,cs)
);
},
{
closed = 1;
nodes = (
(185,268,o),
(104,353,o),
(104,474,cs),
(104,603,o),
(185,694,o),
(301,694,cs),
(422,694,o),
(514,597,o),
(511,474,cs),
(510,353,o),
(424,268,o),
(301,268,cs)
);
}
);
};
layerId = "EE2FFE84-06F1-4AFB-BBEC-60D09A436D14";
shapes = (
{
closed = 1;
nodes = (
(484,-16,o),
(548,176,o),
(548,416,cs),
(548,608,o),
(463,726,o),
(301,726,cs),
(165,726,o),
(70,622,o),
(70,474,cs),
(70,334,o),
(165,238,o),
(301,238,cs),
(409,238,o),
(495,300,o),
(529,401,c),
(516,415,l),
(516,153,o),
(438,16,o),
(294,16,cs),
(210,16,o),
(151,56,o),
(129,126,c),
(96,122,l),
(123,37,o),
(196,-16,o),
(294,-16,cs)
);
},
{
closed = 1;
nodes = (
(185,270,o),
(104,353,o),
(104,474,cs),
(104,603,o),
(185,694,o),
(301,694,cs),
(429,694,o),
(512,593,o),
(512,470,cs),
(512,352,o),
(421,270,o),
(301,270,cs)
);
}
);
width = 618;
},
{
background = {
shapes = (
{
closed = 1;
nodes = (
(556,-16,o),
(639,149,o),
(639,368,cs),
(639,472,o),
(615,556,o),
(571,614,cs),
(516,689,o),
(435,726,o),
(345,726,cs),
(182,726,o),
(53,632,o),
(53,467,cs),
(53,324,o),
(159,233,o),
(292,233,cs),
(399,233,o),
(445,283,o),
(473,326,c),
(471,328,l),
(470,217,o),
(431,137,o),
(332,137,cs),
(294,137,o),
(263,154,o),
(246,185,c),
(70,175,l),
(105,55,o),
(200,-16,o),
(339,-16,cs)
);
},
{
closed = 1;
nodes = (
(280,356,o),
(245,408,o),
(245,470,cs),
(245,532,o),
(281,586,o),
(342,586,cs),
(404,586,o),
(441,533,o),
(440,470,cs),
(439,408,o),
(403,356,o),
(340,356,cs)
);
}
);
};
layerId = "3507EE3D-0D92-4546-A145-3A991F0A2B71";
shapes = (
{
closed = 1;
nodes = (
(532,-16,o),
(639,114,o),
(639,368,cs),
(639,606,o),
(536,726,o),
(332,726,cs),
(161,726,o),
(53,625,o),
(53,466,cs),
(53,326,o),
(147,234,o),
(290,234,cs),
(379,234,o),
(434,260,o),
(470,320,c),
(452,331,l),
(452,190,o),
(419,137,o),
(332,137,cs),
(290,137,o),
(263,153,o),
(250,185,c),
(68,175,l),
(106,44,o),
(190,-16,o),
(332,-16,cs)
);
},
{
closed = 1;
nodes = (
(283,360,o),
(247,402,o),
(247,470,cs),
(247,540,o),
(284,580,o),
(341,580,cs),
(401,580,o),
(435,540,o),
(435,470,cs),
(435,402,o),
(400,360,o),
(341,360,cs)
);
}
);
width = 692;
},
{
background = {
shapes = (
{
closed = 1;
nodes = (
(496,-16,o),
(563,185,o),
(563,397,cs),
(563,508,o),
(539,598,o),
(488,651,cs),
(436,704,o),
(373,726,o),
(311,726,cs),
(164,726,o),
(60,629,o),
(60,474,cs),
(60,328,o),
(155,226,o),
(296,226,cs),
(388,226,o),
(460,277,o),
(494,366,c),
(477,370,l),
(473,177,o),
(406,68,o),
(291,68,cs),
(231,68,o),
(183,96,o),
(160,144,c),
(69,137,l),
(104,38,o),
(188,-16,o),
(291,-16,cs)
);
},
{
closed = 1;
nodes = (
(213,311,o),
(150,378,o),
(150,474,cs),
(150,572,o),
(216,642,o),
(309,642,cs),
(405,642,o),
(471,572,o),
(469,474,cs),
(468,378,o),
(399,311,o),
(302,311,cs)
);
}
);
};
layerId = "6C190511-B94A-4F5A-B519-D6E9DB0E7B93";
shapes = (
{
closed = 1;
nodes = (
(495,-16,o),
(563,159,o),
(563,397,cs),
(563,596,o),
(485,726,o),
(307,726,cs),
(164,726,o),
(60,629,o),
(60,474,cs),
(60,326,o),
(158,226,o),
(296,226,cs),
(388,226,o),
(460,277,o),
(494,366,c),
(473,370,l),
(471,158,o),
(406,68,o),
(288,68,cs),
(218,68,o),
(176,96,o),
(160,144,c),
(69,137,l),
(95,49,o),
(170,-16,o),
(288,-16,cs)
);
},
{
closed = 1;
nodes = (
(212,311,o),
(150,374,o),
(150,474,cs),
(150,572,o),
(209,642,o),
(307,642,cs),
(407,642,o),
(468,570,o),
(468,472,cs),
(468,370,o),
(399,311,o),
(302,311,cs)
);
}
);
width = 624;
}
);
unicode = 57;
}
{
color = 4;
glyphname = equal;
kernLeft = plus;
kernRight = plus;
layers = (
{
background = {
shapes = (
{
closed = 1;
nodes = (
(516,377,l),
(516,407,l),
(40,407,l),
(40,377,l)
);
},
{
closed = 1;
nodes = (
(516,171,l),
(516,201,l),
(40,201,l),
(40,171,l)
);
}
);
};
guides = (
{
pos = (323,422);
},
{
pos = (310,136);
}
);
layerId = "EE2FFE84-06F1-4AFB-BBEC-60D09A436D14";
shapes = (
{
closed = 1;
nodes = (
(480,377,l),
(480,407,l),
(40,407,l),
(40,377,l)
);
},
{
closed = 1;
nodes = (
(480,171,l),
(480,201,l),
(40,201,l),
(40,171,l)
);
}
);
width = 520;
},
{
background = {
shapes = (
{
closed = 1;
nodes = (
(516,336,l),
(516,487,l),
(40,487,l),
(40,336,l)
);
},
{
closed = 1;
nodes = (
(516,92,l),
(516,243,l),
(40,243,l),
(40,92,l)
);
}
);
};
layerId = "3507EE3D-0D92-4546-A145-3A991F0A2B71";
shapes = (
{
closed = 1;
nodes = (
(520,337,l),
(520,487,l),
(40,487,l),
(40,337,l)
);
},
{
closed = 1;
nodes = (
(520,90,l),
(520,240,l),
(40,240,l),
(40,90,l)
);
}
);
width = 560;
},
{
background = {
shapes = (
{
closed = 1;
nodes = (
(516,363,l),
(516,441,l),
(40,441,l),
(40,363,l)
);
},
{
closed = 1;
nodes = (
(516,157,l),
(516,235,l),
(40,235,l),
(40,157,l)
);
}
);
};
layerId = "6C190511-B94A-4F5A-B519-D6E9DB0E7B93";
shapes = (
{
closed = 1;
nodes = (
(500,363,l),
(500,441,l),
(40,441,l),
(40,363,l)
);
},
{
closed = 1;
nodes = (
(500,157,l),
(500,235,l),
(40,235,l),
(40,157,l)
);
}
);
width = 540;
}
);
metricLeft = plus;
metricRight = plus;
unicode = 61;
}
{
color = 4;
glyphname = greater;
kernLeft = plus;
kernRight = plus;
layers = (
{
background = {
shapes = (
{
closed = 1;
nodes = (
(505,273,l),
(505,311,l),
(60,529,l),
(60,495,l),
(484,287,l),
(484,297,l),
(60,89,l),
(60,55,l)
);
}
);
};
guides = (
{
angle = 270;
pos = (32,460);
}
);
layerId = "EE2FFE84-06F1-4AFB-BBEC-60D09A436D14";
shapes = (
{
closed = 1;
nodes = (
(494,275,l),
(494,309,l),
(50,529,l),
(50,499,l),
(484,286,l),
(484,298,l),
(50,85,l),
(50,55,l)
);
}
);
width = 534;
},
{
background = {
shapes = (
{
closed = 1;
nodes = (
(523,205,l),
(523,384,l),
(60,573,l),
(60,412,l),
(460,249,l),
(460,340,l),
(60,178,l),
(60,16,l)
);
}
);
};
layerId = "3507EE3D-0D92-4546-A145-3A991F0A2B71";
shapes = (
{
closed = 1;
nodes = (
(514,204,l),
(514,384,l),
(50,572,l),
(50,412,l),
(450,250,l),
(450,338,l),
(50,176,l),
(50,16,l)
);
}
);
width = 554;
},
{
background = {
shapes = (
{
closed = 1;
nodes = (
(515,236,l),
(515,342,l),
(60,545,l),
(60,459,l),
(453,283,l),
(453,295,l),
(60,119,l),
(60,33,l)
);
}
);
};
layerId = "6C190511-B94A-4F5A-B519-D6E9DB0E7B93";
shapes = (
{
closed = 1;
nodes = (
(504,236,l),
(504,342,l),
(50,546,l),
(50,462,l),
(448,284,l),
(448,294,l),
(50,116,l),
(50,32,l)
);
}
);
width = 544;
}
);
metricLeft = "=plus+10";
metricRight = plus;
unicode = 62;
}
{
color = 4;
glyphname = question;
kernLeft = question;
kernRight = question;
layers = (
{
anchors = (
{
name = top;
pos = (300,530);
}
);
associatedMasterId = "EE2FFE84-06F1-4AFB-BBEC-60D09A436D14";
layerId = "AA39E20D-F874-4972-B780-940C54564949";
name = "25 de ene. de 23 10:43";
shapes = (
{
closed = 1;
nodes = (
(342,-6,o),
(367,18,o),
(367,51,cs),
(367,84,o),
(342,108,o),
(309,108,cs),
(276,108,o),
(251,84,o),
(251,51,cs),
(251,18,o),
(276,-6,o),
(309,-6,cs)
);
},
{
closed = 1;
nodes = (
(350,204,l),
(350,278,o),
(369,317,o),
(419,351,cs),
(510,413,o),
(547,458,o),
(547,527,cs),
(547,649,o),
(455,726,o),
(309,726,cs),
(175,726,o),
(71,613,o),
(73,469,c),
(30,503,l),
(213,491,l),
(163,458,l),
(162,562,o),
(222,640,o),
(314,640,cs),
(400,640,o),
(456,593,o),
(455,527,cs),
(455,461,o),
(407,450,o),
(352,405,cs),
(289,352,o),
(266,297,o),
(266,204,c)
);
}
);
width = 617;
},
{
background = {
shapes = (
{
closed = 1;
nodes = (
(271,224,l),
(271,276,o),
(298,327,o),
(347,367,cs),
(413,421,o),
(466,464,o),
(466,537,cs),
(466,648,o),
(381,726,o),
(261,726,cs),
(138,726,o),
(58,639,o),
(50,499,c),
(84,496,l),
(91,619,o),
(152,694,o),
(261,694,cs),
(361,694,o),
(432,629,o),
(432,537,cs),
(432,475,o),
(392,445,o),
(323,389,cs),
(269,345,o),
(239,286,o),
(239,224,c)
);
},
{
pos = (176,0);
ref = period;
}
);
};
layerId = "EE2FFE84-06F1-4AFB-BBEC-60D09A436D14";
name = Regular;
shapes = (
{
closed = 1;
nodes = (
(271,216,l),
(271,288,o),
(292,322,o),
(338,356,cs),
(437,429,o),
(466,464,o),
(466,552,cs),
(466,642,o),
(396,726,o),
(270,726,cs),
(137,726,o),
(58,639,o),
(50,499,c),
(82,497,l),
(90,619,o),
(154,694,o),
(270,694,cs),
(374,694,o),
(434,630,o),
(434,552,cs),
(434,474,o),
(417,450,o),
(324,380,cs),
(266,336,o),
(239,294,o),
(239,216,c)
);
},
{
pos = (176,0);
ref = period;
}
);
width = 516;
},
{
background = {
shapes = (
{
closed = 1;
nodes = (
(400,243,l),
(400,297,o),
(420,327,o),
(473,358,cs),
(553,404,o),
(582,447,o),
(582,518,cs),
(582,640,o),
(471,726,o),
(311,726,cs),
(153,726,o),
(47,633,o),
(33,501,c),
(233,493,l),
(241,544,o),
(270,576,o),
(313,576,cs),
(357,576,o),
(386,553,o),
(386,518,cs),
(386,472,o),
(343,462,o),
(306,439,cs),
(230,394,o),
(206,341,o),
(206,243,c)
);
},
{
alignment = -1;
pos = (171,0);
ref = period;
}
);
};
layerId = "3507EE3D-0D92-4546-A145-3A991F0A2B71";
name = Regular;
shapes = (
{
closed = 1;
nodes = (
(396,240,l),
(396,298,o),
(413,320,o),
(459,344,cs),
(551,392,o),
(581,426,o),
(581,516,cs),
(581,634,o),
(497,726,o),
(315,726,cs),
(139,726,o),
(44,631,o),
(32,501,c),
(232,493,l),
(238,549,o),
(267,576,o),
(315,576,cs),
(361,576,o),
(385,552,o),
(385,516,cs),
(385,480,o),
(375,464,o),
(305,434,cs),
(232,403,o),
(206,354,o),
(206,240,c)
);
},
{
alignment = -1;
pos = (170,0);
ref = period;
}
);
width = 613;
},
{
background = {
shapes = (
{
closed = 1;
nodes = (
(323,205,l),
(323,273,o),
(341,308,o),
(394,345,cs),
(481,404,o),
(518,458,o),
(518,527,cs),
(518,644,o),
(421,726,o),
(281,726,cs),
(157,726,o),
(59,629,o),
(47,500,c),
(137,494,l),
(148,581,o),
(204,642,o),
(286,642,cs),
(373,642,o),
(429,594,o),
(428,527,cs),
(428,461,o),
(381,442,o),
(330,399,cs),
(259,341,o),
(237,292,o),
(237,205,c)
);
},
{
alignment = -1;
pos = (177,0);
ref = period;
}
);
};
layerId = "6C190511-B94A-4F5A-B519-D6E9DB0E7B93";
name = Regular;
shapes = (
{
closed = 1;
nodes = (
(320,201,l),
(320,271,o),
(335,303,o),
(389,338,cs),
(475,394,o),
(515,438,o),
(515,522,cs),
(515,641,o),
(425,726,o),
(295,726,cs),
(149,726,o),
(56,632,o),
(44,500,c),
(134,494,l),
(144,590,o),
(196,642,o),
(295,642,cs),
(376,642,o),
(425,591,o),
(425,522,cs),
(425,462,o),
(409,438,o),
(331,390,cs),
(262,347,o),
(234,297,o),
(234,201,c)
);
},
{
alignment = -1;
pos = (174,0);
ref = period;
}
);
width = 559;
}
);
metricLeft = o;
metricRight = o;
unicode = 63;
}
{
color = 4;
glyphname = at;
layers = (
{
background = {
shapes = (
{
closed = 1;
nodes = (
(620,9,l),
(542,-20,o),
(469,-34,o),
(403,-34,cs),
(212,-34,o),
(84,83,o),
(84,283,cs),
(84,502,o),
(266,678,o),
(492,678,cs),
(695,678,o),
(842,523,o),
(842,325,cs),
(842,178,o),
(779,129,o),
(724,129,cs),
(662,129,o),
(639,171,o),
(639,236,cs),
(639,245,o),
(639,253,o),
(640,260,cs),
(658,490,l),
(628,490,l),
(617,364,l),
(623,368,l),
(601,445,o),
(532,499,o),
(453,499,cs),
(340,499,o),
(238,392,o),
(238,262,cs),
(238,159,o),
(310,81,o),
(412,81,cs),
(515,81,o),
(595,141,o),
(619,237,c),
(611,218,l),
(611,142,o),
(664,97,o),
(723,97,cs),
(795,97,o),
(876,165,o),
(876,327,cs),
(876,539,o),
(718,710,o),
(494,710,cs),
(246,710,o),
(50,520,o),
(50,280,cs),
(50,61,o),
(198,-66,o),
(404,-66,cs),
(474,-66,o),
(550,-51,o),
(630,-21,c)
);
},
{
closed = 1;
nodes = (
(330,111,o),
(271,170,o),
(271,267,cs),
(271,376,o),
(356,467,o),
(458,467,cs),
(547,467,o),
(610,393,o),
(610,301,cs),
(610,193,o),
(527,111,o),
(429,111,cs)
);
}
);
};
layerId = "EE2FFE84-06F1-4AFB-BBEC-60D09A436D14";
shapes = (
{
closed = 1;
nodes = (
(622,-23,l),
(560,-57,o),
(482,-76,o),
(406,-76,cs),
(214,-76,o),
(82,37,o),
(82,252,cs),
(82,512,o),
(251,680,o),
(482,680,cs),
(704,680,o),
(844,547,o),
(844,337,cs),
(844,197,o),
(800,116,o),
(724,116,cs),
(666,116,o),
(638,155,o),
(638,236,cs),
(638,266,o),
(640,313,o),
(643,339,cs),
(658,490,l),
(632,490,l),
(619,358,l),
(628,360,l),
(606,444,o),
(540,499,o),
(453,499,cs),
(330,499,o),
(240,402,o),
(240,264,cs),
(240,159,o),
(312,82,o),
(416,82,cs),
(517,82,o),
(595,141,o),
(622,236,c),
(612,234,l),
(612,145,o),
(656,86,o),
(723,86,cs),
(816,86,o),
(876,185,o),
(876,337,cs),
(876,563,o),
(721,710,o),
(484,710,cs),
(232,710,o),
(50,528,o),
(50,250,cs),
(50,20,o),
(200,-106,o),
(404,-106,cs),
(481,-106,o),
(559,-88,o),
(632,-51,c)
);
},
{
closed = 1;
nodes = (
(328,112,o),
(272,170,o),
(272,267,cs),
(272,386,o),
(346,469,o),
(456,469,cs),
(547,469,o),
(610,393,o),
(610,303,cs),
(610,193,o),
(525,112,o),
(425,112,cs)
);
}
);
width = 926;
},
{
background = {
shapes = (
{
closed = 1;
nodes = (
(679,62,l),
(608,36,o),
(541,23,o),
(481,23,cs),
(317,23,o),
(208,118,o),
(208,281,cs),
(208,452,o),
(348,579,o),
(537,579,cs),
(704,579,o),
(813,478,o),
(813,329,cs),
(813,231,o),
(771,180,o),
(738,180,cs),
(704,180,o),
(696,221,o),
(696,255,cs),
(696,265,o),
(697,277,o),
(698,289,cs),
(715,490,l),
(609,490,l),
(602,414,l),
(630,409,l),
(619,467,o),
(567,507,o),
(497,507,cs),
(361,507,o),
(274,398,o),
(274,264,cs),
(274,162,o),
(341,85,o),
(459,85,cs),
(535,85,o),
(594,131,o),
(609,205,c),
(598,200,l),
(603,127,o),
(662,89,o),
(731,89,cs),
(856,89,o),
(956,195,o),
(956,358,cs),
(956,560,o),
(785,710,o),
(545,710,cs),
(273,710,o),
(35,527,o),
(35,269,cs),
(35,38,o),
(220,-112,o),
(464,-112,cs),
(541,-112,o),
(623,-97,o),
(708,-66,c)
);
},
{
closed = 1;
nodes = (
(450,192,o),
(429,229,o),
(429,277,cs),
(429,339,o),
(460,390,o),
(510,390,cs),
(553,390,o),
(575,353,o),
(575,303,cs),
(575,243,o),
(545,192,o),
(494,192,cs)
);
}
);
};
layerId = "3507EE3D-0D92-4546-A145-3A991F0A2B71";
shapes = (
{
closed = 1;
nodes = (
(681,16,l),
(602,-17,o),
(541,-28,o),
(456,-28,cs),
(258,-28,o),
(145,76,o),
(145,252,cs),
(145,468,o),
(297,610,o),
(520,610,cs),
(740,610,o),
(845,522,o),
(845,340,cs),
(845,236,o),
(808,180,o),
(748,180,cs),
(721,180,o),
(702,196,o),
(702,220,cs),
(702,241,o),
(705,273,o),
(708,305,cs),
(728,494,l),
(588,494,l),
(580,410,l),
(608,405,l),
(597,464,o),
(538,503,o),
(459,503,cs),
(340,503,o),
(257,403,o),
(257,260,cs),
(257,141,o),
(325,70,o),
(438,70,cs),
(513,70,o),
(597,125,o),
(612,200,c),
(580,196,l),
(585,125,o),
(636,76,o),
(726,76,cs),
(862,76,o),
(955,180,o),
(955,358,cs),
(955,570,o),
(782,710,o),
(526,710,cs),
(231,710,o),
(35,524,o),
(35,243,cs),
(35,7,o),
(187,-128,o),
(452,-128,cs),
(538,-128,o),
(620,-112,o),
(708,-76,c)
);
},
{
closed = 1;
nodes = (
(441,190,o),
(417,221,o),
(417,273,cs),
(417,338,o),
(450,383,o),
(498,383,cs),
(539,383,o),
(563,352,o),
(563,299,cs),
(563,235,o),
(530,190,o),
(482,190,cs)
);
}
);
width = 990;
},
{
background = {
shapes = (
{
closed = 1;
nodes = (
(619,10,l),
(569,-12,o),
(499,-30,o),
(416,-30,cs),
(234,-30,o),
(121,68,o),
(121,252,cs),
(121,480,o),
(267,640,o),
(490,640,cs),
(689,640,o),
(793,518,o),
(793,340,cs),
(793,201,o),
(736,148,o),
(690,148,cs),
(652,148,o),
(638,173,o),
(638,201,cs),
(638,225,o),
(639,251,o),
(640,260,cs),
(658,490,l),
(585,490,l),
(578,407,l),
(588,417,l),
(574,467,o),
(520,500,o),
(450,500,cs),
(322,500,o),
(234,394,o),
(234,260,cs),
(234,162,o),
(294,80,o),
(410,80,cs),
(485,80,o),
(560,129,o),
(585,188,c),
(570,180,l),
(574,118,o),
(619,82,o),
(682,82,cs),
(765,82,o),
(865,156,o),
(865,343,cs),
(865,551,o),
(722,710,o),
(493,710,cs),
(241,710,o),
(49,530,o),
(49,250,cs),
(49,16,o),
(202,-100,o),
(414,-100,cs),
(498,-100,o),
(570,-86,o),
(636,-58,c)
);
},
{
closed = 1;
nodes = (
(346,142,o),
(316,202,o),
(316,270,cs),
(316,359,o),
(368,438,o),
(458,438,cs),
(541,438,o),
(574,381,o),
(574,311,cs),
(574,229,o),
(529,142,o),
(430,142,cs)
);
}
);
};
layerId = "6C190511-B94A-4F5A-B519-D6E9DB0E7B93";
shapes = (
{
closed = 1;
nodes = (
(619,0,l),
(560,-26,o),
(488,-40,o),
(416,-40,cs),
(227,-40,o),
(121,65,o),
(121,252,cs),
(121,483,o),
(270,640,o),
(490,640,cs),
(685,640,o),
(793,536,o),
(793,350,cs),
(793,224,o),
(752,148,o),
(684,148,cs),
(652,148,o),
(636,164,o),
(636,194,cs),
(636,218,o),
(640,261,o),
(642,290,cs),
(658,500,l),
(585,500,l),
(578,407,l),
(588,417,l),
(574,467,o),
(520,502,o),
(450,502,cs),
(322,502,o),
(238,394,o),
(238,260,cs),
(238,152,o),
(302,78,o),
(420,78,cs),
(490,78,o),
(560,127,o),
(585,186,c),
(570,182,l),
(574,121,o),
(616,82,o),
(678,82,cs),
(788,82,o),
(865,193,o),
(865,353,cs),
(865,570,o),
(718,710,o),
(492,710,cs),
(231,710,o),
(49,521,o),
(49,250,cs),
(49,23,o),
(184,-110,o),
(414,-110,cs),
(497,-110,o),
(569,-96,o),
(636,-68,c)
);
},
{
closed = 1;
nodes = (
(348,144,o),
(320,196,o),
(320,266,cs),
(320,357,o),
(368,436,o),
(458,436,cs),
(541,436,o),
(574,381,o),
(574,311,cs),
(574,229,o),
(529,144,o),
(430,144,cs)
);
}
);
width = 914;
}
);
metricLeft = O;
metricRight = O;
unicode = 64;
}
{
color = 4;
glyphname = A;
kernLeft = A;
kernRight = A;
layers = (
{
anchors = (
{
name = bottom;
pos = (306,0);
},
{
name = ogonek;
pos = (588,0);
},
{
name = top;
pos = (306,710);
}
);
background = {
anchors = (
{
name = ogonek;
pos = (588,0);
},
{
name = top;
pos = (306,710);
}
);
shapes = (
{
closed = 1;
nodes = (
(57,0,l),
(143,235,l),
(469,235,l),
(555,0,l),
(588,0,l),
(325,710,l),
(287,710,l),
(24,0,l)
);
},
{
closed = 1;
nodes = (
(306,678,l),
(458,265,l),
(154,265,l)
);
}
);
};
layerId = "EE2FFE84-06F1-4AFB-BBEC-60D09A436D14";
shapes = (
{
closed = 1;
nodes = (
(57,0,l),
(143,235,l),
(469,235,l),
(555,0,l),
(588,0,l),
(325,710,l),
(287,710,l),
(24,0,l)
);
},
{
closed = 1;
nodes = (
(306,678,l),
(458,265,l),
(154,265,l)
);
}
);
width = 612;
},
{
anchors = (
{
name = bottom;
pos = (352,0);
},
{
name = ogonek;
pos = (634,0);
},
{
name = top;
pos = (352,710);
}
);
associatedMasterId = "EE2FFE84-06F1-4AFB-BBEC-60D09A436D14";
background = {
shapes = (
{
closed = 1;
nodes = (
(133,0,l),
(216,239,l),
(360,655,l),
(345,655,l),
(485,247,l),
(571,0,l),
(667,0,l),
(411,710,l),
(293,710,l),
(37,0,l)
);
},
{
closed = 1;
nodes = (
(180,201,l),
(535,201,l),
(535,287,l),
(180,287,l)
);
}
);
};
layerId = "B79994D4-476F-4D20-B932-F759658767FF";
name = "22 Feb 23 16:32";
shapes = (
{
closed = 1;
nodes = (
(103,0,l),
(352,678,l),
(601,0,l),
(634,0,l),
(371,710,l),
(333,710,l),
(70,0,l)
);
},
{
closed = 1;
nodes = (
(180,235,l),
(528,235,l),
(528,265,l),
(180,265,l)
);
}
);
width = 704;
},
{
anchors = (
{
name = bottom;
pos = (386,0);
},
{
name = ogonek;
pos = (753,0);
},
{
name = top;
pos = (386,710);
}
);
background = {
anchors = (
{
name = ogonek;
pos = (762,0);
},
{
name = top;
pos = (395,710);
}
);
shapes = (
{
closed = 1;
nodes = (
(226,0,l),
(266,117,l),
(522,117,l),
(562,0,l),
(762,0,l),
(506,710,l),
(283,710,l),
(27,0,l)
);
},
{
closed = 1;
nodes = (
(395,494,l),
(471,269,l),
(318,269,l)
);
}
);
};
layerId = "3507EE3D-0D92-4546-A145-3A991F0A2B71";
shapes = (
{
closed = 1;
nodes = (
(217,0,l),
(257,117,l),
(513,117,l),
(553,0,l),
(753,0,l),
(497,710,l),
(274,710,l),
(18,0,l)
);
},
{
closed = 1;
nodes = (
(386,494,l),
(462,269,l),
(309,269,l)
);
}
);
width = 771;
},
{
anchors = (
{
name = bottom;
pos = (334,0);
},
{
name = ogonek;
pos = (648,0);
},
{
name = top;
pos = (334,710);
}
);
background = {
anchors = (
{
name = ogonek;
pos = (649,0);
},
{
name = top;
pos = (335,710);
}
);
shapes = (
{
closed = 1;
nodes = (
(115,0,l),
(186,202,l),
(484,202,l),
(555,0,l),
(649,0,l),
(393,710,l),
(277,710,l),
(21,0,l)
);
},
{
closed = 1;
nodes = (
(335,635,l),
(455,286,l),
(215,286,l)
);
}
);
};
layerId = "6C190511-B94A-4F5A-B519-D6E9DB0E7B93";
shapes = (
{
closed = 1;
nodes = (
(114,0,l),
(185,202,l),
(483,202,l),
(554,0,l),
(648,0,l),
(392,710,l),
(276,710,l),
(20,0,l)
);
},
{
closed = 1;
nodes = (
(334,635,l),
(454,286,l),
(214,286,l)
);
}
);
width = 668;
}
);
metricLeft = V;
metricRight = V;
unicode = 65;
}
{
color = 4;
glyphname = B;
kernLeft = b;
kernRight = B;
layers = (
{
anchors = (
{
name = bottom;
pos = (319,0);
},
{
name = top;
pos = (319,710);
}
);
background = {
shapes = (
{
closed = 1;
nodes = (
(353,0,ls),
(507,0,o),
(583,63,o),
(583,189,cs),
(583,294,o),
(504,360,o),
(378,360,c),
(378,354,l),
(481,354,o),
(553,423,o),
(553,520,cs),
(553,647,o),
(473,710,o),
(313,710,cs),
(96,710,l),
(96,0,l)
);
},
{
closed = 1;
nodes = (
(128,339,l),
(353,339,ls),
(473,339,o),
(549,281,o),
(549,189,cs),
(549,83,o),
(484,30,o),
(353,30,cs),
(128,30,l)
);
},
{
closed = 1;
nodes = (
(128,680,l),
(313,680,ls),
(451,680,o),
(519,627,o),
(519,520,cs),
(519,423,o),
(445,369,o),
(313,369,cs),
(128,369,l)
);
}
);
};
layerId = "EE2FFE84-06F1-4AFB-BBEC-60D09A436D14";
shapes = (
{
closed = 1;
nodes = (
(353,0,ls),
(507,0,o),
(583,63,o),
(583,189,cs),
(583,294,o),
(504,360,o),
(378,360,c),
(378,354,l),
(481,354,o),
(553,423,o),
(553,520,cs),
(553,647,o),
(473,710,o),
(313,710,cs),
(96,710,l),
(96,0,l)
);
},
{
closed = 1;
nodes = (
(128,339,l),
(353,339,ls),
(473,339,o),
(549,281,o),
(549,189,cs),
(549,81,o),
(484,30,o),
(353,30,cs),
(128,30,l)
);
},
{
closed = 1;
nodes = (
(128,680,l),
(313,680,ls),
(451,680,o),
(519,627,o),
(519,520,cs),
(519,423,o),
(445,369,o),
(313,369,cs),
(128,369,l)
);
}
);
width = 638;
},
{
anchors = (
{
name = bottom;
pos = (359,0);
},
{
name = top;
pos = (359,710);
}
);
background = {
shapes = (
{
closed = 1;
nodes = (
(370,0,ls),
(573,0,o),
(675,68,o),
(675,201,cs),
(675,300,o),
(617,354,o),
(498,366,c),
(498,368,l),
(594,380,o),
(645,430,o),
(645,513,cs),
(645,651,o),
(541,710,o),
(330,710,cs),
(62,710,l),
(62,0,l)
);
},
{
closed = 1;
nodes = (
(258,297,l),
(377,297,ls),
(435,297,o),
(479,274,o),
(479,223,cs),
(479,172,o),
(434,150,o),
(377,150,cs),
(258,150,l)
);
},
{
closed = 1;
nodes = (
(258,560,l),
(352,560,ls),
(409,560,o),
(449,540,o),
(449,492,cs),
(449,446,o),
(408,425,o),
(352,425,cs),
(258,425,l)
);
}
);
};
layerId = "3507EE3D-0D92-4546-A145-3A991F0A2B71";
shapes = (
{
closed = 1;
nodes = (
(390,0,ls),
(573,0,o),
(675,63,o),
(675,196,cs),
(675,295,o),
(617,354,o),
(498,366,c),
(498,368,l),
(594,380,o),
(645,430,o),
(645,516,cs),
(645,650,o),
(541,710,o),
(360,710,cs),
(62,710,l),
(62,0,l)
);
},
{
closed = 1;
nodes = (
(258,297,l),
(377,297,ls),
(435,297,o),
(479,274,o),
(479,223,cs),
(479,172,o),
(434,150,o),
(377,150,cs),
(258,150,l)
);
},
{
closed = 1;
nodes = (
(258,560,l),
(352,560,ls),
(409,560,o),
(449,540,o),
(449,492,cs),
(449,446,o),
(408,425,o),
(352,425,cs),
(258,425,l)
);
}
);
width = 718;
},
{
anchors = (
{
name = bottom;
pos = (340,0);
},
{
name = top;
pos = (340,710);
}
);
background = {
shapes = (
{
closed = 1;
nodes = (
(376,0,ls),
(531,0,o),
(618,72,o),
(618,201,cs),
(618,305,o),
(543,370,o),
(422,370,c),
(423,364,l),
(525,364,o),
(588,421,o),
(588,513,cs),
(588,645,o),
(504,710,o),
(336,710,cs),
(92,710,l),
(92,0,l)
);
},
{
closed = 1;
nodes = (
(178,319,l),
(376,319,ls),
(473,319,o),
(528,276,o),
(528,201,cs),
(528,126,o),
(473,84,o),
(376,84,cs),
(178,84,l)
);
},
{
closed = 1;
nodes = (
(178,626,l),
(336,626,ls),
(444,626,o),
(498,588,o),
(498,513,cs),
(498,442,o),
(440,403,o),
(336,403,cs),
(178,403,l)
);
}
);
};
layerId = "6C190511-B94A-4F5A-B519-D6E9DB0E7B93";
shapes = (
{
closed = 1;
nodes = (
(376,0,ls),
(531,0,o),
(618,66,o),
(618,195,cs),
(618,299,o),
(543,370,o),
(422,370,c),
(423,364,l),
(525,364,o),
(588,427,o),
(588,519,cs),
(588,651,o),
(504,710,o),
(336,710,cs),
(92,710,l),
(92,0,l)
);
},
{
closed = 1;
nodes = (
(178,319,l),
(376,319,ls),
(473,319,o),
(528,275,o),
(528,200,cs),
(528,125,o),
(473,84,o),
(376,84,cs),
(178,84,l)
);
},
{
closed = 1;
nodes = (
(178,626,l),
(336,626,ls),
(444,626,o),
(498,590,o),
(498,515,cs),
(498,444,o),
(440,403,o),
(336,403,cs),
(178,403,l)
);
}
);
width = 680;
}
);
metricLeft = H;
metricRight = R;
unicode = 66;
}
{
color = 4;
glyphname = C;
kernLeft = O;
kernRight = C;
layers = (
{
anchors = (
{
name = bottom;
pos = (348,0);
},
{
name = top;
pos = (348,710);
}
);
background = {
anchors = (
{
name = bottom;
pos = (354,0);
},
{
name = top;
pos = (349,710);
}
);
shapes = (
{
closed = 1;
nodes = (
(498,-16,o),
(607,85,o),
(631,246,c),
(597,249,l),
(575,106,o),
(480,16,o),
(349,16,cs),
(186,16,o),
(84,146,o),
(84,354,cs),
(84,563,o),
(186,694,o),
(349,694,cs),
(475,694,o),
(568,610,o),
(591,477,c),
(625,480,l),
(596,631,o),
(490,726,o),
(349,726,cs),
(165,726,o),
(50,583,o),
(50,354,cs),
(50,127,o),
(165,-16,o),
(349,-16,cs)
);
}
);
};
layerId = "EE2FFE84-06F1-4AFB-BBEC-60D09A436D14";
shapes = (
{
closed = 1;
nodes = (
(506,-16,o),
(607,84,o),
(631,246,c),
(597,249,l),
(579,103,o),
(490,16,o),
(348,16,cs),
(186,16,o),
(84,144,o),
(84,354,cs),
(84,564,o),
(186,694,o),
(348,694,cs),
(484,694,o),
(569,609,o),
(591,477,c),
(625,480,l),
(597,628,o),
(502,726,o),
(348,726,cs),
(166,726,o),
(50,584,o),
(50,354,cs),
(50,124,o),
(166,-16,o),
(348,-16,cs)
);
}
);
width = 676;
},
{
anchors = (
{
name = bottom;
pos = (382,0);
},
{
name = top;
pos = (382,710);
}
);
background = {
anchors = (
{
name = bottom;
pos = (392,0);
},
{
name = top;
pos = (392,710);
}
);
shapes = (
{
closed = 1;
nodes = (
(565,-16,o),
(684,84,o),
(715,270,c),
(511,277,l),
(499,190,o),
(455,141,o),
(387,141,cs),
(287,141,o),
(236,226,o),
(236,354,cs),
(236,483,o),
(286,569,o),
(387,569,cs),
(452,569,o),
(497,522,o),
(511,441,c),
(714,448,l),
(683,629,o),
(563,726,o),
(392,726,cs),
(178,726,o),
(35,568,o),
(35,354,cs),
(35,140,o),
(178,-16,o),
(392,-16,cs)
);
}
);
};
layerId = "3507EE3D-0D92-4546-A145-3A991F0A2B71";
shapes = (
{
closed = 1;
nodes = (
(572,-16,o),
(684,84,o),
(715,270,c),
(511,277,l),
(499,190,o),
(457,141,o),
(380,141,cs),
(289,141,o),
(236,224,o),
(236,354,cs),
(236,480,o),
(284,569,o),
(382,569,cs),
(450,569,o),
(497,522,o),
(511,441,c),
(714,448,l),
(683,629,o),
(577,726,o),
(382,726,cs),
(168,726,o),
(35,578,o),
(35,354,cs),
(35,120,o),
(180,-16,o),
(378,-16,cs)
);
}
);
width = 745;
},
{
anchors = (
{
name = bottom;
pos = (370,0);
},
{
name = top;
pos = (366,710);
}
);
background = {
anchors = (
{
name = bottom;
pos = (370,0);
},
{
name = top;
pos = (366,710);
}
);
shapes = (
{
closed = 1;
nodes = (
(527,-16,o),
(642,84,o),
(667,242,c),
(576,248,l),
(558,137,o),
(478,68,o),
(367,68,cs),
(227,68,o),
(139,178,o),
(139,354,cs),
(139,531,o),
(227,642,o),
(367,642,cs),
(472,642,o),
(550,579,o),
(570,478,c),
(661,484,l),
(631,633,o),
(518,726,o),
(367,726,cs),
(172,726,o),
(49,583,o),
(49,354,cs),
(49,127,o),
(172,-16,o),
(367,-16,cs)
);
}
);
};
layerId = "6C190511-B94A-4F5A-B519-D6E9DB0E7B93";
shapes = (
{
closed = 1;
nodes = (
(538,-16,o),
(641,88,o),
(667,242,c),
(576,248,l),
(558,137,o),
(492,68,o),
(368,68,cs),
(232,68,o),
(139,174,o),
(139,354,cs),
(139,534,o),
(232,642,o),
(368,642,cs),
(486,642,o),
(550,579,o),
(570,478,c),
(661,484,l),
(631,633,o),
(540,726,o),
(368,726,cs),
(178,726,o),
(49,584,o),
(49,354,cs),
(49,124,o),
(178,-16,o),
(368,-16,cs)
);
}
);
width = 711;
}
);
metricLeft = O;
metricRight = "=O-5";
unicode = 67;
}
{
color = 4;
glyphname = D;
kernLeft = b;
kernRight = O;
layers = (
{
anchors = (
{
name = bottom;
pos = (318,0);
},
{
name = center;
pos = (200,355);
},
{
name = top;
pos = (319,710);
}
);
background = {
anchors = (
{
name = bottom;
pos = (349,0);
},
{
name = top;
pos = (349,710);
}
);
shapes = (
{
closed = 1;
nodes = (
(304,0,ls),
(511,0,o),
(626,127,o),
(626,354,cs),
(626,582,o),
(508,710,o),
(298,710,cs),
(96,710,l),
(96,0,l)
);
},
{
closed = 1;
nodes = (
(128,680,l),
(298,680,ls),
(487,680,o),
(592,563,o),
(592,354,cs),
(592,146,o),
(487,30,o),
(298,30,cs),
(128,30,l)
);
}
);
};
layerId = "EE2FFE84-06F1-4AFB-BBEC-60D09A436D14";
shapes = (
{
closed = 1;
nodes = (
(304,0,ls),
(511,0,o),
(626,127,o),
(626,354,cs),
(626,582,o),
(508,710,o),
(298,710,cs),
(96,710,l),
(96,0,l)
);
},
{
closed = 1;
nodes = (
(128,680,l),
(298,680,ls),
(487,680,o),
(592,563,o),
(592,354,cs),
(592,146,o),
(487,30,o),
(298,30,cs),
(128,30,l)
);
}
);
width = 676;
},
{
anchors = (
{
name = bottom;
pos = (328,0);
},
{
name = center;
pos = (216,355);
},
{
name = top;
pos = (327,710);
}
);
background = {
anchors = (
{
name = bottom;
pos = (333,0);
},
{
name = top;
pos = (327,710);
}
);
shapes = (
{
closed = 1;
nodes = (
(329,0,ls),
(563,0,o),
(694,127,o),
(694,354,cs),
(694,582,o),
(561,710,o),
(323,710,cs),
(62,710,l),
(62,0,l)
);
},
{
closed = 1;
nodes = (
(258,553,l),
(323,553,ls),
(442,553,o),
(496,491,o),
(496,355,cs),
(496,219,o),
(442,157,o),
(323,157,cs),
(258,157,l)
);
}
);
};
layerId = "3507EE3D-0D92-4546-A145-3A991F0A2B71";
shapes = (
{
closed = 1;
nodes = (
(329,0,ls),
(563,0,o),
(694,127,o),
(694,354,cs),
(694,582,o),
(561,710,o),
(323,710,cs),
(62,710,l),
(62,0,l)
);
},
{
closed = 1;
nodes = (
(258,553,l),
(323,553,ls),
(441,553,o),
(493,491,o),
(493,355,cs),
(493,219,o),
(441,157,o),
(323,157,cs),
(258,157,l)
);
}
);
width = 734;
},
{
anchors = (
{
name = bottom;
pos = (323,0);
},
{
name = center;
pos = (200,355);
},
{
name = top;
pos = (323,710);
}
);
background = {
anchors = (
{
name = bottom;
pos = (329,0);
},
{
name = top;
pos = (323,710);
}
);
shapes = (
{
closed = 1;
nodes = (
(318,0,ls),
(533,0,o),
(653,127,o),
(653,354,cs),
(653,582,o),
(530,710,o),
(312,710,cs),
(92,710,l),
(92,0,l)
);
},
{
closed = 1;
nodes = (
(178,626,l),
(312,626,ls),
(479,626,o),
(563,536,o),
(563,354,cs),
(563,174,o),
(479,84,o),
(312,84,cs),
(178,84,l)
);
}
);
};
layerId = "6C190511-B94A-4F5A-B519-D6E9DB0E7B93";
shapes = (
{
closed = 1;
nodes = (
(318,0,ls),
(533,0,o),
(653,127,o),
(653,354,cs),
(653,582,o),
(530,710,o),
(312,710,cs),
(92,710,l),
(92,0,l)
);
},
{
closed = 1;
nodes = (
(178,626,l),
(312,626,ls),
(479,626,o),
(563,536,o),
(563,354,cs),
(563,174,o),
(479,84,o),
(312,84,cs),
(178,84,l)
);
}
);
width = 698;
}
);
metricLeft = H;
metricRight = O;
unicode = 68;
}
{
color = 4;
glyphname = E;
kernLeft = b;
kernRight = E;
layers = (
{
anchors = (
{
name = bottom;
pos = (306,0);
},
{
name = ogonek;
pos = (523,0);
},
{
name = top;
pos = (306,710);
}
);
background = {
anchors = (
{
name = bottom;
pos = (306,0);
},
{
name = ogonek;
pos = (523,0);
},
{
name = top;
pos = (306,710);
}
);
shapes = (
{
closed = 1;
nodes = (
(523,0,l),
(523,30,l),
(128,30,l),
(128,339,l),
(503,339,l),
(503,369,l),
(128,369,l),
(128,680,l),
(515,680,l),
(515,710,l),
(96,710,l),
(96,0,l)
);
}
);
};
layerId = "EE2FFE84-06F1-4AFB-BBEC-60D09A436D14";
shapes = (
{
closed = 1;
nodes = (
(523,0,l),
(523,30,l),
(128,30,l),
(128,339,l),
(503,339,l),
(503,369,l),
(128,369,l),
(128,680,l),
(515,680,l),
(515,710,l),
(96,710,l),
(96,0,l)
);
}
);
width = 573;
},
{
anchors = (
{
name = bottom;
pos = (325,0);
},
{
name = ogonek;
pos = (596,0);
},
{
name = top;
pos = (325,710);
}
);
background = {
anchors = (
{
name = bottom;
pos = (325,0);
},
{
name = ogonek;
pos = (596,0);
},
{
name = top;
pos = (325,711);
}
);
shapes = (
{
closed = 1;
nodes = (
(596,0,l),
(596,157,l),
(258,157,l),
(258,278,l),
(576,278,l),
(576,434,l),
(258,434,l),
(258,553,l),
(588,553,l),
(588,710,l),
(62,710,l),
(62,0,l)
);
}
);
};
layerId = "3507EE3D-0D92-4546-A145-3A991F0A2B71";
shapes = (
{
closed = 1;
nodes = (
(596,0,l),
(596,157,l),
(258,157,l),
(258,278,l),
(576,278,l),
(576,434,l),
(258,434,l),
(258,553,l),
(588,553,l),
(588,710,l),
(62,710,l),
(62,0,l)
);
}
);
width = 634;
},
{
anchors = (
{
name = bottom;
pos = (319,0);
},
{
name = ogonek;
pos = (546,0);
},
{
name = top;
pos = (317,710);
}
);
background = {
anchors = (
{
name = bottom;
pos = (319,0);
},
{
name = ogonek;
pos = (546,0);
},
{
name = top;
pos = (317,711);
}
);
shapes = (
{
closed = 1;
nodes = (
(546,0,l),
(546,84,l),
(178,84,l),
(178,315,l),
(526,315,l),
(526,397,l),
(178,397,l),
(178,626,l),
(538,626,l),
(538,710,l),
(92,710,l),
(92,0,l)
);
}
);
};
layerId = "6C190511-B94A-4F5A-B519-D6E9DB0E7B93";
shapes = (
{
closed = 1;
nodes = (
(546,0,l),
(546,84,l),
(178,84,l),
(178,315,l),
(526,315,l),
(526,397,l),
(178,397,l),
(178,626,l),
(538,626,l),
(538,710,l),
(92,710,l),
(92,0,l)
);
}
);
width = 603;
}
);
metricLeft = H;
unicode = 69;
}
{
color = 4;
glyphname = F;
kernLeft = b;
kernRight = F;
layers = (
{
background = {
shapes = (
{
closed = 1;
nodes = (
(128,0,l),
(128,350,l),
(121,339,l),
(497,339,l),
(497,369,l),
(121,369,l),
(128,344,l),
(128,689,l),
(121,680,l),
(515,680,l),
(515,710,l),
(96,710,l),
(96,0,l)
);
}
);
};
layerId = "EE2FFE84-06F1-4AFB-BBEC-60D09A436D14";
shapes = (
{
closed = 1;
nodes = (
(128,0,l),
(128,350,l),
(121,339,l),
(497,339,l),
(497,369,l),
(121,369,l),
(128,344,l),
(128,689,l),
(121,680,l),
(515,680,l),
(515,710,l),
(96,710,l),
(96,0,l)
);
}
);
width = 560;
},
{
background = {
shapes = (
{
closed = 1;
nodes = (
(258,0,l),
(258,350,l),
(146,269,l),
(563,269,l),
(563,425,l),
(146,425,l),
(258,344,l),
(258,669,l),
(146,553,l),
(581,553,l),
(581,710,l),
(62,710,l),
(62,0,l)
);
}
);
};
layerId = "3507EE3D-0D92-4546-A145-3A991F0A2B71";
shapes = (
{
closed = 1;
nodes = (
(258,0,l),
(258,350,l),
(146,269,l),
(563,269,l),
(563,425,l),
(146,425,l),
(258,344,l),
(258,669,l),
(146,553,l),
(581,553,l),
(581,710,l),
(62,710,l),
(62,0,l)
);
}
);
width = 614;
},
{
background = {
shapes = (
{
closed = 1;
nodes = (
(178,0,l),
(178,350,l),
(135,306,l),
(520,306,l),
(520,388,l),
(135,388,l),
(178,344,l),
(178,670,l),
(135,626,l),
(538,626,l),
(538,710,l),
(92,710,l),
(92,0,l)
);
}
);
};
layerId = "6C190511-B94A-4F5A-B519-D6E9DB0E7B93";
shapes = (
{
closed = 1;
nodes = (
(178,0,l),
(178,350,l),
(135,306,l),
(520,306,l),
(520,388,l),
(135,388,l),
(178,344,l),
(178,670,l),
(135,626,l),
(538,626,l),
(538,710,l),
(92,710,l),
(92,0,l)
);
}
);
width = 590;
}
);
metricLeft = H;
metricRight = "=E-5";
unicode = 70;
}
{
color = 4;
glyphname = G;
kernLeft = O;
kernRight = G;
layers = (
{
anchors = (
{
name = bottom;
pos = (354,0);
},
{
name = top;
pos = (352,710);
}
);
background = {
anchors = (
{
name = bottom;
pos = (354,0);
},
{
name = top;
pos = (354,710);
}
);
shapes = (
{
closed = 1;
nodes = (
(474,-16,o),
(564,58,o),
(589,177,c),
(583,195,l),
(588,0,l),
(620,0,l),
(620,330,l),
(354,330,l),
(354,300,l),
(586,300,l),
(576,126,o),
(486,16,o),
(354,16,cs),
(188,16,o),
(84,146,o),
(84,354,cs),
(84,563,o),
(188,694,o),
(354,694,cs),
(468,694,o),
(550,616,o),
(583,477,c),
(616,481,l),
(583,639,o),
(482,726,o),
(354,726,cs),
(167,726,o),
(50,583,o),
(50,354,cs),
(50,127,o),
(167,-16,o),
(354,-16,cs)
);
}
);
};
layerId = "EE2FFE84-06F1-4AFB-BBEC-60D09A436D14";
shapes = (
{
closed = 1;
nodes = (
(502,-16,o),
(582,92,o),
(596,216,c),
(588,216,l),
(592,0,l),
(620,0,l),
(620,330,l),
(354,330,l),
(354,302,l),
(588,302,l),
(576,118,o),
(490,16,o),
(346,16,cs),
(186,16,o),
(84,146,o),
(84,354,cs),
(84,563,o),
(180,694,o),
(352,694,cs),
(476,694,o),
(557,621,o),
(585,477,c),
(618,481,l),
(588,641,o),
(490,726,o),
(352,726,cs),
(159,726,o),
(50,583,o),
(50,354,cs),
(50,127,o),
(165,-16,o),
(346,-16,cs)
);
}
);
width = 675;
},
{
anchors = (
{
name = bottom;
pos = (390,0);
},
{
name = top;
pos = (386,710);
}
);
background = {
anchors = (
{
name = bottom;
pos = (390,0);
},
{
name = top;
pos = (392,710);
}
);
shapes = (
{
closed = 1;
nodes = (
(494,-16,o),
(581,40,o),
(607,130,c),
(589,134,l),
(601,0,l),
(714,0,l),
(714,377,l),
(385,377,l),
(385,246,l),
(513,246,l),
(498,180,o),
(457,141,o),
(387,141,cs),
(287,141,o),
(236,226,o),
(236,354,cs),
(236,483,o),
(286,569,o),
(387,569,cs),
(451,569,o),
(493,530,o),
(509,459,c),
(712,467,l),
(677,631,o),
(560,726,o),
(392,726,cs),
(178,726,o),
(35,568,o),
(35,354,cs),
(35,140,o),
(178,-16,o),
(377,-16,cs)
);
}
);
};
layerId = "3507EE3D-0D92-4546-A145-3A991F0A2B71";
shapes = (
{
closed = 1;
nodes = (
(496,-16,o),
(594,46,o),
(612,140,c),
(590,144,l),
(600,0,l),
(714,0,l),
(714,376,l),
(385,376,l),
(385,246,l),
(518,246,l),
(508,179,o),
(463,141,o),
(390,141,cs),
(284,141,o),
(236,226,o),
(236,354,cs),
(236,483,o),
(290,569,o),
(386,569,cs),
(460,569,o),
(497,529,o),
(509,459,c),
(712,467,l),
(677,631,o),
(578,726,o),
(384,726,cs),
(164,726,o),
(35,568,o),
(35,354,cs),
(35,132,o),
(162,-16,o),
(370,-16,cs)
);
}
);
width = 754;
},
{
anchors = (
{
name = bottom;
pos = (370,0);
},
{
name = top;
pos = (368,710);
}
);
background = {
anchors = (
{
name = bottom;
pos = (370,0);
},
{
name = top;
pos = (370,710);
}
);
shapes = (
{
closed = 1;
nodes = (
(475,-16,o),
(572,51,o),
(591,143,c),
(580,161,l),
(591,0,l),
(654,0,l),
(654,359,l),
(370,359,l),
(370,275,l),
(571,275,l),
(563,158,o),
(494,68,o),
(370,68,cs),
(209,68,o),
(139,201,o),
(139,354,cs),
(139,508,o),
(208,642,o),
(370,642,cs),
(473,642,o),
(537,582,o),
(561,486,c),
(651,492,l),
(620,632,o),
(521,726,o),
(370,726,cs),
(165,726,o),
(49,561,o),
(49,354,cs),
(49,148,o),
(166,-16,o),
(370,-16,cs)
);
}
);
};
layerId = "6C190511-B94A-4F5A-B519-D6E9DB0E7B93";
shapes = (
{
closed = 1;
nodes = (
(475,-16,o),
(572,53,o),
(596,150,c),
(584,164,l),
(590,0,l),
(654,0,l),
(654,359,l),
(370,359,l),
(370,277,l),
(574,277,l),
(572,164,o),
(494,68,o),
(368,68,cs),
(209,68,o),
(139,192,o),
(139,354,cs),
(139,508,o),
(206,642,o),
(368,642,cs),
(489,642,o),
(544,578,o),
(562,486,c),
(652,492,l),
(626,624,o),
(538,726,o),
(368,726,cs),
(168,726,o),
(49,567,o),
(49,354,cs),
(49,140,o),
(166,-16,o),
(366,-16,cs)
);
}
);
width = 708;
}
);
metricLeft = O;
metricRight = "=O+5";
unicode = 71;
}
{
color = 4;
glyphname = H;
kernLeft = b;
kernRight = d;
layers = (
{
anchors = (
{
name = bottom;
pos = (338,0);
},
{
name = center;
pos = (338,560);
},
{
name = top;
pos = (338,710);
}
);
background = {
anchors = (
{
name = top;
pos = (338,710);
}
);
shapes = (
{
closed = 1;
nodes = (
(128,0,l),
(128,359,l),
(119,349,l),
(556,349,l),
(548,359,l),
(548,0,l),
(580,0,l),
(580,710,l),
(548,710,l),
(548,370,l),
(556,379,l),
(119,379,l),
(128,370,l),
(128,710,l),
(96,710,l),
(96,0,l)
);
}
);
};
layerId = "EE2FFE84-06F1-4AFB-BBEC-60D09A436D14";
shapes = (
{
closed = 1;
nodes = (
(128,0,l),
(128,359,l),
(119,349,l),
(556,349,l),
(548,359,l),
(548,0,l),
(580,0,l),
(580,710,l),
(548,710,l),
(548,370,l),
(556,379,l),
(119,379,l),
(128,370,l),
(128,710,l),
(96,710,l),
(96,0,l)
);
}
);
width = 676;
},
{
anchors = (
{
name = bottom;
pos = (363,0);
},
{
name = center;
pos = (363,580);
},
{
name = top;
pos = (363,710);
}
);
background = {
anchors = (
{
name = top;
pos = (363,710);
}
);
shapes = (
{
closed = 1;
nodes = (
(258,0,l),
(258,335,l),
(175,279,l),
(552,279,l),
(469,335,l),
(469,0,l),
(665,0,l),
(665,710,l),
(469,710,l),
(469,379,l),
(552,436,l),
(175,436,l),
(258,379,l),
(258,710,l),
(62,710,l),
(62,0,l)
);
}
);
};
layerId = "3507EE3D-0D92-4546-A145-3A991F0A2B71";
shapes = (
{
closed = 1;
nodes = (
(258,0,l),
(258,335,l),
(175,279,l),
(552,279,l),
(469,335,l),
(469,0,l),
(665,0,l),
(665,710,l),
(469,710,l),
(469,379,l),
(552,436,l),
(175,436,l),
(258,379,l),
(258,710,l),
(62,710,l),
(62,0,l)
);
}
);
width = 727;
},
{
anchors = (
{
name = bottom;
pos = (357,0);
},
{
name = center;
pos = (357,568);
},
{
name = top;
pos = (357,710);
}
);
background = {
anchors = (
{
name = top;
pos = (356,710);
}
);
shapes = (
{
closed = 1;
nodes = (
(178,0,l),
(178,349,l),
(134,315,l),
(579,315,l),
(535,349,l),
(535,0,l),
(621,0,l),
(621,710,l),
(535,710,l),
(535,365,l),
(579,399,l),
(134,399,l),
(178,365,l),
(178,710,l),
(92,710,l),
(92,0,l)
);
}
);
};
layerId = "6C190511-B94A-4F5A-B519-D6E9DB0E7B93";
shapes = (
{
closed = 1;
nodes = (
(178,0,l),
(178,349,l),
(134,315,l),
(579,315,l),
(535,349,l),
(535,0,l),
(621,0,l),
(621,710,l),
(535,710,l),
(535,365,l),
(579,399,l),
(134,399,l),
(178,365,l),
(178,710,l),
(92,710,l),
(92,0,l)
);
}
);
width = 713;
}
);
unicode = 72;
}
{
color = 4;
glyphname = I;
kernLeft = b;
kernRight = d;
layers = (
{
anchors = (
{
name = bottom;
pos = (112,0);
},
{
name = ogonek;
pos = (128,0);
},
{
name = top;
pos = (112,710);
}
);
background = {
anchors = (
{
name = bottom;
pos = (108,0);
},
{
name = ogonek;
pos = (124,0);
},
{
name = top;
pos = (108,710);
}
);
shapes = (
{
closed = 1;
nodes = (
(124,0,l),
(124,710,l),
(92,710,l),
(92,0,l)
);
}
);
};
layerId = "EE2FFE84-06F1-4AFB-BBEC-60D09A436D14";
shapes = (
{
closed = 1;
nodes = (
(128,0,l),
(128,710,l),
(96,710,l),
(96,0,l)
);
}
);
width = 224;
},
{
anchors = (
{
name = bottom;
pos = (160,0);
},
{
name = ogonek;
pos = (258,0);
},
{
name = top;
pos = (160,710);
}
);
background = {
anchors = (
{
name = bottom;
pos = (156,0);
},
{
name = ogonek;
pos = (254,0);
},
{
name = top;
pos = (156,710);
}
);
shapes = (
{
closed = 1;
nodes = (
(254,0,l),
(254,710,l),
(58,710,l),
(58,0,l)
);
}
);
};
layerId = "3507EE3D-0D92-4546-A145-3A991F0A2B71";
shapes = (
{
closed = 1;
nodes = (
(258,0,l),
(258,710,l),
(62,710,l),
(62,0,l)
);
}
);
width = 320;
},
{
anchors = (
{
name = bottom;
pos = (135,0);
},
{
name = ogonek;
pos = (178,0);
},
{
name = top;
pos = (135,710);
}
);
background = {
anchors = (
{
name = bottom;
pos = (131,0);
},
{
name = ogonek;
pos = (174,0);
},
{
name = top;
pos = (131,710);
}
);
shapes = (
{
closed = 1;
nodes = (
(174,0,l),
(174,710,l),
(88,710,l),
(88,0,l)
);
}
);
};
layerId = "6C190511-B94A-4F5A-B519-D6E9DB0E7B93";
shapes = (
{
closed = 1;
nodes = (
(178,0,l),
(178,710,l),
(92,710,l),
(92,0,l)
);
}
);
width = 270;
}
);
metricLeft = H;
metricRight = H;
unicode = 73;
}
{
color = 4;
glyphname = J;
kernLeft = J;
kernRight = U;
layers = (
{
anchors = (
{
name = top;
pos = (473,710);
}
);
background = {
anchors = (
{
name = top;
pos = (503,710);
}
);
shapes = (
{
closed = 1;
nodes = (
(438,-16,o),
(519,86,o),
(519,248,cs),
(519,710,l),
(487,710,l),
(487,248,ls),
(487,101,o),
(418,16,o),
(309,16,cs),
(208,16,o),
(136,107,o),
(135,236,c),
(101,233,l),
(102,87,o),
(188,-16,o),
(309,-16,cs)
);
}
);
};
layerId = "EE2FFE84-06F1-4AFB-BBEC-60D09A436D14";
shapes = (
{
closed = 1;
nodes = (
(406,-16,o),
(489,76,o),
(489,248,cs),
(489,710,l),
(457,710,l),
(457,248,ls),
(457,93,o),
(388,16,o),
(279,16,cs),
(176,16,o),
(107,92,o),
(105,236,c),
(71,233,l),
(73,76,o),
(157,-16,o),
(279,-16,cs)
);
}
);
width = 570;
},
{
anchors = (
{
name = top;
pos = (502,710);
}
);
background = {
anchors = (
{
name = top;
pos = (532,710);
}
);
shapes = (
{
closed = 1;
nodes = (
(512,-16,o),
(630,96,o),
(630,260,cs),
(630,710,l),
(433,710,l),
(433,260,ls),
(433,182,o),
(404,141,o),
(348,141,cs),
(293,141,o),
(264,186,o),
(263,275,c),
(67,267,l),
(68,100,o),
(181,-16,o),
(342,-16,cs)
);
}
);
};
layerId = "3507EE3D-0D92-4546-A145-3A991F0A2B71";
shapes = (
{
closed = 1;
nodes = (
(486,-16,o),
(600,92,o),
(600,260,cs),
(600,710,l),
(404,710,l),
(404,260,ls),
(404,175,o),
(372,141,o),
(320,141,cs),
(267,141,o),
(235,179,o),
(233,275,c),
(37,267,l),
(39,105,o),
(132,-16,o),
(320,-16,cs)
);
}
);
width = 647;
},
{
anchors = (
{
name = top;
pos = (478,710);
}
);
background = {
anchors = (
{
name = top;
pos = (508,710);
}
);
shapes = (
{
closed = 1;
nodes = (
(462,-16,o),
(550,86,o),
(550,248,cs),
(550,710,l),
(464,710,l),
(464,248,ls),
(464,133,o),
(413,68,o),
(323,68,cs),
(236,68,o),
(186,129,o),
(185,238,c),
(97,232,l),
(98,86,o),
(191,-16,o),
(323,-16,cs)
);
}
);
};
layerId = "6C190511-B94A-4F5A-B519-D6E9DB0E7B93";
shapes = (
{
closed = 1;
nodes = (
(432,-16,o),
(520,86,o),
(520,248,cs),
(520,710,l),
(434,710,l),
(434,248,ls),
(434,133,o),
(383,68,o),
(293,68,cs),
(206,68,o),
(156,129,o),
(155,238,c),
(67,232,l),
(68,86,o),
(161,-16,o),
(293,-16,cs)
);
}
);
width = 597;
}
);
metricLeft = "=U-10";
metricRight = U;
unicode = 74;
}
{
color = 4;
glyphname = K;
kernLeft = H;
kernRight = X;
layers = (
{
anchors = (
{
name = bottom;
pos = (327,0);
},
{
name = top;
pos = (317,710);
}
);
background = {
anchors = (
{
name = bottom;
pos = (327,0);
},
{
name = top;
pos = (317,710);
}
);
shapes = (
{
closed = 1;
nodes = (
(128,0,l),
(128,233,l),
(265,380,l),
(558,0,l),
(595,0,l),
(284,401,l),
(573,710,l),
(534,710,l),
(128,275,l),
(128,710,l),
(96,710,l),
(96,0,l)
);
}
);
};
layerId = "EE2FFE84-06F1-4AFB-BBEC-60D09A436D14";
shapes = (
{
closed = 1;
nodes = (
(128,0,l),
(128,233,l),
(265,380,l),
(558,0,l),
(595,0,l),
(284,401,l),
(573,710,l),
(534,710,l),
(128,275,l),
(128,710,l),
(96,710,l),
(96,0,l)
);
}
);
width = 615;
},
{
anchors = (
{
name = bottom;
pos = (329,0);
},
{
name = top;
pos = (329,710);
}
);
associatedMasterId = "EE2FFE84-06F1-4AFB-BBEC-60D09A436D14";
background = {
shapes = (
{
closed = 1;
nodes = (
(70,0,l),
(158,0,l),
(158,710,l),
(70,710,l)
);
},
{
closed = 1;
nodes = (
(72,262,l),
(157,236,l),
(585,710,l),
(477,710,l)
);
},
{
closed = 1;
nodes = (
(206,399,l),
(500,0,l),
(602,0,l),
(303,405,l)
);
}
);
};
layerId = "3A429947-F838-409F-94EB-A9A7478FB0A7";
name = "24 de feb. de 23 09:14";
shapes = (
{
closed = 1;
nodes = (
(98,0,l),
(130,0,l),
(130,710,l),
(98,710,l)
);
},
{
closed = 1;
nodes = (
(100,243,l),
(126,229,l),
(575,710,l),
(536,710,l)
);
},
{
closed = 1;
nodes = (
(258,392,l),
(560,0,l),
(597,0,l),
(283,405,l)
);
}
);
width = 600;
},
{
anchors = (
{
name = bottom;
pos = (364,0);
},
{
name = top;
pos = (358,710);
}
);
background = {
anchors = (
{
name = bottom;
pos = (364,0);
},
{
name = top;
pos = (358,710);
}
);
shapes = (
{
closed = 1;
nodes = (
(258,0,l),
(258,190,l),
(320,266,l),
(494,0,l),
(711,0,l),
(448,393,l),
(697,710,l),
(475,710,l),
(258,429,l),
(258,710,l),
(62,710,l),
(62,0,l)
);
}
);
};
layerId = "3507EE3D-0D92-4546-A145-3A991F0A2B71";
shapes = (
{
closed = 1;
nodes = (
(258,0,l),
(258,190,l),
(320,266,l),
(494,0,l),
(711,0,l),
(448,393,l),
(697,710,l),
(475,710,l),
(258,429,l),
(258,710,l),
(62,710,l),
(62,0,l)
);
}
);
width = 721;
},
{
anchors = (
{
name = bottom;
pos = (347,0);
},
{
name = top;
pos = (328,710);
}
);
background = {
anchors = (
{
name = bottom;
pos = (347,0);
},
{
name = top;
pos = (328,710);
}
);
shapes = (
{
closed = 1;
nodes = (
(178,0,l),
(178,237,l),
(270,338,l),
(520,0,l),
(625,0,l),
(328,402,l),
(606,710,l),
(497,710,l),
(178,357,l),
(178,710,l),
(92,710,l),
(92,0,l)
);
}
);
};
layerId = "6C190511-B94A-4F5A-B519-D6E9DB0E7B93";
shapes = (
{
closed = 1;
nodes = (
(178,0,l),
(178,237,l),
(270,338,l),
(520,0,l),
(625,0,l),
(328,402,l),
(606,710,l),
(497,710,l),
(178,357,l),
(178,710,l),
(92,710,l),
(92,0,l)
);
}
);
width = 640;
}
);
metricLeft = H;
metricRight = X;
unicode = 75;
}
{
color = 4;
glyphname = L;
kernLeft = H;
kernRight = L;
layers = (
{
anchors = (
{
name = bottom;
pos = (303,0);
},
{
name = center;
pos = (140,380);
},
{
name = top;
pos = (112,710);
},
{
name = topright;
pos = (340,530);
}
);
background = {
anchors = (
{
name = bottom;
pos = (303,0);
},
{
name = top;
pos = (112,710);
}
);
shapes = (
{
closed = 1;
nodes = (
(510,0,l),
(510,30,l),
(121,30,l),
(128,21,l),
(128,710,l),
(96,710,l),
(96,0,l)
);
}
);
};
layerId = "EE2FFE84-06F1-4AFB-BBEC-60D09A436D14";
shapes = (
{
closed = 1;
nodes = (
(510,0,l),
(510,30,l),
(121,30,l),
(128,21,l),
(128,710,l),
(96,710,l),
(96,0,l)
);
}
);
width = 550;
},
{
anchors = (
{
name = bottom;
pos = (314,0);
},
{
name = center;
pos = (190,380);
},
{
name = top;
pos = (160,710);
},
{
name = topright;
pos = (350,540);
}
);
background = {
anchors = (
{
name = bottom;
pos = (314,0);
},
{
name = top;
pos = (160,710);
}
);
shapes = (
{
closed = 1;
nodes = (
(567,0,l),
(567,157,l),
(146,157,l),
(258,41,l),
(258,710,l),
(62,710,l),
(62,0,l)
);
}
);
};
layerId = "3507EE3D-0D92-4546-A145-3A991F0A2B71";
shapes = (
{
closed = 1;
nodes = (
(567,0,l),
(567,157,l),
(146,157,l),
(258,41,l),
(258,710,l),
(62,710,l),
(62,0,l)
);
}
);
width = 595;
},
{
anchors = (
{
name = bottom;
pos = (313,0);
},
{
name = center;
pos = (174,380);
},
{
name = top;
pos = (135,710);
},
{
name = topright;
pos = (380,530);
}
);
background = {
anchors = (
{
name = bottom;
pos = (313,0);
},
{
name = top;
pos = (135,710);
}
);
shapes = (
{
closed = 1;
nodes = (
(533,0,l),
(533,84,l),
(135,84,l),
(178,40,l),
(178,710,l),
(92,710,l),
(92,0,l)
);
}
);
};
layerId = "6C190511-B94A-4F5A-B519-D6E9DB0E7B93";
shapes = (
{
closed = 1;
nodes = (
(533,0,l),
(533,84,l),
(135,84,l),
(178,40,l),
(178,710,l),
(92,710,l),
(92,0,l)
);
}
);
width = 580;
}
);
metricLeft = H;
metricRight = "=E-10";
unicode = 76;
}
{
color = 4;
glyphname = M;
kernLeft = b;
kernRight = d;
layers = (
{
anchors = (
{
name = bottom;
pos = (425,0);
},
{
name = top;
pos = (425,710);
}
);
background = {
shapes = (
{
closed = 1;
nodes = (
(128,0,l),
(128,678,l),
(407,0,l),
(443,0,l),
(722,678,l),
(722,0,l),
(754,0,l),
(754,710,l),
(700,710,l),
(425,34,l),
(150,710,l),
(96,710,l),
(96,0,l)
);
}
);
};
layerId = "EE2FFE84-06F1-4AFB-BBEC-60D09A436D14";
shapes = (
{
closed = 1;
nodes = (
(128,0,l),
(128,680,l),
(407,0,l),
(443,0,l),
(722,680,l),
(722,0,l),
(754,0,l),
(754,710,l),
(700,710,l),
(425,34,l),
(150,710,l),
(96,710,l),
(96,0,l)
);
}
);
width = 850;
},
{
associatedMasterId = "EE2FFE84-06F1-4AFB-BBEC-60D09A436D14";
background = {
shapes = (
{
closed = 1;
nodes = (
(70,0,l),
(158,0,l),
(158,710,l),
(70,710,l)
);
},
{
closed = 1;
nodes = (
(363,0,l),
(471,0,l),
(737,710,l),
(642,710,l),
(404,62,l),
(429,62,l),
(192,710,l),
(97,710,l)
);
},
{
closed = 1;
nodes = (
(676,0,l),
(764,0,l),
(764,710,l),
(676,710,l)
);
}
);
};
layerId = "1FB2E68D-DD9B-4BCB-982F-D48DBDE51AF6";
name = "5 de feb. de 23 02:23";
shapes = (
{
closed = 1;
nodes = (
(88,0,l),
(120,0,l),
(120,656,l),
(401,0,l),
(435,0,l),
(714,678,l),
(714,0,l),
(746,0,l),
(746,710,l),
(692,710,l),
(417,34,l),
(192,710,l),
(88,710,l)
);
}
);
width = 600;
},
{
anchors = (
{
name = bottom;
pos = (470,0);
},
{
name = top;
pos = (470,710);
}
);
background = {
shapes = (
{
closed = 1;
nodes = (
(258,0,l),
(258,414,l),
(400,3,l),
(539,3,l),
(681,414,l),
(681,0,l),
(878,0,l),
(878,710,l),
(618,710,l),
(470,259,l),
(320,710,l),
(62,710,l),
(62,0,l)
);
}
);
};
layerId = "3507EE3D-0D92-4546-A145-3A991F0A2B71";
shapes = (
{
closed = 1;
nodes = (
(258,0,l),
(258,400,l),
(400,3,l),
(539,3,l),
(682,400,l),
(682,0,l),
(878,0,l),
(878,710,l),
(620,710,l),
(470,259,l),
(320,710,l),
(62,710,l),
(62,0,l)
);
}
);
width = 940;
},
{
anchors = (
{
name = bottom;
pos = (439,0);
},
{
name = top;
pos = (439,710);
}
);
background = {
shapes = (
{
closed = 1;
nodes = (
(178,0,l),
(178,538,l),
(381,0,l),
(496,0,l),
(699,538,l),
(699,0,l),
(785,0,l),
(785,710,l),
(665,710,l),
(439,94,l),
(212,710,l),
(92,710,l),
(92,0,l)
);
}
);
};
layerId = "6C190511-B94A-4F5A-B519-D6E9DB0E7B93";
shapes = (
{
closed = 1;
nodes = (
(178,0,l),
(178,550,l),
(381,0,l),
(496,0,l),
(699,550,l),
(699,0,l),
(785,0,l),
(785,710,l),
(665,710,l),
(439,94,l),
(212,710,l),
(92,710,l),
(92,0,l)
);
}
);
width = 877;
}
);
metricLeft = H;
metricRight = H;
unicode = 77;
}
{
color = 4;
glyphname = O;
kernLeft = O;
kernRight = O;
layers = (
{
anchors = (
{
name = bottom;
pos = (357,0);
},
{
name = center;
pos = (357,355);
},
{
name = top;
pos = (357,710);
}
);
background = {
anchors = (
{
name = bottom;
pos = (357,0);
},
{
name = top;
pos = (357,710);
}
);
shapes = (
{
closed = 1;
nodes = (
(547,-16,o),
(664,127,o),
(664,354,cs),
(664,583,o),
(547,726,o),
(357,726,cs),
(167,726,o),
(50,583,o),
(50,354,cs),
(50,127,o),
(167,-16,o),
(357,-16,cs)
);
},
{
closed = 1;
nodes = (
(188,16,o),
(84,146,o),
(84,354,cs),
(84,563,o),
(188,694,o),
(357,694,cs),
(526,694,o),
(630,563,o),
(630,354,cs),
(630,146,o),
(526,16,o),
(357,16,cs)
);
}
);
};
layerId = "EE2FFE84-06F1-4AFB-BBEC-60D09A436D14";
shapes = (
{
closed = 1;
nodes = (
(547,-16,o),
(664,127,o),
(664,354,cs),
(664,583,o),
(547,726,o),
(357,726,cs),
(167,726,o),
(50,583,o),
(50,354,cs),
(50,127,o),
(167,-16,o),
(357,-16,cs)
);
},
{
closed = 1;
nodes = (
(188,16,o),
(84,146,o),
(84,354,cs),
(84,563,o),
(188,694,o),
(357,694,cs),
(526,694,o),
(630,563,o),
(630,354,cs),
(630,146,o),
(526,16,o),
(357,16,cs)
);
}
);
width = 714;
},
{
anchors = (
{
name = bottom;
pos = (395,0);
},
{
name = center;
pos = (395,355);
},
{
name = top;
pos = (395,710);
}
);
background = {
anchors = (
{
name = bottom;
pos = (395,0);
},
{
name = top;
pos = (395,710);
}
);
shapes = (
{
closed = 1;
nodes = (
(620,-16,o),
(754,126,o),
(754,354,cs),
(754,584,o),
(620,726,o),
(395,726,cs),
(170,726,o),
(35,584,o),
(35,354,cs),
(35,126,o),
(170,-16,o),
(395,-16,cs)
);
},
{
closed = 1;
nodes = (
(295,141,o),
(238,219,o),
(238,354,cs),
(238,490,o),
(295,569,o),
(395,569,cs),
(496,569,o),
(553,490,o),
(553,354,cs),
(553,219,o),
(496,141,o),
(395,141,cs)
);
}
);
};
layerId = "3507EE3D-0D92-4546-A145-3A991F0A2B71";
shapes = (
{
closed = 1;
nodes = (
(620,-16,o),
(755,126,o),
(755,354,cs),
(755,582,o),
(620,726,o),
(395,726,cs),
(170,726,o),
(35,582,o),
(35,354,cs),
(35,126,o),
(170,-16,o),
(395,-16,cs)
);
},
{
closed = 1;
nodes = (
(295,141,o),
(236,218,o),
(236,354,cs),
(236,490,o),
(295,569,o),
(395,569,cs),
(495,569,o),
(554,490,o),
(554,354,cs),
(554,218,o),
(495,141,o),
(395,141,cs)
);
}
);
width = 790;
},
{
anchors = (
{
name = bottom;
pos = (373,0);
},
{
name = center;
pos = (374,355);
},
{
name = top;
pos = (373,710);
}
);
background = {
anchors = (
{
name = bottom;
pos = (373,0);
},
{
name = top;
pos = (373,710);
}
);
shapes = (
{
closed = 1;
nodes = (
(576,-16,o),
(698,125,o),
(698,354,cs),
(698,585,o),
(576,726,o),
(373,726,cs),
(171,726,o),
(49,585,o),
(49,354,cs),
(49,125,o),
(171,-16,o),
(373,-16,cs)
);
},
{
closed = 1;
nodes = (
(227,68,o),
(139,177,o),
(139,354,cs),
(139,533,o),
(227,642,o),
(373,642,cs),
(520,642,o),
(608,533,o),
(608,354,cs),
(608,177,o),
(520,68,o),
(373,68,cs)
);
}
);
};
layerId = "6C190511-B94A-4F5A-B519-D6E9DB0E7B93";
shapes = (
{
closed = 1;
nodes = (
(576,-16,o),
(698,124,o),
(698,354,cs),
(698,584,o),
(576,726,o),
(373,726,cs),
(171,726,o),
(49,584,o),
(49,354,cs),
(49,124,o),
(171,-16,o),
(373,-16,cs)
);
},
{
closed = 1;
nodes = (
(227,68,o),
(139,174,o),
(139,354,cs),
(139,534,o),
(227,642,o),
(373,642,cs),
(520,642,o),
(608,534,o),
(608,354,cs),
(608,174,o),
(520,68,o),
(373,68,cs)
);
}
);
width = 747;
}
);
unicode = 79;
}
{
color = 4;
glyphname = Q;
kernLeft = O;
kernRight = O;
layers = (
{
anchors = (
{
name = bottom;
pos = (354,0);
},
{
name = top;
pos = (354,710);
}
);
background = {
anchors = (
{
name = bottom;
pos = (354,0);
},
{
name = top;
pos = (354,710);
}
);
shapes = (
{
closed = 1;
nodes = (
(606,-69,l),
(524,37,l),
(608,99,o),
(658,211,o),
(658,354,cs),
(658,579,o),
(538,726,o),
(354,726,cs),
(170,726,o),
(50,579,o),
(50,354,cs),
(50,131,o),
(171,-16,o),
(354,-16,cs),
(409,-16,o),
(458,-3,o),
(500,22,c),
(570,-69,l)
);
},
{
closed = 1;
nodes = (
(188,16,o),
(84,146,o),
(84,354,cs),
(84,563,o),
(188,694,o),
(354,694,cs),
(520,694,o),
(624,563,o),
(624,354,cs),
(624,219,o),
(580,117,o),
(505,62,c),
(392,208,l),
(356,208,l),
(481,47,l),
(444,27,o),
(402,16,o),
(354,16,cs)
);
}
);
};
layerId = "EE2FFE84-06F1-4AFB-BBEC-60D09A436D14";
shapes = (
{
closed = 1;
nodes = (
(608,-69,l),
(524,37,l),
(608,99,o),
(658,206,o),
(658,354,cs),
(658,579,o),
(538,726,o),
(354,726,cs),
(170,726,o),
(50,579,o),
(50,354,cs),
(50,131,o),
(171,-16,o),
(354,-16,cs),
(409,-16,o),
(458,-3,o),
(500,22,c),
(570,-69,l)
);
},
{
closed = 1;
nodes = (
(188,16,o),
(84,146,o),
(84,354,cs),
(84,563,o),
(188,694,o),
(354,694,cs),
(520,694,o),
(624,563,o),
(624,354,cs),
(624,220,o),
(580,117,o),
(505,62,c),
(392,208,l),
(354,208,l),
(481,47,l),
(444,27,o),
(402,16,o),
(354,16,cs)
);
}
);
width = 708;
},
{
associatedMasterId = "EE2FFE84-06F1-4AFB-BBEC-60D09A436D14";
background = {
shapes = (
{
closed = 1;
nodes = (
(567,-16,o),
(684,149,o),
(684,354,cs),
(684,560,o),
(568,726,o),
(362,726,cs),
(156,726,o),
(40,560,o),
(40,354,cs),
(40,149,o),
(157,-16,o),
(362,-16,cs)
);
},
{
closed = 1;
nodes = (
(208,70,o),
(132,200,o),
(132,354,cs),
(132,509,o),
(207,640,o),
(362,640,cs),
(517,640,o),
(592,509,o),
(592,354,cs),
(592,200,o),
(516,70,o),
(362,70,cs)
);
},
{
closed = 1;
nodes = (
(420,208,l),
(328,208,l),
(542,-69,l),
(634,-69,l)
);
}
);
};
layerId = "57B8AADA-883A-4D88-865F-303C17FF5ECC";
name = "24 de feb. de 23 09:24";
shapes = (
{
ref = O;
},
{
closed = 1;
nodes = (
(402,208,l),
(366,208,l),
(580,-69,l),
(616,-69,l)
);
}
);
width = 728;
},
{
associatedMasterId = "EE2FFE84-06F1-4AFB-BBEC-60D09A436D14";
background = {
shapes = (
{
closed = 1;
nodes = (
(567,-16,o),
(684,149,o),
(684,354,cs),
(684,560,o),
(568,726,o),
(362,726,cs),
(156,726,o),
(40,560,o),
(40,354,cs),
(40,149,o),
(157,-16,o),
(362,-16,cs)
);
},
{
closed = 1;
nodes = (
(208,70,o),
(132,200,o),
(132,354,cs),
(132,509,o),
(207,640,o),
(362,640,cs),
(517,640,o),
(592,509,o),
(592,354,cs),
(592,200,o),
(516,70,o),
(362,70,cs)
);
},
{
closed = 1;
nodes = (
(420,208,l),
(328,208,l),
(542,-69,l),
(634,-69,l)
);
}
);
};
layerId = "64775533-39F8-426A-91C6-DD7A69A21DE2";
name = "24 de feb. de 23 09:25";
shapes = (
{
ref = O;
},
{
closed = 1;
nodes = (
(402,208,l),
(366,208,l),
(580,-69,l),
(616,-69,l)
);
}
);
width = 728;
},
{
anchors = (
{
name = bottom;
pos = (397,0);
},
{
name = top;
pos = (397,710);
}
);
background = {
anchors = (
{
name = bottom;
pos = (392,0);
},
{
name = top;
pos = (392,710);
}
);
shapes = (
{
closed = 1;
nodes = (
(722,-57,l),
(624,64,l),
(702,130,o),
(748,233,o),
(748,354,cs),
(748,568,o),
(605,726,o),
(392,726,cs),
(178,726,o),
(35,568,o),
(35,354,cs),
(35,140,o),
(178,-16,o),
(392,-16,cs),
(443,-16,o),
(490,-7,o),
(532,9,c),
(586,-57,l)
);
},
{
closed = 1;
nodes = (
(281,141,o),
(236,243,o),
(236,354,cs),
(236,466,o),
(280,569,o),
(392,569,cs),
(503,569,o),
(547,466,o),
(547,354,cs),
(547,297,o),
(534,244,o),
(506,207,c),
(462,261,l),
(327,261,l),
(421,145,l),
(412,142,o),
(402,141,o),
(392,141,cs)
);
}
);
};
layerId = "3507EE3D-0D92-4546-A145-3A991F0A2B71";
shapes = (
{
closed = 1;
nodes = (
(727,-57,l),
(629,64,l),
(707,130,o),
(753,222,o),
(753,354,cs),
(753,568,o),
(629,726,o),
(397,726,cs),
(164,726,o),
(40,568,o),
(40,354,cs),
(40,131,o),
(183,-16,o),
(397,-16,cs),
(453,-16,o),
(497,-8,o),
(527,7,c),
(579,-57,l)
);
},
{
closed = 1;
nodes = (
(286,141,o),
(241,243,o),
(241,354,cs),
(241,466,o),
(285,569,o),
(397,569,cs),
(508,569,o),
(552,466,o),
(552,354,cs),
(552,280,o),
(537,241,o),
(515,213,c),
(479,261,l),
(331,261,l),
(426,145,l),
(417,142,o),
(407,141,o),
(397,141,cs)
);
}
);
width = 793;
},
{
anchors = (
{
name = bottom;
pos = (366,0);
},
{
name = top;
pos = (366,710);
}
);
background = {
anchors = (
{
name = bottom;
pos = (370,0);
},
{
name = top;
pos = (370,710);
}
);
shapes = (
{
closed = 1;
nodes = (
(642,-69,l),
(556,42,l),
(644,108,o),
(692,223,o),
(692,354,cs),
(692,561,o),
(576,726,o),
(370,726,cs),
(165,726,o),
(49,561,o),
(49,354,cs),
(49,148,o),
(166,-16,o),
(370,-16,cs),
(416,-16,o),
(457,-8,o),
(493,7,c),
(552,-69,l)
);
},
{
closed = 1;
nodes = (
(216,68,o),
(139,198,o),
(139,354,cs),
(139,511,o),
(215,642,o),
(370,642,cs),
(526,642,o),
(602,511,o),
(602,354,cs),
(602,252,o),
(568,161,o),
(503,110,c),
(428,208,l),
(338,208,l),
(438,78,l),
(418,71,o),
(395,68,o),
(370,68,cs)
);
}
);
};
layerId = "6C190511-B94A-4F5A-B519-D6E9DB0E7B93";
shapes = (
{
closed = 1;
nodes = (
(640,-69,l),
(552,42,l),
(640,108,o),
(688,223,o),
(688,354,cs),
(688,561,o),
(574,726,o),
(366,726,cs),
(161,726,o),
(45,561,o),
(45,354,cs),
(45,148,o),
(162,-16,o),
(366,-16,cs),
(412,-16,o),
(457,-7,o),
(489,7,c),
(548,-69,l)
);
},
{
closed = 1;
nodes = (
(212,68,o),
(135,198,o),
(135,354,cs),
(135,511,o),
(210,642,o),
(366,642,cs),
(522,642,o),
(598,511,o),
(598,354,cs),
(598,244,o),
(565,160,o),
(500,108,c),
(424,208,l),
(332,208,l),
(435,79,l),
(418,71,o),
(395,68,o),
(366,68,cs)
);
}
);
width = 733;
}
);
metricLeft = O;
metricRight = O;
unicode = 81;
}
{
color = 4;
glyphname = S;
kernLeft = O;
kernRight = O;
layers = (
{
anchors = (
{
name = bottom;
pos = (310,0);
},
{
name = top;
pos = (304,710);
}
);
background = {
anchors = (
{
name = bottom;
pos = (314,0);
},
{
name = top;
pos = (314,710);
}
);
shapes = (
{
closed = 1;
nodes = (
(463,-12,o),
(567,70,o),
(567,174,cs),
(567,267,o),
(495,328,o),
(330,375,cs),
(166,423,o),
(111,464,o),
(111,540,cs),
(111,635,o),
(185,694,o),
(304,694,cs),
(427,694,o),
(514,616,o),
(514,505,c),
(548,508,l),
(548,630,o),
(443,726,o),
(314,726,cs),
(168,726,o),
(77,654,o),
(77,540,cs),
(77,450,o),
(145,394,o),
(302,352,cs),
(463,309,o),
(533,255,o),
(533,174,cs),
(533,88,o),
(442,20,o),
(327,20,cs),
(198,20,o),
(97,109,o),
(97,222,c),
(64,219,l),
(64,90,o),
(178,-12,o),
(322,-12,cs)
);
}
);
};
layerId = "EE2FFE84-06F1-4AFB-BBEC-60D09A436D14";
shapes = (
{
closed = 1;
nodes = (
(455,-16,o),
(563,58,o),
(563,178,cs),
(563,274,o),
(512,335,o),
(308,382,cs),
(152,418,o),
(109,451,o),
(109,536,cs),
(109,628,o),
(180,694,o),
(304,694,cs),
(438,694,o),
(510,607,o),
(510,505,c),
(544,508,l),
(544,616,o),
(462,726,o),
(306,726,cs),
(158,726,o),
(75,642,o),
(75,538,cs),
(75,428,o),
(142,388,o),
(298,352,cs),
(488,308,o),
(529,255,o),
(529,180,cs),
(529,76,o),
(440,16,o),
(324,16,cs),
(186,16,o),
(93,112,o),
(93,222,c),
(60,219,l),
(60,89,o),
(172,-16,o),
(322,-16,cs)
);
}
);
width = 623;
},
{
anchors = (
{
name = bottom;
pos = (364,0);
},
{
name = top;
pos = (351,710);
}
);
background = {
anchors = (
{
name = bottom;
pos = (363,0);
},
{
name = top;
pos = (363,710);
}
);
shapes = (
{
closed = 1;
nodes = (
(540,-12,o),
(658,70,o),
(658,207,cs),
(658,323,o),
(558,394,o),
(380,428,cs),
(313,443,o),
(264,460,o),
(261,502,cs),
(256,544,o),
(294,572,o),
(351,572,cs),
(411,572,o),
(451,533,o),
(456,468,c),
(649,476,l),
(632,627,o),
(519,726,o),
(356,726,cs),
(178,726,o),
(62,641,o),
(62,506,cs),
(62,392,o),
(156,326,o),
(336,284,cs),
(426,263,o),
(458,243,o),
(460,204,cs),
(461,165,o),
(425,144,o),
(373,144,cs),
(299,144,o),
(254,184,o),
(244,247,c),
(49,238,l),
(59,84,o),
(185,-12,o),
(370,-12,cs)
);
}
);
};
layerId = "3507EE3D-0D92-4546-A145-3A991F0A2B71";
shapes = (
{
closed = 1;
nodes = (
(551,-16,o),
(659,69,o),
(659,208,cs),
(659,320,o),
(591,393,o),
(381,430,cs),
(289,446,o),
(259,466,o),
(259,510,cs),
(259,547,o),
(291,572,o),
(347,572,cs),
(412,572,o),
(452,533,o),
(457,468,c),
(650,476,l),
(635,623,o),
(539,726,o),
(349,726,cs),
(169,726,o),
(63,636,o),
(63,504,cs),
(63,373,o),
(141,322,o),
(335,282,cs),
(443,260,o),
(463,238,o),
(463,200,cs),
(463,158,o),
(429,138,o),
(369,138,cs),
(293,138,o),
(255,177,o),
(245,247,c),
(50,238,l),
(60,82,o),
(171,-16,o),
(367,-16,cs)
);
}
);
width = 709;
},
{
anchors = (
{
name = bottom;
pos = (327,0);
},
{
name = top;
pos = (306,710);
}
);
background = {
anchors = (
{
name = bottom;
pos = (335,0);
},
{
name = top;
pos = (334,710);
}
);
shapes = (
{
closed = 1;
nodes = (
(473,-12,o),
(593,56,o),
(593,188,cs),
(593,284,o),
(516,353,o),
(361,396,cs),
(271,421,o),
(168,445,o),
(168,531,cs),
(168,599,o),
(228,642,o),
(309,642,cs),
(407,642,o),
(475,583,o),
(488,494,c),
(578,500,l),
(563,631,o),
(462,726,o),
(310,726,cs),
(174,726,o),
(78,651,o),
(78,531,cs),
(78,434,o),
(151,367,o),
(299,330,cs),
(435,295,o),
(503,245,o),
(503,179,cs),
(503,108,o),
(442,72,o),
(351,72,cs),
(239,72,o),
(170,125,o),
(153,233,c),
(63,227,l),
(75,83,o),
(189,-12,o),
(344,-12,cs)
);
}
);
};
layerId = "6C190511-B94A-4F5A-B519-D6E9DB0E7B93";
shapes = (
{
closed = 1;
nodes = (
(481,-16,o),
(585,62,o),
(585,186,cs),
(585,288,o),
(524,356,o),
(346,400,cs),
(196,437,o),
(160,461,o),
(160,528,cs),
(160,596,o),
(216,642,o),
(304,642,cs),
(410,642,o),
(468,580,o),
(480,494,c),
(570,500,l),
(554,630,o),
(462,726,o),
(306,726,cs),
(160,726,o),
(70,643,o),
(70,524,cs),
(70,418,o),
(128,369,o),
(292,328,cs),
(462,286,o),
(495,246,o),
(495,180,cs),
(495,107,o),
(437,68,o),
(338,68,cs),
(224,68,o),
(159,127,o),
(145,233,c),
(55,227,l),
(67,83,o),
(172,-16,o),
(336,-16,cs)
);
}
);
width = 640;
}
);
metricLeft = "=O+10";
metricRight = "=O+10";
unicode = 83;
}
{
color = 4;
glyphname = T;
kernLeft = T;
kernRight = T;
layers = (
{
anchors = (
{
name = bottom;
pos = (286,0);
},
{
name = center;
pos = (286,348);
},
{
name = top;
pos = (286,710);
}
);
background = {
anchors = (
{
name = bottom;
pos = (286,0);
},
{
name = top;
pos = (286,710);
}
);
shapes = (
{
closed = 1;
nodes = (
(302,0,l),
(302,680,l),
(544,680,l),
(544,710,l),
(28,710,l),
(28,680,l),
(270,680,l),
(270,0,l)
);
}
);
};
layerId = "EE2FFE84-06F1-4AFB-BBEC-60D09A436D14";
shapes = (
{
closed = 1;
nodes = (
(302,0,l),
(302,680,l),
(544,680,l),
(544,710,l),
(28,710,l),
(28,680,l),
(270,680,l),
(270,0,l)
);
}
);
width = 572;
},
{
anchors = (
{
name = bottom;
pos = (325,0);
},
{
name = center;
pos = (326,312);
},
{
name = top;
pos = (325,710);
}
);
background = {
anchors = (
{
name = bottom;
pos = (325,0);
},
{
name = top;
pos = (325,710);
}
);
shapes = (
{
closed = 1;
nodes = (
(424,0,l),
(424,553,l),
(631,553,l),
(631,710,l),
(20,710,l),
(20,553,l),
(227,553,l),
(227,0,l)
);
}
);
};
layerId = "3507EE3D-0D92-4546-A145-3A991F0A2B71";
shapes = (
{
closed = 1;
nodes = (
(424,0,l),
(424,553,l),
(631,553,l),
(631,710,l),
(20,710,l),
(20,553,l),
(227,553,l),
(227,0,l)
);
}
);
width = 651;
},
{
anchors = (
{
name = bottom;
pos = (288,0);
},
{
name = center;
pos = (288,348);
},
{
name = top;
pos = (288,710);
}
);
background = {
anchors = (
{
name = bottom;
pos = (288,0);
},
{
name = top;
pos = (288,710);
}
);
shapes = (
{
closed = 1;
nodes = (
(331,0,l),
(331,626,l),
(552,626,l),
(552,710,l),
(24,710,l),
(24,626,l),
(245,626,l),
(245,0,l)
);
}
);
};
layerId = "6C190511-B94A-4F5A-B519-D6E9DB0E7B93";
shapes = (
{
closed = 1;
nodes = (
(331,0,l),
(331,626,l),
(552,626,l),
(552,710,l),
(24,710,l),
(24,626,l),
(245,626,l),
(245,0,l)
);
}
);
width = 576;
}
);
unicode = 84;
}
{
color = 4;
glyphname = V;
kernLeft = V;
kernRight = V;
layers = (
{
anchors = (
{
name = bottom;
pos = (321,0);
},
{
name = top;
pos = (321,710);
}
);
background = {
shapes = (
{
closed = 1;
nodes = (
(339,0,l),
(618,710,l),
(583,710,l),
(321,34,l),
(59,710,l),
(24,710,l),
(303,0,l)
);
}
);
};
layerId = "EE2FFE84-06F1-4AFB-BBEC-60D09A436D14";
shapes = (
{
closed = 1;
nodes = (
(339,0,l),
(618,710,l),
(583,710,l),
(321,34,l),
(59,710,l),
(24,710,l),
(303,0,l)
);
}
);
width = 642;
},
{
anchors = (
{
name = bottom;
pos = (395,0);
},
{
name = top;
pos = (395,710);
}
);
background = {
shapes = (
{
closed = 1;
nodes = (
(505,0,l),
(761,710,l),
(562,710,l),
(395,222,l),
(226,710,l),
(27,710,l),
(284,0,l)
);
}
);
};
layerId = "3507EE3D-0D92-4546-A145-3A991F0A2B71";
shapes = (
{
closed = 1;
nodes = (
(505,0,l),
(763,710,l),
(563,710,l),
(395,222,l),
(227,710,l),
(27,710,l),
(283,0,l)
);
}
);
width = 790;
},
{
anchors = (
{
name = bottom;
pos = (335,0);
},
{
name = top;
pos = (335,710);
}
);
background = {
shapes = (
{
closed = 1;
nodes = (
(391,0,l),
(648,710,l),
(553,710,l),
(335,96,l),
(115,710,l),
(21,710,l),
(278,0,l)
);
}
);
};
layerId = "6C190511-B94A-4F5A-B519-D6E9DB0E7B93";
shapes = (
{
closed = 1;
nodes = (
(391,0,l),
(648,710,l),
(554,710,l),
(335,94,l),
(115,710,l),
(21,710,l),
(278,0,l)
);
}
);
width = 669;
}
);
unicode = 86;
}
{
color = 4;
glyphname = W;
kernLeft = V;
kernRight = V;
layers = (
{
anchors = (
{
name = bottom;
pos = (439,0);
},
{
name = top;
pos = (439,710);
}
);
background = {
anchors = (
{
name = bottom;
pos = (439,0);
},
{
name = top;
pos = (439,710);
}
);
shapes = (
{
closed = 1;
nodes = (
(271,0,l),
(439,676,l),
(607,0,l),
(655,0,l),
(854,710,l),
(821,710,l),
(632,33,l),
(461,710,l),
(417,710,l),
(246,33,l),
(57,710,l),
(24,710,l),
(223,0,l)
);
}
);
};
layerId = "EE2FFE84-06F1-4AFB-BBEC-60D09A436D14";
shapes = (
{
closed = 1;
nodes = (
(271,0,l),
(439,676,l),
(607,0,l),
(655,0,l),
(854,710,l),
(821,710,l),
(632,33,l),
(461,710,l),
(417,710,l),
(246,33,l),
(57,710,l),
(24,710,l),
(223,0,l)
);
}
);
width = 878;
},
{
anchors = (
{
name = bottom;
pos = (522,0);
},
{
name = top;
pos = (522,710);
}
);
background = {
anchors = (
{
name = bottom;
pos = (522,0);
},
{
name = top;
pos = (522,710);
}
);
shapes = (
{
closed = 1;
nodes = (
(421,0,l),
(522,385,l),
(622,0,l),
(821,0,l),
(1016,710,l),
(815,710,l),
(709,272,l),
(600,710,l),
(443,710,l),
(335,272,l),
(228,710,l),
(27,710,l),
(223,0,l)
);
}
);
};
layerId = "3507EE3D-0D92-4546-A145-3A991F0A2B71";
shapes = (
{
closed = 1;
nodes = (
(422,0,l),
(522,390,l),
(622,0,l),
(822,0,l),
(1016,710,l),
(814,710,l),
(709,272,l),
(600,710,l),
(444,710,l),
(335,272,l),
(229,710,l),
(27,710,l),
(222,0,l)
);
}
);
width = 1043;
},
{
anchors = (
{
name = bottom;
pos = (455,0);
},
{
name = top;
pos = (455,710);
}
);
background = {
anchors = (
{
name = bottom;
pos = (455,0);
},
{
name = top;
pos = (455,710);
}
);
shapes = (
{
closed = 1;
nodes = (
(315,0,l),
(455,536,l),
(595,0,l),
(703,0,l),
(890,710,l),
(795,710,l),
(650,118,l),
(504,710,l),
(406,710,l),
(261,118,l),
(115,710,l),
(21,710,l),
(208,0,l)
);
}
);
};
layerId = "6C190511-B94A-4F5A-B519-D6E9DB0E7B93";
shapes = (
{
closed = 1;
nodes = (
(315,0,l),
(455,550,l),
(595,0,l),
(703,0,l),
(890,710,l),
(795,710,l),
(650,118,l),
(504,710,l),
(406,710,l),
(261,118,l),
(115,710,l),
(21,710,l),
(208,0,l)
);
}
);
width = 911;
}
);
metricLeft = V;
metricRight = V;
unicode = 87;
}
{
color = 4;
glyphname = X;
kernLeft = X;
kernRight = X;
layers = (
{
anchors = (
{
name = bottom;
pos = (299,0);
},
{
name = top;
pos = (299,710);
}
);
background = {
shapes = (
{
closed = 1;
nodes = (
(69,0,l),
(309,332,l),
(549,0,l),
(588,0,l),
(331,357,l),
(581,710,l),
(542,710,l),
(309,382,l),
(76,710,l),
(37,710,l),
(287,357,l),
(30,0,l)
);
}
);
};
guides = (
{
angle = -90;
pos = (578,0);
}
);
layerId = "EE2FFE84-06F1-4AFB-BBEC-60D09A436D14";
shapes = (
{
closed = 1;
nodes = (
(59,0,l),
(300,332,l),
(539,0,l),
(578,0,l),
(320,356,l),
(571,710,l),
(532,710,l),
(298,382,l),
(66,710,l),
(27,710,l),
(278,358,l),
(20,0,l)
);
}
);
width = 598;
},
{
associatedMasterId = "EE2FFE84-06F1-4AFB-BBEC-60D09A436D14";
background = {
shapes = (
{
closed = 1;
nodes = (
(280,368,l),
(264,359,l),
(30,0,l),
(130,0,l),
(350,337,l),
(367,348,l),
(603,710,l),
(503,710,l)
);
},
{
closed = 1;
nodes = (
(32,710,l),
(277,335,l),
(292,324,l),
(503,0,l),
(605,0,l),
(351,389,l),
(337,399,l),
(134,710,l)
);
}
);
};
layerId = "C47B0997-5802-47AD-AE45-D8AD767F0936";
name = "5 de feb. de 23 12:24";
shapes = (
{
closed = 1;
nodes = (
(322,368,l),
(284,359,l),
(50,0,l),
(88,0,l),
(308,337,l),
(347,348,l),
(583,710,l),
(545,710,l)
);
},
{
closed = 1;
nodes = (
(52,710,l),
(297,335,l),
(336,324,l),
(547,0,l),
(585,0,l),
(331,389,l),
(293,399,l),
(90,710,l)
);
}
);
width = 600;
},
{
anchors = (
{
name = bottom;
pos = (371,0);
},
{
name = top;
pos = (371,710);
}
);
background = {
shapes = (
{
closed = 1;
nodes = (
(255,0,l),
(390,213,l),
(525,0,l),
(751,0,l),
(502,357,l),
(749,710,l),
(525,710,l),
(391,502,l),
(256,710,l),
(31,710,l),
(278,357,l),
(29,0,l)
);
}
);
};
layerId = "3507EE3D-0D92-4546-A145-3A991F0A2B71";
shapes = (
{
closed = 1;
nodes = (
(238,0,l),
(371,212,l),
(506,0,l),
(732,0,l),
(486,358,l),
(730,710,l),
(502,710,l),
(373,502,l),
(238,710,l),
(12,710,l),
(257,356,l),
(10,0,l)
);
}
);
width = 742;
},
{
anchors = (
{
name = bottom;
pos = (303,0);
},
{
name = top;
pos = (303,710);
}
);
background = {
shapes = (
{
closed = 1;
nodes = (
(125,0,l),
(314,288,l),
(502,0,l),
(602,0,l),
(368,356,l),
(599,710,l),
(501,710,l),
(316,426,l),
(129,710,l),
(29,710,l),
(261,357,l),
(27,0,l)
);
}
);
};
layerId = "6C190511-B94A-4F5A-B519-D6E9DB0E7B93";
shapes = (
{
closed = 1;
nodes = (
(115,0,l),
(302,290,l),
(489,0,l),
(591,0,l),
(356,358,l),
(587,710,l),
(487,710,l),
(304,424,l),
(119,710,l),
(17,710,l),
(248,356,l),
(15,0,l)
);
}
);
width = 606;
}
);
unicode = 88;
}
{
color = 4;
glyphname = Y;
kernLeft = Y;
kernRight = Y;
layers = (
{
anchors = (
{
name = bottom;
pos = (271,0);
},
{
name = top;
pos = (271,710);
}
);
background = {
anchors = (
{
name = bottom;
pos = (261,0);
},
{
name = top;
pos = (261,710);
}
);
shapes = (
{
closed = 1;
nodes = (
(277,0,l),
(277,290,l),
(533,710,l),
(496,710,l),
(261,321,l),
(26,710,l),
(-12,710,l),
(245,290,l),
(245,0,l)
);
}
);
};
layerId = "EE2FFE84-06F1-4AFB-BBEC-60D09A436D14";
shapes = (
{
closed = 1;
nodes = (
(287,0,l),
(287,290,l),
(543,710,l),
(505,710,l),
(271,320,l),
(36,710,l),
(-2,710,l),
(255,290,l),
(255,0,l)
);
}
);
width = 541;
},
{
anchors = (
{
name = bottom;
pos = (335,0);
},
{
name = top;
pos = (335,710);
}
);
background = {
anchors = (
{
name = bottom;
pos = (334,0);
},
{
name = top;
pos = (334,710);
}
);
shapes = (
{
closed = 1;
nodes = (
(432,0,l),
(432,266,l),
(675,710,l),
(465,710,l),
(334,447,l),
(202,710,l),
(-9,710,l),
(235,266,l),
(235,0,l)
);
}
);
};
layerId = "3507EE3D-0D92-4546-A145-3A991F0A2B71";
shapes = (
{
closed = 1;
nodes = (
(433,0,l),
(433,266,l),
(676,710,l),
(464,710,l),
(335,454,l),
(204,710,l),
(-8,710,l),
(236,266,l),
(236,0,l)
);
}
);
width = 668;
},
{
anchors = (
{
name = bottom;
pos = (288,0);
},
{
name = top;
pos = (288,710);
}
);
background = {
anchors = (
{
name = bottom;
pos = (279,0);
},
{
name = top;
pos = (279,710);
}
);
shapes = (
{
closed = 1;
nodes = (
(322,0,l),
(322,290,l),
(573,710,l),
(471,710,l),
(279,381,l),
(87,710,l),
(-15,710,l),
(236,290,l),
(236,0,l)
);
}
);
};
layerId = "6C190511-B94A-4F5A-B519-D6E9DB0E7B93";
shapes = (
{
closed = 1;
nodes = (
(331,0,l),
(331,290,l),
(582,710,l),
(480,710,l),
(288,378,l),
(96,710,l),
(-6,710,l),
(245,290,l),
(245,0,l)
);
}
);
width = 576;
}
);
metricLeft = "=V-26";
metricRight = "=V-26";
unicode = 89;
}
{
color = 4;
glyphname = Z;
kernLeft = Z;
kernRight = Z;
layers = (
{
anchors = (
{
name = bottom;
pos = (266,0);
},
{
name = top;
pos = (266,710);
}
);
background = {
anchors = (
{
name = bottom;
pos = (266,0);
},
{
name = top;
pos = (266,710);
}
);
shapes = (
{
closed = 1;
nodes = (
(493,0,l),
(493,30,l),
(65,30,l),
(485,680,l),
(485,710,l),
(47,710,l),
(47,680,l),
(450,680,l),
(30,30,l),
(30,0,l)
);
}
);
};
layerId = "EE2FFE84-06F1-4AFB-BBEC-60D09A436D14";
shapes = (
{
closed = 1;
nodes = (
(493,0,l),
(493,30,l),
(65,30,l),
(483,680,l),
(483,710,l),
(43,710,l),
(43,680,l),
(448,680,l),
(30,30,l),
(30,0,l)
);
}
);
width = 523;
},
{
anchors = (
{
name = bottom;
pos = (323,0);
},
{
name = top;
pos = (323,710);
}
);
background = {
anchors = (
{
name = bottom;
pos = (326,0);
},
{
name = top;
pos = (326,710);
}
);
shapes = (
{
closed = 1;
nodes = (
(604,0,l),
(604,157,l),
(261,157,l),
(596,574,l),
(596,710,l),
(53,710,l),
(53,553,l),
(349,553,l),
(29,152,l),
(29,0,l)
);
}
);
};
layerId = "3507EE3D-0D92-4546-A145-3A991F0A2B71";
shapes = (
{
closed = 1;
nodes = (
(601,0,l),
(601,157,l),
(265,157,l),
(586,562,l),
(586,710,l),
(44,710,l),
(44,553,l),
(337,553,l),
(26,148,l),
(26,0,l)
);
}
);
width = 627;
},
{
anchors = (
{
name = bottom;
pos = (280,0);
},
{
name = top;
pos = (280,710);
}
);
background = {
anchors = (
{
name = bottom;
pos = (279,0);
},
{
name = top;
pos = (279,710);
}
);
shapes = (
{
closed = 1;
nodes = (
(515,0,l),
(515,84,l),
(124,84,l),
(507,624,l),
(507,710,l),
(44,710,l),
(44,626,l),
(407,626,l),
(27,89,l),
(27,0,l)
);
}
);
};
layerId = "6C190511-B94A-4F5A-B519-D6E9DB0E7B93";
shapes = (
{
closed = 1;
nodes = (
(516,0,l),
(516,84,l),
(126,84,l),
(506,622,l),
(506,710,l),
(41,710,l),
(41,626,l),
(408,626,l),
(28,88,l),
(28,0,l)
);
}
);
width = 544;
}
);
unicode = 90;
}
{
color = 4;
glyphname = bracketright;
layers = (
{
background = {
shapes = (
{
closed = 1;
nodes = (
(202,-110,l),
(202,750,l),
(49,750,l),
(49,720,l),
(170,720,l),
(170,-80,l),
(49,-80,l),
(49,-110,l)
);
}
);
};
layerId = "EE2FFE84-06F1-4AFB-BBEC-60D09A436D14";
shapes = (
{
closed = 1;
nodes = (
(192,-110,l),
(192,750,l),
(20,750,l),
(20,722,l),
(160,722,l),
(160,-82,l),
(20,-82,l),
(20,-110,l)
);
}
);
width = 288;
},
{
background = {
shapes = (
{
closed = 1;
nodes = (
(375,-110,l),
(375,750,l),
(28,750,l),
(28,594,l),
(189,594,l),
(189,46,l),
(28,46,l),
(28,-110,l)
);
}
);
};
layerId = "3507EE3D-0D92-4546-A145-3A991F0A2B71";
shapes = (
{
closed = 1;
nodes = (
(356,-110,l),
(356,750,l),
(10,750,l),
(10,600,l),
(170,600,l),
(170,40,l),
(10,40,l),
(10,-110,l)
);
}
);
width = 418;
},
{
background = {
shapes = (
{
closed = 1;
nodes = (
(267,-110,l),
(267,750,l),
(27,750,l),
(27,674,l),
(187,674,l),
(187,-34,l),
(27,-34,l),
(27,-110,l)
);
}
);
};
layerId = "6C190511-B94A-4F5A-B519-D6E9DB0E7B93";
shapes = (
{
closed = 1;
nodes = (
(255,-110,l),
(255,750,l),
(15,750,l),
(15,680,l),
(175,680,l),
(175,-40,l),
(15,-40,l),
(15,-110,l)
);
}
);
width = 347;
}
);
metricLeft = X;
metricRight = H;
unicode = 93;
}
{
color = 4;
glyphname = underscore;
layers = (
{
background = {
shapes = (
{
closed = 1;
nodes = (
(22,-124,l),
(492,-124,l),
(492,-44,l),
(22,-44,l)
);
}
);
};
layerId = "EE2FFE84-06F1-4AFB-BBEC-60D09A436D14";
shapes = (
{
closed = 1;
nodes = (
(484,-30,l),
(484,0,l),
(50,0,l),
(50,-30,l)
);
}
);
width = 534;
},
{
layerId = "3507EE3D-0D92-4546-A145-3A991F0A2B71";
shapes = (
{
closed = 1;
nodes = (
(532,-150,l),
(532,0,l),
(32,0,l),
(32,-150,l)
);
}
);
width = 564;
},
{
layerId = "6C190511-B94A-4F5A-B519-D6E9DB0E7B93";
shapes = (
{
closed = 1;
nodes = (
(513,-78,l),
(513,0,l),
(44,0,l),
(44,-78,l)
);
}
);
width = 557;
}
);
metricLeft = o;
metricRight = o;
unicode = 95;
}
{
color = 4;
glyphname = a;
kernLeft = a;
kernRight = l;
layers = (
{
anchors = (
{
name = bottom;
pos = (264,0);
},
{
name = ogonek;
pos = (510,0);
},
{
name = top;
pos = (264,530);
}
);
background = {
anchors = (
{
name = bottom;
pos = (264,0);
},
{
name = ogonek;
pos = (510,0);
},
{
name = top;
pos = (264,530);
}
);
shapes = (
{
closed = 1;
nodes = (
(312,-10,o),
(388,34,o),
(424,115,c),
(419,25,o),
(451,0,o),
(498,0,cs),
(510,0,l),
(510,30,l),
(498,30,ls),
(467,30,o),
(454,48,o),
(454,90,cs),
(454,320,ls),
(454,468,o),
(389,542,o),
(258,542,cs),
(149,542,o),
(77,481,o),
(59,373,c),
(92,370,l),
(107,461,o),
(166,512,o),
(258,512,cs),
(372,512,o),
(422,452,o),
(422,315,c),
(232,280,ls),
(139,263,o),
(50,226,o),
(50,131,cs),
(50,48,o),
(116,-10,o),
(223,-12,cs)
);
},
{
closed = 1;
nodes = (
(141,13,o),
(82,60,o),
(82,131,cs),
(82,219,o),
(177,241,o),
(264,257,cs),
(424,287,l),
(425,219,ls),
(427,108,o),
(347,23,o),
(234,18,cs)
);
}
);
};
layerId = "EE2FFE84-06F1-4AFB-BBEC-60D09A436D14";
shapes = (
{
closed = 1;
nodes = (
(324,-12,o),
(402,51,o),
(428,122,c),
(422,122,l),
(422,20,o),
(450,-1,o),
(495,-1,cs),
(500,-1,o),
(504,-1,o),
(510,0,c),
(510,30,l),
(504,30,ls),
(470,30,o),
(454,43,o),
(454,100,cs),
(454,326,ls),
(454,472,o),
(386,542,o),
(264,542,cs),
(149,542,o),
(77,481,o),
(59,373,c),
(92,370,l),
(107,461,o),
(166,512,o),
(264,512,cs),
(372,512,o),
(424,454,o),
(424,316,c),
(211,276,ls),
(117,258,o),
(50,210,o),
(50,130,cs),
(50,44,o),
(118,-12,o),
(220,-12,cs)
);
},
{
closed = 1;
nodes = (
(132,18,o),
(82,58,o),
(82,132,cs),
(82,196,o),
(136,232,o),
(220,248,cs),
(424,287,l),
(424,204,ls),
(424,98,o),
(338,18,o),
(222,18,cs)
);
}
);
width = 539;
},
{
anchors = (
{
name = bottom;
pos = (243,0);
},
{
name = ogonek;
pos = (386,0);
},
{
name = top;
pos = (243,530);
}
);
associatedMasterId = "EE2FFE84-06F1-4AFB-BBEC-60D09A436D14";
background = {
shapes = (
{
closed = 1;
nodes = (
(323,-12,o),
(387,48,o),
(396,102,c),
(387,110,l),
(386,49,o),
(425,0,o),
(502,0,cs),
(529,0,l),
(529,76,l),
(507,76,ls),
(485,76,o),
(475,86,o),
(475,108,cs),
(475,320,ls),
(475,468,o),
(389,542,o),
(261,542,cs),
(151,542,o),
(64,474,o),
(44,374,c),
(136,367,l),
(149,421,o),
(196,460,o),
(261,460,cs),
(349,460,o),
(402,404,o),
(386,287,c),
(433,338,l),
(235,299,ls),
(117,276,o),
(35,249,o),
(35,139,cs),
(35,44,o),
(121,-12,o),
(226,-12,cs)
);
},
{
closed = 1;
nodes = (
(125,213,o),
(189,216,o),
(267,230,cs),
(435,261,l),
(391,267,l),
(391,228,ls),
(391,124,o),
(323,64,o),
(237,64,cs),
(160,64,o),
(125,98,o),
(125,139,cs)
);
}
);
};
layerId = "456932B6-354B-4A2F-81B9-CE7212349174";
name = "30 de mar. de 23 15:28";
shapes = (
{
closed = 1;
nodes = (
(217,280,ls),
(124,263,o),
(35,226,o),
(35,131,cs),
(35,48,o),
(101,-10,o),
(208,-12,cs),
(322,-10,o),
(414,62,o),
(430,192,c),
(411,192,l),
(410,155,o),
(409,127,o),
(409,90,cs),
(409,38,o),
(442,-2,o),
(483,0,cs),
(488,0,o),
(492,0,o),
(496,0,c),
(496,30,l),
(491,30,o),
(488,30,o),
(483,30,cs),
(457,31,o),
(439,56,o),
(439,90,cs),
(439,320,ls),
(439,468,o),
(371,542,o),
(243,542,cs),
(121,542,o),
(46,459,o),
(40,339,c),
(-6,376,l),
(134,366,l),
(77,338,l),
(79,446,o),
(142,512,o),
(243,512,cs),
(346,512,o),
(407,442,o),
(407,327,cs),
(407,303,l),
(430,319,l)
);
},
{
closed = 1;
nodes = (
(67,219,o),
(162,241,o),
(249,257,cs),
(425,290,l),
(409,295,l),
(410,219,ls),
(411,108,o),
(332,23,o),
(219,18,cs),
(126,13,o),
(67,60,o),
(67,131,cs)
);
}
);
width = 526;
},
{
anchors = (
{
name = bottom;
pos = (309,0);
},
{
name = ogonek;
pos = (614,0);
},
{
name = top;
pos = (309,540);
}
);
background = {
anchors = (
{
name = bottom;
pos = (310,0);
},
{
name = ogonek;
pos = (615,0);
},
{
name = top;
pos = (310,540);
}
);
shapes = (
{
closed = 1;
nodes = (
(329,-12,o),
(389,22,o),
(418,82,c),
(442,-31,o),
(583,-6,o),
(604,-2,cs),
(615,0,l),
(615,122,l),
(606,122,ls),
(589,122,o),
(572,128,o),
(572,171,cs),
(572,312,ls),
(572,472,o),
(486,552,o),
(308,552,cs),
(158,552,o),
(63,495,o),
(42,365,c),
(234,359,l),
(240,402,o),
(264,424,o),
(307,424,cs),
(352,424,o),
(375,395,o),
(375,336,c),
(236,308,ls),
(101,281,o),
(33,235,o),
(33,142,cs),
(33,48,o),
(114,-12,o),
(223,-12,cs)
);
},
{
closed = 1;
nodes = (
(250,108,o),
(232,126,o),
(232,150,cs),
(232,182,o),
(257,202,o),
(314,214,cs),
(378,228,l),
(378,223,l),
(378,153,o),
(338,111,o),
(298,110,cs)
);
}
);
};
guides = (
{
pos = (24,358);
},
{
pos = (233,353);
}
);
layerId = "3507EE3D-0D92-4546-A145-3A991F0A2B71";
shapes = (
{
closed = 1;
nodes = (
(342,-12,o),
(405,34,o),
(427,108,c),
(413,124,l),
(413,14,o),
(488,-8,o),
(546,-8,cs),
(571,-8,o),
(602,-4,o),
(614,0,c),
(614,122,l),
(603,122,ls),
(583,122,o),
(571,129,o),
(571,164,cs),
(571,322,ls),
(571,476,o),
(485,552,o),
(309,552,cs),
(157,552,o),
(62,495,o),
(41,365,c),
(233,359,l),
(239,402,o),
(264,424,o),
(309,424,cs),
(352,424,o),
(377,394,o),
(377,338,c),
(215,304,ls),
(97,279,o),
(32,232,o),
(32,136,cs),
(32,42,o),
(113,-12,o),
(227,-12,cs)
);
},
{
closed = 1;
nodes = (
(246,110,o),
(231,126,o),
(231,154,cs),
(231,182,o),
(255,200,o),
(289,208,cs),
(377,230,l),
(377,212,ls),
(377,142,o),
(335,110,o),
(281,110,cs)
);
}
);
width = 623;
},
{
anchors = (
{
name = bottom;
pos = (267,0);
},
{
name = ogonek;
pos = (532,0);
},
{
name = top;
pos = (278,530);
}
);
background = {
anchors = (
{
name = bottom;
pos = (270,0);
},
{
name = ogonek;
pos = (535,0);
},
{
name = top;
pos = (281,530);
}
);
shapes = (
{
closed = 1;
nodes = (
(305,-12,o),
(377,27,o),
(403,82,c),
(403,29,o),
(439,0,o),
(504,0,cs),
(535,0,l),
(535,74,l),
(518,74,ls),
(496,74,o),
(486,85,o),
(486,107,cs),
(486,320,ls),
(486,462,o),
(409,542,o),
(273,542,cs),
(160,542,o),
(77,477,o),
(56,374,c),
(145,367,l),
(161,428,o),
(206,462,o),
(273,462,cs),
(358,462,o),
(401,418,o),
(402,329,c),
(247,301,ls),
(129,280,o),
(47,248,o),
(47,139,cs),
(47,46,o),
(117,-12,o),
(228,-12,cs)
);
},
{
closed = 1;
nodes = (
(174,63,o),
(135,92,o),
(135,139,cs),
(135,213,o),
(200,218,o),
(279,232,cs),
(404,254,l),
(404,247,ls),
(404,135,o),
(344,64,o),
(236,63,cs)
);
}
);
};
layerId = "6C190511-B94A-4F5A-B519-D6E9DB0E7B93";
shapes = (
{
closed = 1;
nodes = (
(313,-12,o),
(395,39,o),
(409,108,c),
(399,110,l),
(399,30,o),
(427,-2,o),
(500,-2,cs),
(513,-2,o),
(526,-1,o),
(532,0,c),
(532,74,l),
(511,74,ls),
(491,74,o),
(483,83,o),
(483,107,cs),
(483,326,ls),
(483,460,o),
(409,542,o),
(273,542,cs),
(153,542,o),
(73,474,o),
(53,374,c),
(142,367,l),
(158,428,o),
(199,462,o),
(273,462,cs),
(357,462,o),
(399,418,o),
(399,329,c),
(211,294,ls),
(95,272,o),
(44,222,o),
(44,132,cs),
(44,41,o),
(113,-12,o),
(223,-12,cs)
);
},
{
closed = 1;
nodes = (
(169,62,o),
(132,90,o),
(132,140,cs),
(132,184,o),
(155,211,o),
(227,224,cs),
(399,256,l),
(399,218,ls),
(399,130,o),
(337,62,o),
(231,62,cs)
);
}
);
width = 551;
}
);
metricLeft = o;
metricRight = "=l-5";
unicode = 97;
}
{
color = 4;
glyphname = b;
kernLeft = b;
kernRight = o;
layers = (
{
anchors = (
{
name = bottom;
pos = (285,0);
},
{
name = center;
pos = (143,265);
},
{
name = top;
pos = (285,530);
}
);
background = {
shapes = (
{
closed = 1;
nodes = (
(435,-12,o),
(520,95,o),
(520,265,cs),
(520,433,o),
(435,539,o),
(299,539,cs),
(219,539,o),
(143,482,o),
(115,402,c),
(115,710,l),
(85,710,l),
(85,0,l),
(107,0,l),
(110,130,l),
(146,43,o),
(219,-12,o),
(299,-12,cs)
);
},
{
closed = 1;
nodes = (
(189,17,o),
(112,119,o),
(112,265,cs),
(112,408,o),
(189,509,o),
(299,509,cs),
(415,509,o),
(488,415,o),
(488,265,cs),
(488,113,o),
(415,17,o),
(299,17,cs)
);
}
);
};
layerId = "EE2FFE84-06F1-4AFB-BBEC-60D09A436D14";
shapes = (
{
closed = 1;
nodes = (
(435,-12,o),
(520,95,o),
(520,265,cs),
(520,433,o),
(435,542,o),
(299,542,cs),
(211,542,o),
(143,482,o),
(115,400,c),
(115,710,l),
(85,710,l),
(85,0,l),
(107,0,l),
(110,134,l),
(139,53,o),
(207,-12,o),
(299,-12,cs)
);
},
{
closed = 1;
nodes = (
(189,18,o),
(115,119,o),
(115,265,cs),
(115,408,o),
(189,512,o),
(299,512,cs),
(415,512,o),
(488,415,o),
(488,265,cs),
(488,113,o),
(415,18,o),
(299,18,cs)
);
}
);
width = 570;
},
{
anchors = (
{
name = bottom;
pos = (331,0);
},
{
name = center;
pos = (165,270);
},
{
name = top;
pos = (331,540);
}
);
background = {
shapes = (
{
closed = 1;
nodes = (
(542,-12,o),
(628,97,o),
(628,270,cs),
(628,442,o),
(542,552,o),
(404,552,cs),
(339,552,o),
(283,519,o),
(250,462,c),
(250,710,l),
(56,710,l),
(56,0,l),
(245,0,l),
(248,78,l),
(278,21,o),
(335,-12,o),
(404,-12,cs)
);
},
{
closed = 1;
nodes = (
(278,125,o),
(241,183,o),
(241,270,cs),
(241,358,o),
(278,415,o),
(336,415,cs),
(393,415,o),
(430,358,o),
(430,270,cs),
(430,183,o),
(390,125,o),
(336,125,cs)
);
}
);
};
layerId = "3507EE3D-0D92-4546-A145-3A991F0A2B71";
shapes = (
{
closed = 1;
nodes = (
(542,-12,o),
(628,100,o),
(628,270,cs),
(628,440,o),
(542,552,o),
(408,552,cs),
(335,552,o),
(280,516,o),
(250,462,c),
(250,710,l),
(56,710,l),
(56,0,l),
(245,0,l),
(248,78,l),
(278,21,o),
(332,-12,o),
(408,-12,cs)
);
},
{
closed = 1;
nodes = (
(283,127,o),
(250,179,o),
(250,270,cs),
(250,362,o),
(283,413,o),
(342,413,cs),
(395,413,o),
(429,362,o),
(429,270,cs),
(429,178,o),
(393,127,o),
(342,127,cs)
);
}
);
width = 660;
},
{
anchors = (
{
name = bottom;
pos = (299,0);
},
{
name = center;
pos = (150,265);
},
{
name = top;
pos = (299,530);
}
);
background = {
shapes = (
{
closed = 1;
nodes = (
(465,-12,o),
(551,95,o),
(551,265,cs),
(551,435,o),
(465,542,o),
(327,542,cs),
(256,542,o),
(193,510,o),
(164,460,c),
(164,710,l),
(80,710,l),
(80,0,l),
(156,0,l),
(159,76,l),
(189,22,o),
(253,-12,o),
(327,-12,cs)
);
},
{
closed = 1;
nodes = (
(216,68,o),
(156,144,o),
(156,265,cs),
(156,388,o),
(216,466,o),
(310,466,cs),
(403,466,o),
(463,388,o),
(463,265,cs),
(463,144,o),
(403,68,o),
(310,68,cs)
);
}
);
};
layerId = "6C190511-B94A-4F5A-B519-D6E9DB0E7B93";
shapes = (
{
closed = 1;
nodes = (
(463,-12,o),
(551,95,o),
(551,265,cs),
(551,435,o),
(463,542,o),
(323,542,cs),
(249,542,o),
(190,500,o),
(164,456,c),
(164,710,l),
(80,710,l),
(80,0,l),
(156,0,l),
(159,80,l),
(189,22,o),
(249,-12,o),
(323,-12,cs)
);
},
{
closed = 1;
nodes = (
(222,68,o),
(164,144,o),
(164,265,cs),
(164,388,o),
(222,462,o),
(320,462,cs),
(407,462,o),
(463,388,o),
(463,265,cs),
(463,144,o),
(407,68,o),
(318,68,cs)
);
}
);
width = 595;
}
);
metricLeft = n;
metricRight = o;
unicode = 98;
}
{
color = 4;
glyphname = c;
kernLeft = o;
kernRight = o;
layers = (
{
anchors = (
{
name = bottom;
pos = (275,0);
},
{
name = top;
pos = (275,530);
}
);
background = {
anchors = (
{
name = bottom;
pos = (275,0);
},
{
name = top;
pos = (275,530);
}
);
shapes = (
{
closed = 1;
nodes = (
(396,-12,o),
(467,66,o),
(491,175,c),
(458,178,l),
(434,80,o),
(367,18,o),
(275,18,cs),
(157,18,o),
(82,113,o),
(82,265,cs),
(82,417,o),
(157,512,o),
(275,512,cs),
(364,512,o),
(429,455,o),
(455,363,c),
(488,365,l),
(462,471,o),
(391,542,o),
(275,542,cs),
(125,542,o),
(50,415,o),
(50,265,cs),
(50,115,o),
(125,-12,o),
(275,-12,cs)
);
}
);
};
layerId = "EE2FFE84-06F1-4AFB-BBEC-60D09A436D14";
shapes = (
{
closed = 1;
nodes = (
(395,-12,o),
(467,67,o),
(491,175,c),
(459,178,l),
(439,78,o),
(373,18,o),
(275,18,cs),
(157,18,o),
(82,113,o),
(82,265,cs),
(82,417,o),
(157,512,o),
(275,512,cs),
(373,512,o),
(432,457,o),
(456,363,c),
(488,365,l),
(462,465,o),
(395,542,o),
(275,542,cs),
(125,542,o),
(50,415,o),
(50,265,cs),
(50,115,o),
(125,-12,o),
(275,-12,cs)
);
}
);
width = 531;
},
{
anchors = (
{
name = bottom;
pos = (324,0);
},
{
name = top;
pos = (324,540);
}
);
background = {
anchors = (
{
name = bottom;
pos = (325,0);
},
{
name = top;
pos = (325,540);
}
);
shapes = (
{
closed = 1;
nodes = (
(486,-12,o),
(599,77,o),
(611,219,c),
(412,225,l),
(405,158,o),
(373,127,o),
(325,127,cs),
(265,127,o),
(232,178,o),
(232,270,cs),
(232,361,o),
(265,412,o),
(325,412,cs),
(372,412,o),
(403,379,o),
(411,317,c),
(609,325,l),
(595,466,o),
(481,552,o),
(325,552,cs),
(149,552,o),
(33,439,o),
(33,270,cs),
(33,100,o),
(149,-12,o),
(325,-12,cs)
);
}
);
};
layerId = "3507EE3D-0D92-4546-A145-3A991F0A2B71";
shapes = (
{
closed = 1;
nodes = (
(485,-12,o),
(598,77,o),
(610,219,c),
(411,225,l),
(405,157,o),
(372,127,o),
(324,127,cs),
(264,127,o),
(231,178,o),
(231,270,cs),
(231,361,o),
(264,412,o),
(324,412,cs),
(371,412,o),
(403,381,o),
(411,317,c),
(610,325,l),
(596,466,o),
(480,552,o),
(324,552,cs),
(148,552,o),
(32,439,o),
(32,270,cs),
(32,100,o),
(148,-12,o),
(324,-12,cs)
);
}
);
width = 632;
},
{
anchors = (
{
name = bottom;
pos = (287,0);
},
{
name = top;
pos = (287,530);
}
);
background = {
anchors = (
{
name = bottom;
pos = (290,0);
},
{
name = top;
pos = (290,530);
}
);
shapes = (
{
closed = 1;
nodes = (
(402,-12,o),
(498,62,o),
(515,182,c),
(426,188,l),
(414,112,o),
(356,68,o),
(290,68,cs),
(192,68,o),
(135,142,o),
(135,265,cs),
(135,388,o),
(192,462,o),
(290,462,cs),
(353,462,o),
(411,421,o),
(422,352,c),
(510,358,l),
(496,472,o),
(398,542,o),
(290,542,cs),
(142,542,o),
(47,433,o),
(47,265,cs),
(47,97,o),
(142,-12,o),
(290,-12,cs)
);
}
);
};
layerId = "6C190511-B94A-4F5A-B519-D6E9DB0E7B93";
shapes = (
{
closed = 1;
nodes = (
(409,-12,o),
(494,64,o),
(512,182,c),
(424,188,l),
(412,108,o),
(359,68,o),
(287,68,cs),
(189,68,o),
(132,142,o),
(132,265,cs),
(132,388,o),
(189,462,o),
(287,462,cs),
(359,462,o),
(412,422,o),
(424,352,c),
(512,358,l),
(494,476,o),
(409,542,o),
(287,542,cs),
(139,542,o),
(44,433,o),
(44,265,cs),
(44,97,o),
(139,-12,o),
(287,-12,cs)
);
}
);
width = 546;
}
);
metricLeft = o;
metricRight = "=o-10";
unicode = 99;
}
{
color = 4;
glyphname = d;
kernLeft = o;
kernRight = d;
layers = (
{
anchors = (
{
name = bottom;
pos = (285,0);
},
{
name = center;
pos = (431,618);
},
{
name = top;
pos = (285,530);
},
{
name = topright;
pos = (535,530);
}
);
background = {
anchors = (
{
name = bottom;
pos = (285,0);
},
{
name = center;
pos = (285,265);
},
{
name = top;
pos = (285,530);
},
{
name = topright;
pos = (535,530);
}
);
shapes = (
{
closed = 1;
nodes = (
(351,-12,o),
(424,43,o),
(460,130,c),
(463,0,l),
(485,0,l),
(485,710,l),
(455,710,l),
(455,402,l),
(427,482,o),
(351,539,o),
(271,539,cs),
(135,539,o),
(50,433,o),
(50,265,cs),
(50,95,o),
(135,-12,o),
(271,-12,cs)
);
},
{
closed = 1;
nodes = (
(155,17,o),
(82,113,o),
(82,265,cs),
(82,415,o),
(155,509,o),
(271,509,cs),
(381,509,o),
(458,408,o),
(458,265,cs),
(458,119,o),
(381,17,o),
(271,17,cs)
);
}
);
};
layerId = "EE2FFE84-06F1-4AFB-BBEC-60D09A436D14";
shapes = (
{
closed = 1;
nodes = (
(353,-12,o),
(430,44,o),
(460,138,c),
(463,0,l),
(485,0,l),
(485,710,l),
(455,710,l),
(455,400,l),
(431,482,o),
(362,542,o),
(271,542,cs),
(133,542,o),
(50,435,o),
(50,265,cs),
(50,95,o),
(133,-12,o),
(271,-12,cs)
);
},
{
closed = 1;
nodes = (
(155,18,o),
(82,115,o),
(82,265,cs),
(82,415,o),
(155,512,o),
(271,512,cs),
(383,512,o),
(455,403,o),
(455,265,cs),
(455,119,o),
(383,18,o),
(271,18,cs)
);
}
);
width = 570;
},
{
anchors = (
{
name = bottom;
pos = (331,0);
},
{
name = center;
pos = (482,622);
},
{
name = top;
pos = (331,540);
},
{
name = topright;
pos = (625,540);
}
);
background = {
anchors = (
{
name = bottom;
pos = (331,0);
},
{
name = center;
pos = (331,270);
},
{
name = top;
pos = (331,540);
},
{
name = topright;
pos = (615,540);
}
);
shapes = (
{
closed = 1;
nodes = (
(327,-12,o),
(383,21,o),
(413,78,c),
(416,0,l),
(605,0,l),
(605,710,l),
(411,710,l),
(411,462,l),
(378,519,o),
(322,552,o),
(257,552,cs),
(119,552,o),
(33,442,o),
(33,270,cs),
(33,97,o),
(119,-12,o),
(257,-12,cs)
);
},
{
closed = 1;
nodes = (
(271,125,o),
(231,183,o),
(231,270,cs),
(231,358,o),
(268,415,o),
(325,415,cs),
(383,415,o),
(420,358,o),
(420,270,cs),
(420,183,o),
(383,125,o),
(325,125,cs)
);
}
);
};
layerId = "3507EE3D-0D92-4546-A145-3A991F0A2B71";
shapes = (
{
closed = 1;
nodes = (
(324,-12,o),
(383,21,o),
(413,78,c),
(416,0,l),
(605,0,l),
(605,710,l),
(411,710,l),
(411,462,l),
(383,518,o),
(330,552,o),
(250,552,cs),
(120,552,o),
(33,442,o),
(33,270,cs),
(33,97,o),
(116,-12,o),
(250,-12,cs)
);
},
{
closed = 1;
nodes = (
(268,127,o),
(232,184,o),
(232,270,cs),
(232,358,o),
(266,413,o),
(321,413,cs),
(379,413,o),
(411,370,o),
(411,270,cs),
(411,170,o),
(378,127,o),
(321,127,cs)
);
}
);
width = 661;
},
{
anchors = (
{
name = bottom;
pos = (299,0);
},
{
name = center;
pos = (434,616);
},
{
name = top;
pos = (299,530);
},
{
name = topright;
pos = (548,530);
}
);
background = {
anchors = (
{
name = bottom;
pos = (299,0);
},
{
name = center;
pos = (299,265);
},
{
name = top;
pos = (299,530);
},
{
name = topright;
pos = (548,530);
}
);
shapes = (
{
closed = 1;
nodes = (
(345,-12,o),
(409,22,o),
(439,76,c),
(442,0,l),
(518,0,l),
(518,710,l),
(434,710,l),
(434,460,l),
(405,510,o),
(342,542,o),
(271,542,cs),
(133,542,o),
(47,435,o),
(47,265,cs),
(47,95,o),
(133,-12,o),
(271,-12,cs)
);
},
{
closed = 1;
nodes = (
(195,68,o),
(135,144,o),
(135,265,cs),
(135,388,o),
(195,466,o),
(288,466,cs),
(382,466,o),
(442,388,o),
(442,265,cs),
(442,144,o),
(382,68,o),
(288,68,cs)
);
}
);
};
layerId = "6C190511-B94A-4F5A-B519-D6E9DB0E7B93";
shapes = (
{
closed = 1;
nodes = (
(345,-12,o),
(409,22,o),
(439,80,c),
(442,0,l),
(518,0,l),
(518,710,l),
(434,710,l),
(434,456,l),
(405,510,o),
(342,542,o),
(271,542,cs),
(133,542,o),
(47,435,o),
(47,265,cs),
(47,95,o),
(133,-12,o),
(271,-12,cs)
);
},
{
closed = 1;
nodes = (
(195,68,o),
(135,144,o),
(135,265,cs),
(135,388,o),
(195,462,o),
(288,462,cs),
(382,462,o),
(434,388,o),
(434,265,cs),
(434,144,o),
(382,68,o),
(288,68,cs)
);
}
);
width = 598;
}
);
metricLeft = o;
metricRight = "=|n";
unicode = 100;
}
{
color = 4;
glyphname = e;
kernLeft = o;
kernRight = o;
layers = (
{
anchors = (
{
name = bottom;
pos = (275,0);
},
{
name = ogonek;
pos = (424,39);
},
{
name = top;
pos = (275,530);
}
);
background = {
anchors = (
{
name = bottom;
pos = (275,0);
},
{
name = ogonek;
pos = (338,0);
},
{
name = top;
pos = (275,530);
}
);
shapes = (
{
closed = 1;
nodes = (
(373,-12,o),
(454,48,o),
(485,143,c),
(452,145,l),
(423,67,o),
(355,18,o),
(275,18,cs),
(159,18,o),
(84,110,o),
(82,258,c),
(500,258,l),
(500,265,l),
(500,415,o),
(425,542,o),
(275,542,cs),
(125,542,o),
(50,415,o),
(50,265,cs),
(50,115,o),
(125,-12,o),
(275,-12,cs)
);
},
{
closed = 1;
nodes = (
(90,427,o),
(163,512,o),
(275,512,cs),
(387,512,o),
(460,427,o),
(467,288,c),
(83,288,l)
);
}
);
};
layerId = "EE2FFE84-06F1-4AFB-BBEC-60D09A436D14";
shapes = (
{
closed = 1;
nodes = (
(388,-12,o),
(463,53,o),
(489,143,c),
(456,145,l),
(434,69,o),
(374,18,o),
(280,18,cs),
(162,18,o),
(84,110,o),
(82,260,c),
(500,260,l),
(500,272,ls),
(500,416,o),
(428,542,o),
(276,542,cs),
(126,542,o),
(50,415,o),
(50,265,cs),
(50,115,o),
(128,-12,o),
(280,-12,cs)
);
},
{
closed = 1;
nodes = (
(89,427,o),
(164,512,o),
(276,512,cs),
(396,512,o),
(463,424,o),
(467,288,c),
(82,288,l)
);
}
);
width = 550;
},
{
anchors = (
{
name = bottom;
pos = (265,0);
},
{
name = ogonek;
pos = (328,0);
},
{
name = top;
pos = (265,530);
}
);
associatedMasterId = "EE2FFE84-06F1-4AFB-BBEC-60D09A436D14";
background = {
shapes = (
{
closed = 1;
nodes = (
(395,-12,o),
(493,63,o),
(514,181,c),
(533,148,l),
(394,158,l),
(422,180,l),
(403,111,o),
(347,70,o),
(283,70,cs),
(186,70,o),
(130,143,o),
(130,265,cs),
(130,387,o),
(186,460,o),
(283,460,cs),
(355,460,o),
(421,413,o),
(424,265,c),
(514,265,l),
(508,464,o),
(401,542,o),
(283,542,cs),
(136,542,o),
(40,434,o),
(40,265,cs),
(40,96,o),
(136,-12,o),
(283,-12,cs)
);
},
{
closed = 1;
nodes = (
(514,238,l),
(514,275,l),
(509,297,l),
(463,297,l),
(463,314,l),
(84,314,l),
(84,238,l)
);
}
);
};
layerId = "E9BBF2E6-3E46-4BD2-A166-D8A1CCFF5D66";
name = "24 de feb. de 23 10:25";
shapes = (
{
closed = 1;
nodes = (
(56,258,l),
(490,258,l),
(488,288,l),
(56,288,l)
);
},
{
closed = 1;
nodes = (
(490,259,l),
(490,261,o),
(490,263,o),
(490,265,cs),
(490,415,o),
(415,542,o),
(265,542,cs),
(115,542,o),
(40,415,o),
(40,265,cs),
(40,115,o),
(115,-12,o),
(265,-12,cs),
(363,-12,o),
(444,48,o),
(475,143,c),
(442,145,l),
(413,67,o),
(345,18,o),
(265,18,cs),
(147,18,o),
(72,113,o),
(72,265,cs),
(72,417,o),
(147,512,o),
(265,512,cs),
(383,512,o),
(458,417,o),
(458,265,cs),
(458,263,o),
(458,261,o),
(458,259,c)
);
}
);
width = 525;
},
{
anchors = (
{
name = bottom;
pos = (324,0);
},
{
name = ogonek;
pos = (511,40);
},
{
name = top;
pos = (324,538);
}
);
background = {
anchors = (
{
name = bottom;
pos = (325,0);
},
{
name = ogonek;
pos = (401,0);
},
{
name = top;
pos = (325,538);
}
);
shapes = (
{
closed = 1;
nodes = (
(459,-12,o),
(564,55,o),
(597,164,c),
(404,174,l),
(392,142,o),
(359,120,o),
(325,120,cs),
(272,120,o),
(238,160,o),
(236,222,c),
(603,222,l),
(604,244,l),
(611,432,o),
(492,552,o),
(325,552,cs),
(149,552,o),
(33,439,o),
(33,270,cs),
(33,100,o),
(149,-12,o),
(325,-12,cs)
);
},
{
closed = 1;
nodes = (
(240,383,o),
(275,419,o),
(325,419,cs),
(371,419,o),
(407,387,o),
(411,325,c),
(236,325,l)
);
}
);
};
layerId = "3507EE3D-0D92-4546-A145-3A991F0A2B71";
shapes = (
{
closed = 1;
nodes = (
(461,-12,o),
(566,48,o),
(596,164,c),
(404,174,l),
(392,137,o),
(363,124,o),
(325,124,cs),
(271,124,o),
(234,155,o),
(232,220,c),
(603,220,l),
(603,254,ls),
(603,436,o),
(495,552,o),
(321,552,cs),
(147,552,o),
(32,439,o),
(32,270,cs),
(32,100,o),
(147,-12,o),
(321,-12,cs)
);
},
{
closed = 1;
nodes = (
(236,383,o),
(271,420,o),
(321,420,cs),
(373,420,o),
(407,387,o),
(409,324,c),
(232,324,l)
);
}
);
width = 635;
},
{
anchors = (
{
name = bottom;
pos = (287,0);
},
{
name = ogonek;
pos = (416,24);
},
{
name = top;
pos = (287,528);
}
);
background = {
anchors = (
{
name = bottom;
pos = (290,0);
},
{
name = ogonek;
pos = (365,0);
},
{
name = top;
pos = (290,528);
}
);
shapes = (
{
closed = 1;
nodes = (
(391,-12,o),
(481,50,o),
(512,150,c),
(422,157,l),
(398,101,o),
(346,68,o),
(290,68,cs),
(199,68,o),
(144,131,o),
(136,239,c),
(520,239,l),
(519,277,l),
(511,465,o),
(407,542,o),
(290,542,cs),
(142,542,o),
(47,433,o),
(47,265,cs),
(47,97,o),
(142,-12,o),
(290,-12,cs)
);
},
{
closed = 1;
nodes = (
(152,407,o),
(206,462,o),
(290,462,cs),
(354,462,o),
(414,424,o),
(428,313,c),
(138,313,l)
);
}
);
};
layerId = "6C190511-B94A-4F5A-B519-D6E9DB0E7B93";
shapes = (
{
closed = 1;
nodes = (
(399,-12,o),
(481,55,o),
(509,150,c),
(419,157,l),
(401,103,o),
(356,68,o),
(287,68,cs),
(195,68,o),
(138,125,o),
(132,239,c),
(517,239,l),
(517,264,ls),
(517,442,o),
(421,542,o),
(283,542,cs),
(137,542,o),
(44,433,o),
(44,265,cs),
(44,97,o),
(137,-12,o),
(287,-12,cs)
);
},
{
closed = 1;
nodes = (
(146,411,o),
(201,462,o),
(283,462,cs),
(361,462,o),
(417,415,o),
(425,313,c),
(132,313,l)
);
}
);
width = 561;
}
);
metricLeft = o;
metricRight = o;
unicode = 101;
}
{
color = 4;
glyphname = f;
kernLeft = f;
kernRight = f;
layers = (
{
anchors = (
{
name = bottom;
pos = (182,0);
},
{
name = top;
pos = (182,710);
}
);
background = {
shapes = (
{
closed = 1;
nodes = (
(186,0,l),
(186,603,ls),
(186,653,o),
(216,683,o),
(264,683,cs),
(329,683,l),
(329,710,l),
(268,710,ls),
(199,710,o),
(156,667,o),
(156,598,cs),
(156,0,l)
);
},
{
closed = 1;
nodes = (
(329,500,l),
(329,530,l),
(75,530,l),
(75,500,l)
);
}
);
};
layerId = "EE2FFE84-06F1-4AFB-BBEC-60D09A436D14";
shapes = (
{
closed = 1;
nodes = (
(176,0,l),
(176,597,ls),
(176,650,o),
(200,682,o),
(264,682,cs),
(319,682,l),
(319,710,l),
(260,710,ls),
(185,710,o),
(146,669,o),
(146,600,cs),
(146,0,l)
);
},
{
closed = 1;
nodes = (
(319,502,l),
(319,530,l),
(65,530,l),
(65,502,l)
);
}
);
width = 364;
},
{
anchors = (
{
name = bottom;
pos = (241,0);
},
{
name = top;
pos = (241,710);
}
);
background = {
shapes = (
{
closed = 1;
nodes = (
(323,0,l),
(323,514,ls),
(323,550,o),
(344,573,o),
(377,573,c),
(464,573,l),
(464,710,l),
(338,710,l),
(192,710,o),
(128,647,o),
(128,514,c),
(128,0,l)
);
},
{
closed = 1;
nodes = (
(455,356,l),
(455,493,l),
(46,493,l),
(46,356,l)
);
}
);
};
layerId = "3507EE3D-0D92-4546-A145-3A991F0A2B71";
shapes = (
{
closed = 1;
nodes = (
(313,0,l),
(313,512,ls),
(313,554,o),
(328,573,o),
(370,573,cs),
(454,573,l),
(454,710,l),
(320,710,ls),
(182,710,o),
(118,644,o),
(118,520,cs),
(118,0,l)
);
},
{
closed = 1;
nodes = (
(446,369,l),
(446,506,l),
(36,506,l),
(36,369,l)
);
}
);
width = 481;
},
{
anchors = (
{
name = bottom;
pos = (199,0);
},
{
name = top;
pos = (199,710);
}
);
background = {
shapes = (
{
closed = 1;
nodes = (
(226,0,l),
(226,564,ls),
(226,609,o),
(250,636,o),
(284,636,cs),
(366,636,l),
(366,710,l),
(284,710,ls),
(186,710,o),
(142,653,o),
(142,564,cs),
(142,0,l)
);
},
{
closed = 1;
nodes = (
(359,456,l),
(359,530,l),
(70,530,l),
(70,456,l)
);
}
);
};
layerId = "6C190511-B94A-4F5A-B519-D6E9DB0E7B93";
shapes = (
{
closed = 1;
nodes = (
(216,0,l),
(216,572,ls),
(216,612,o),
(236,636,o),
(278,636,cs),
(356,636,l),
(356,710,l),
(272,710,ls),
(176,710,o),
(132,656,o),
(132,578,cs),
(132,0,l)
);
},
{
closed = 1;
nodes = (
(349,456,l),
(349,530,l),
(60,530,l),
(60,456,l)
);
}
);
width = 395;
},
{
anchors = (
{
name = bottom;
pos = (233,0);
},
{
name = top;
pos = (233,710);
}
);
associatedMasterId = "3507EE3D-0D92-4546-A145-3A991F0A2B71";
attr = {
coordinates = (
801
);
};
background = {
shapes = (
{
closed = 1;
nodes = (
(325,0,l),
(325,514,ls),
(325,550,o),
(346,573,o),
(379,573,c),
(466,573,l),
(466,710,l),
(340,710,l),
(194,710,o),
(130,647,o),
(130,514,c),
(130,0,l)
);
},
{
closed = 1;
nodes = (
(457,356,l),
(457,493,l),
(48,493,l),
(48,356,l)
);
}
);
};
layerId = "BD084854-7DCF-445A-ABC6-3A47EF04C351";
name = "7 Aug 25 at 15:48";
shapes = (
{
closed = 1;
nodes = (
(294,0,l),
(294,524,ls),
(294,565,o),
(310,585,o),
(352,585,cs),
(435,585,l),
(435,710,l),
(310,710,ls),
(181,710,o),
(121,646,o),
(121,531,cs),
(121,0,l)
);
},
{
closed = 1;
nodes = (
(427,413,l),
(427,538,l),
(41,538,l),
(41,413,l)
);
}
);
width = 464;
}
);
metricLeft = "=n-20";
metricRight = "=r-5";
unicode = 102;
}
{
color = 4;
glyphname = g;
kernLeft = o;
kernRight = u;
layers = (
{
anchors = (
{
name = bottom;
pos = (272,-150);
},
{
name = top;
pos = (271,530);
}
);
background = {
anchors = (
{
name = top;
pos = (271,530);
}
);
shapes = (
{
closed = 1;
nodes = (
(404,-163,o),
(485,-78,o),
(485,57,cs),
(485,530,l),
(455,530,l),
(455,402,l),
(427,482,o),
(351,539,o),
(271,539,cs),
(135,539,o),
(50,441,o),
(50,285,cs),
(50,125,o),
(135,25,o),
(271,25,cs),
(349,25,o),
(421,78,o),
(455,159,c),
(455,57,ls),
(455,-59,o),
(385,-133,o),
(276,-133,cs),
(182,-133,o),
(113,-80,o),
(108,-4,c),
(76,-6,l),
(76,-94,o),
(164,-163,o),
(276,-163,cs)
);
},
{
closed = 1;
nodes = (
(155,55,o),
(82,144,o),
(82,285,cs),
(82,423,o),
(155,509,o),
(271,509,cs),
(381,509,o),
(458,417,o),
(458,285,cs),
(458,150,o),
(381,55,o),
(271,55,cs)
);
}
);
};
layerId = "EE2FFE84-06F1-4AFB-BBEC-60D09A436D14";
shapes = (
{
closed = 1;
nodes = (
(404,-162,o),
(485,-80,o),
(485,55,cs),
(485,530,l),
(455,530,l),
(455,402,l),
(427,482,o),
(361,542,o),
(269,542,cs),
(135,542,o),
(50,441,o),
(50,285,cs),
(50,125,o),
(135,25,o),
(269,25,cs),
(359,25,o),
(423,79,o),
(455,159,c),
(455,57,ls),
(455,-63,o),
(387,-132,o),
(272,-132,cs),
(174,-132,o),
(112,-80,o),
(108,-4,c),
(76,-6,l),
(80,-96,o),
(161,-162,o),
(272,-162,cs)
);
},
{
closed = 1;
nodes = (
(155,55,o),
(82,144,o),
(82,285,cs),
(82,423,o),
(155,512,o),
(269,512,cs),
(381,512,o),
(455,415,o),
(455,285,cs),
(455,144,o),
(381,55,o),
(269,55,cs)
);
}
);
width = 570;
},
{
anchors = (
{
name = bottom;
pos = (323,-150);
},
{
name = top;
pos = (327,540);
}
);
background = {
anchors = (
{
name = top;
pos = (328,540);
}
);
shapes = (
{
closed = 1;
nodes = (
(487,-164,o),
(605,-71,o),
(605,73,cs),
(605,540,l),
(412,540,l),
(412,458,l),
(381,518,o),
(325,552,o),
(260,552,cs),
(122,552,o),
(33,442,o),
(33,276,cs),
(33,123,o),
(122,23,o),
(260,23,cs),
(323,23,o),
(384,53,o),
(409,99,c),
(409,60,ls),
(409,-11,o),
(379,-44,o),
(323,-44,cs),
(285,-44,o),
(255,-26,o),
(246,-1,c),
(50,-14,l),
(84,-106,o),
(189,-164,o),
(320,-164,cs)
);
},
{
closed = 1;
nodes = (
(271,140,o),
(231,196,o),
(231,278,cs),
(231,362,o),
(268,416,o),
(325,416,cs),
(382,416,o),
(418,362,o),
(418,278,cs),
(418,196,o),
(381,140,o),
(325,140,cs)
);
}
);
};
layerId = "3507EE3D-0D92-4546-A145-3A991F0A2B71";
shapes = (
{
closed = 1;
nodes = (
(484,-162,o),
(604,-93,o),
(604,64,cs),
(604,540,l),
(412,540,l),
(412,458,l),
(382,514,o),
(334,552,o),
(253,552,cs),
(123,552,o),
(32,442,o),
(32,286,cs),
(32,123,o),
(123,23,o),
(253,23,cs),
(322,23,o),
(383,53,o),
(408,99,c),
(408,60,ls),
(408,-12,o),
(377,-40,o),
(323,-40,cs),
(273,-40,o),
(255,-26,o),
(247,0,c),
(49,-14,l),
(75,-100,o),
(143,-162,o),
(323,-162,cs)
);
},
{
closed = 1;
nodes = (
(267,154,o),
(231,207,o),
(231,288,cs),
(231,368,o),
(265,422,o),
(322,422,cs),
(377,422,o),
(410,372,o),
(410,288,cs),
(410,202,o),
(376,154,o),
(322,154,cs)
);
}
);
width = 660;
},
{
anchors = (
{
name = bottom;
pos = (281,-150);
},
{
name = top;
pos = (283,530);
}
);
background = {
anchors = (
{
name = top;
pos = (286,530);
}
);
shapes = (
{
closed = 1;
nodes = (
(421,-162,o),
(517,-88,o),
(517,52,cs),
(517,530,l),
(437,530,l),
(437,446,l),
(413,505,o),
(352,542,o),
(280,542,cs),
(143,542,o),
(47,436,o),
(47,285,cs),
(47,134,o),
(144,28,o),
(281,28,cs),
(348,28,o),
(407,64,o),
(433,120,c),
(433,33,ls),
(433,-42,o),
(376,-82,o),
(283,-82,cs),
(217,-82,o),
(171,-52,o),
(150,-2,c),
(62,-8,l),
(86,-101,o),
(170,-162,o),
(283,-162,cs)
);
},
{
closed = 1;
nodes = (
(193,108,o),
(135,176,o),
(135,285,cs),
(135,394,o),
(193,462,o),
(286,462,cs),
(378,462,o),
(436,394,o),
(434,285,cs),
(433,176,o),
(375,108,o),
(286,108,cs)
);
}
);
};
layerId = "6C190511-B94A-4F5A-B519-D6E9DB0E7B93";
shapes = (
{
closed = 1;
nodes = (
(427,-162,o),
(514,-88,o),
(514,36,cs),
(514,530,l),
(434,530,l),
(434,446,l),
(410,505,o),
(345,542,o),
(271,542,cs),
(138,542,o),
(44,436,o),
(44,285,cs),
(44,134,o),
(140,28,o),
(275,28,cs),
(344,28,o),
(404,64,o),
(430,120,c),
(430,34,ls),
(430,-44,o),
(377,-82,o),
(281,-82,cs),
(199,-82,o),
(163,-52,o),
(147,-2,c),
(59,-8,l),
(81,-101,o),
(167,-162,o),
(281,-162,cs)
);
},
{
closed = 1;
nodes = (
(188,108,o),
(132,176,o),
(132,285,cs),
(132,394,o),
(186,462,o),
(279,462,cs),
(371,462,o),
(432,394,o),
(430,285,cs),
(429,176,o),
(370,108,o),
(279,108,cs)
);
}
);
width = 594;
}
);
metricLeft = o;
metricRight = d;
unicode = 103;
}
{
color = 4;
glyphname = l;
kernLeft = l;
kernRight = l;
layers = (
{
anchors = (
{
name = bottom;
pos = (144,0);
},
{
name = center;
pos = (122,348);
},
{
name = top;
pos = (100,670);
},
{
name = topright;
pos = (165,530);
}
);
background = {
anchors = (
{
name = bottom;
pos = (144,0);
},
{
name = top;
pos = (100,710);
},
{
name = topright;
pos = (165,530);
}
);
shapes = (
{
closed = 1;
nodes = (
(203,0,l),
(203,27,l),
(171,27,l),
(135,27,o),
(115,46,o),
(115,80,cs),
(115,710,l),
(85,710,l),
(85,80,l),
(85,27,o),
(116,0,o),
(179,0,c)
);
}
);
};
layerId = "EE2FFE84-06F1-4AFB-BBEC-60D09A436D14";
shapes = (
{
closed = 1;
nodes = (
(203,0,l),
(203,28,l),
(171,28,ls),
(133,28,o),
(115,46,o),
(115,80,cs),
(115,710,l),
(85,710,l),
(85,80,ls),
(85,27,o),
(113,0,o),
(168,0,cs)
);
}
);
width = 237;
},
{
anchors = (
{
name = bottom;
pos = (196,0);
},
{
name = center;
pos = (177,380);
},
{
name = top;
pos = (153,700);
},
{
name = topright;
pos = (260,540);
}
);
background = {
anchors = (
{
name = bottom;
pos = (196,0);
},
{
name = top;
pos = (153,710);
},
{
name = topright;
pos = (260,530);
}
);
shapes = (
{
closed = 1;
nodes = (
(329,0,l),
(329,137,l),
(297,137,l),
(268,137,o),
(250,155,o),
(250,185,cs),
(250,710,l),
(56,710,l),
(56,177,l),
(56,61,o),
(126,0,o),
(233,0,c)
);
}
);
};
layerId = "3507EE3D-0D92-4546-A145-3A991F0A2B71";
shapes = (
{
closed = 1;
nodes = (
(329,0,l),
(329,137,l),
(300,137,ls),
(268,137,o),
(250,150,o),
(250,188,cs),
(250,710,l),
(56,710,l),
(56,166,ls),
(56,48,o),
(116,0,o),
(220,0,cs)
);
}
);
width = 343;
},
{
anchors = (
{
name = bottom;
pos = (165,0);
},
{
name = center;
pos = (121,405);
},
{
name = top;
pos = (122,670);
},
{
name = topright;
pos = (194,530);
}
);
background = {
anchors = (
{
name = bottom;
pos = (165,0);
},
{
name = top;
pos = (121,710);
},
{
name = topright;
pos = (194,530);
}
);
shapes = (
{
closed = 1;
nodes = (
(243,0,l),
(243,74,l),
(197,74,l),
(175,74,o),
(164,85,o),
(164,107,cs),
(164,710,l),
(80,710,l),
(80,103,l),
(80,42,o),
(122,0,o),
(184,0,c)
);
}
);
};
layerId = "6C190511-B94A-4F5A-B519-D6E9DB0E7B93";
shapes = (
{
closed = 1;
nodes = (
(243,0,l),
(243,74,l),
(197,74,ls),
(175,74,o),
(164,85,o),
(164,107,cs),
(164,710,l),
(80,710,l),
(80,100,ls),
(80,30,o),
(122,0,o),
(184,0,cs)
);
}
);
width = 267;
}
);
metricLeft = n;
unicode = 108;
}
{
color = 4;
glyphname = o;
kernLeft = o;
kernRight = o;
layers = (
{
anchors = (
{
name = bottom;
pos = (275,0);
},
{
name = center;
pos = (275,265);
},
{
name = top;
pos = (275,530);
}
);
background = {
anchors = (
{
name = bottom;
pos = (275,0);
},
{
name = top;
pos = (275,530);
}
);
shapes = (
{
closed = 1;
nodes = (
(413,-12,o),
(500,95,o),
(500,265,cs),
(500,435,o),
(413,542,o),
(275,542,cs),
(137,542,o),
(50,435,o),
(50,265,cs),
(50,95,o),
(137,-12,o),
(275,-12,cs)
);
},
{
closed = 1;
nodes = (
(156,18,o),
(82,113,o),
(82,265,cs),
(82,417,o),
(156,512,o),
(275,512,cs),
(394,512,o),
(468,417,o),
(468,265,cs),
(468,113,o),
(394,18,o),
(275,18,cs)
);
}
);
};
layerId = "EE2FFE84-06F1-4AFB-BBEC-60D09A436D14";
shapes = (
{
closed = 1;
nodes = (
(413,-12,o),
(500,95,o),
(500,265,cs),
(500,435,o),
(413,542,o),
(275,542,cs),
(137,542,o),
(50,435,o),
(50,265,cs),
(50,95,o),
(137,-12,o),
(275,-12,cs)
);
},
{
closed = 1;
nodes = (
(156,18,o),
(82,113,o),
(82,265,cs),
(82,417,o),
(156,512,o),
(275,512,cs),
(394,512,o),
(468,417,o),
(468,265,cs),
(468,113,o),
(394,18,o),
(275,18,cs)
);
}
);
width = 550;
},
{
anchors = (
{
name = bottom;
pos = (325,0);
},
{
name = center;
pos = (325,270);
},
{
name = top;
pos = (325,540);
}
);
background = {
anchors = (
{
name = bottom;
pos = (325,0);
},
{
name = top;
pos = (325,540);
}
);
shapes = (
{
closed = 1;
nodes = (
(501,-12,o),
(617,100,o),
(617,270,cs),
(617,439,o),
(501,552,o),
(325,552,cs),
(149,552,o),
(33,439,o),
(33,270,cs),
(33,100,o),
(149,-12,o),
(325,-12,cs)
);
},
{
closed = 1;
nodes = (
(265,127,o),
(232,178,o),
(232,270,cs),
(232,361,o),
(265,412,o),
(325,412,cs),
(385,412,o),
(418,361,o),
(418,270,cs),
(418,178,o),
(385,127,o),
(325,127,cs)
);
}
);
};
layerId = "3507EE3D-0D92-4546-A145-3A991F0A2B71";
shapes = (
{
closed = 1;
nodes = (
(501,-12,o),
(617,100,o),
(617,270,cs),
(617,439,o),
(501,552,o),
(325,552,cs),
(149,552,o),
(33,439,o),
(33,270,cs),
(33,100,o),
(149,-12,o),
(325,-12,cs)
);
},
{
closed = 1;
nodes = (
(265,127,o),
(232,178,o),
(232,270,cs),
(232,361,o),
(265,413,o),
(325,413,cs),
(385,413,o),
(418,361,o),
(418,270,cs),
(418,178,o),
(385,127,o),
(325,127,cs)
);
}
);
width = 650;
},
{
anchors = (
{
name = bottom;
pos = (290,0);
},
{
name = center;
pos = (290,265);
},
{
name = top;
pos = (290,530);
}
);
background = {
anchors = (
{
name = bottom;
pos = (290,0);
},
{
name = top;
pos = (290,530);
}
);
shapes = (
{
closed = 1;
nodes = (
(436,-12,o),
(532,96,o),
(532,265,cs),
(532,434,o),
(436,542,o),
(290,542,cs),
(143,542,o),
(47,434,o),
(47,265,cs),
(47,96,o),
(143,-12,o),
(290,-12,cs)
);
},
{
closed = 1;
nodes = (
(192,68,o),
(135,142,o),
(135,265,cs),
(135,388,o),
(192,462,o),
(290,462,cs),
(387,462,o),
(444,388,o),
(444,265,cs),
(444,142,o),
(387,68,o),
(290,68,cs)
);
}
);
};
layerId = "6C190511-B94A-4F5A-B519-D6E9DB0E7B93";
shapes = (
{
closed = 1;
nodes = (
(436,-12,o),
(532,96,o),
(532,265,cs),
(532,434,o),
(436,542,o),
(290,542,cs),
(143,542,o),
(47,434,o),
(47,265,cs),
(47,96,o),
(143,-12,o),
(290,-12,cs)
);
},
{
closed = 1;
nodes = (
(192,68,o),
(135,142,o),
(135,265,cs),
(135,388,o),
(192,462,o),
(290,462,cs),
(387,462,o),
(444,388,o),
(444,265,cs),
(444,142,o),
(387,68,o),
(290,68,cs)
);
}
);
width = 579;
}
);
unicode = 111;
}
{
color = 4;
glyphname = p;
kernLeft = n;
kernRight = o;
layers = (
{
anchors = (
{
name = bottom;
pos = (285,0);
},
{
name = top;
pos = (285,530);
}
);
background = {
shapes = (
{
closed = 1;
nodes = (
(115,-150,l),
(115,173,l),
(107,158,l),
(124,63,o),
(209,-9,o),
(299,-9,cs),
(435,-9,o),
(520,97,o),
(520,265,cs),
(520,435,o),
(435,542,o),
(299,542,cs),
(209,542,o),
(129,473,o),
(99,367,c),
(111,355,l),
(107,530,l),
(85,530,l),
(85,-150,l)
);
},
{
closed = 1;
nodes = (
(194,21,o),
(112,128,o),
(112,265,cs),
(112,404,o),
(194,513,o),
(299,513,cs),
(415,513,o),
(488,417,o),
(488,265,cs),
(488,115,o),
(415,21,o),
(299,21,cs)
);
}
);
};
layerId = "EE2FFE84-06F1-4AFB-BBEC-60D09A436D14";
shapes = (
{
closed = 1;
nodes = (
(115,-150,l),
(115,173,l),
(108,162,l),
(122,74,o),
(205,-12,o),
(305,-12,cs),
(437,-12,o),
(520,95,o),
(520,265,cs),
(520,435,o),
(437,542,o),
(303,542,cs),
(205,542,o),
(130,476,o),
(104,360,c),
(113,355,l),
(111,530,l),
(85,530,l),
(85,-150,l)
);
},
{
closed = 1;
nodes = (
(195,18,o),
(115,125,o),
(115,265,cs),
(115,405,o),
(193,512,o),
(303,512,cs),
(417,512,o),
(488,417,o),
(488,265,cs),
(488,113,o),
(418,18,o),
(305,18,cs)
);
}
);
width = 570;
},
{
anchors = (
{
name = bottom;
pos = (331,0);
},
{
name = top;
pos = (331,540);
}
);
background = {
shapes = (
{
closed = 1;
nodes = (
(250,-150,l),
(250,112,l),
(237,108,l),
(267,30,o),
(327,-12,o),
(402,-12,cs),
(546,-12,o),
(628,105,o),
(628,270,cs),
(628,435,o),
(546,552,o),
(402,552,cs),
(322,552,o),
(262,509,o),
(236,432,c),
(249,427,l),
(245,540,l),
(56,540,l),
(56,-150,l)
);
},
{
closed = 1;
nodes = (
(274,125,o),
(240,188,o),
(240,270,cs),
(240,348,o),
(273,414,o),
(335,414,cs),
(394,414,o),
(429,350,o),
(429,270,cs),
(429,188,o),
(397,125,o),
(335,125,cs)
);
}
);
};
layerId = "3507EE3D-0D92-4546-A145-3A991F0A2B71";
shapes = (
{
closed = 1;
nodes = (
(250,-150,l),
(250,112,l),
(237,108,l),
(261,34,o),
(326,-12,o),
(402,-12,cs),
(546,-12,o),
(628,105,o),
(628,270,cs),
(628,435,o),
(548,552,o),
(404,552,cs),
(324,552,o),
(262,509,o),
(236,432,c),
(249,427,l),
(245,540,l),
(56,540,l),
(56,-150,l)
);
},
{
closed = 1;
nodes = (
(282,127,o),
(250,176,o),
(250,270,cs),
(250,364,o),
(283,413,o),
(339,413,cs),
(395,413,o),
(429,358,o),
(429,270,cs),
(429,182,o),
(395,127,o),
(339,127,cs)
);
}
);
width = 660;
},
{
anchors = (
{
name = bottom;
pos = (299,0);
},
{
name = top;
pos = (299,530);
}
);
background = {
shapes = (
{
closed = 1;
nodes = (
(164,-150,l),
(164,114,l),
(152,100,l),
(177,27,o),
(237,-12,o),
(322,-12,cs),
(480,-12,o),
(551,119,o),
(551,265,cs),
(551,411,o),
(480,542,o),
(322,542,cs),
(237,542,o),
(177,503,o),
(151,433,c),
(160,416,l),
(156,530,l),
(80,530,l),
(80,-150,l)
);
},
{
closed = 1;
nodes = (
(200,68,o),
(155,166,o),
(155,265,cs),
(155,364,o),
(200,462,o),
(308,462,cs),
(417,462,o),
(461,366,o),
(461,265,cs),
(461,164,o),
(417,68,o),
(308,68,cs)
);
}
);
};
layerId = "6C190511-B94A-4F5A-B519-D6E9DB0E7B93";
shapes = (
{
closed = 1;
nodes = (
(164,-150,l),
(164,114,l),
(152,100,l),
(170,32,o),
(240,-12,o),
(322,-12,cs),
(480,-12,o),
(551,119,o),
(551,265,cs),
(551,411,o),
(480,542,o),
(322,542,cs),
(240,542,o),
(174,500,o),
(148,422,c),
(160,416,l),
(158,530,l),
(80,530,l),
(80,-150,l)
);
},
{
closed = 1;
nodes = (
(221,68,o),
(164,135,o),
(164,265,cs),
(164,395,o),
(222,462,o),
(314,462,cs),
(406,462,o),
(463,389,o),
(463,265,cs),
(463,141,o),
(406,68,o),
(314,68,cs)
);
}
);
width = 595;
}
);
metricLeft = n;
metricRight = o;
unicode = 112;
}
{
color = 4;
glyphname = q;
kernLeft = o;
kernRight = u;
layers = (
{
anchors = (
{
name = bottom;
pos = (267,0);
},
{
name = top;
pos = (267,530);
}
);
background = {
shapes = (
{
pos = (569,0);
ref = p;
scale = (-1,1);
}
);
};
layerId = "EE2FFE84-06F1-4AFB-BBEC-60D09A436D14";
shapes = (
{
closed = 1;
nodes = (
(485,530,l),
(459,530,l),
(457,355,l),
(466,360,l),
(440,476,o),
(365,542,o),
(267,542,cs),
(133,542,o),
(50,435,o),
(50,265,cs),
(50,95,o),
(133,-12,o),
(265,-12,cs),
(365,-12,o),
(448,74,o),
(462,162,c),
(455,173,l),
(455,-150,l),
(485,-150,l)
);
},
{
closed = 1;
nodes = (
(152,18,o),
(82,113,o),
(82,265,cs),
(82,417,o),
(153,512,o),
(267,512,cs),
(377,512,o),
(455,405,o),
(455,265,cs),
(455,125,o),
(375,18,o),
(265,18,cs)
);
}
);
width = 570;
},
{
anchors = (
{
name = bottom;
pos = (321,0);
},
{
name = top;
pos = (321,540);
}
);
background = {
shapes = (
{
alignment = -1;
pos = (660,0);
ref = p;
scale = (-1,1);
}
);
};
layerId = "3507EE3D-0D92-4546-A145-3A991F0A2B71";
shapes = (
{
closed = 1;
nodes = (
(604,540,l),
(415,540,l),
(411,427,l),
(424,432,l),
(398,509,o),
(336,552,o),
(256,552,cs),
(112,552,o),
(32,435,o),
(32,270,cs),
(32,105,o),
(114,-12,o),
(258,-12,cs),
(334,-12,o),
(399,34,o),
(423,108,c),
(410,112,l),
(410,-150,l),
(604,-150,l)
);
},
{
closed = 1;
nodes = (
(265,127,o),
(231,182,o),
(231,270,cs),
(231,358,o),
(265,413,o),
(321,413,cs),
(377,413,o),
(410,364,o),
(410,270,cs),
(410,176,o),
(378,127,o),
(321,127,cs)
);
}
);
width = 660;
},
{
anchors = (
{
name = bottom;
pos = (282,0);
},
{
name = top;
pos = (282,530);
}
);
background = {
shapes = (
{
alignment = -1;
pos = (597,0);
ref = p;
scale = (-1,1);
}
);
};
layerId = "6C190511-B94A-4F5A-B519-D6E9DB0E7B93";
shapes = (
{
closed = 1;
nodes = (
(515,530,l),
(437,530,l),
(435,416,l),
(447,422,l),
(421,500,o),
(355,542,o),
(273,542,cs),
(115,542,o),
(44,411,o),
(44,265,cs),
(44,119,o),
(115,-12,o),
(273,-12,cs),
(355,-12,o),
(425,32,o),
(443,100,c),
(431,114,l),
(431,-150,l),
(515,-150,l)
);
},
{
closed = 1;
nodes = (
(189,68,o),
(132,141,o),
(132,265,cs),
(132,389,o),
(189,462,o),
(281,462,cs),
(373,462,o),
(431,395,o),
(431,265,cs),
(431,135,o),
(374,68,o),
(281,68,cs)
);
}
);
width = 595;
}
);
metricLeft = o;
metricRight = "=|n";
unicode = 113;
}
{
color = 4;
glyphname = r;
kernLeft = n;
kernRight = r;
layers = (
{
anchors = (
{
name = bottom;
pos = (100,0);
},
{
name = top;
pos = (179,530);
}
);
background = {
anchors = (
{
name = bottom;
pos = (100,0);
},
{
name = top;
pos = (179,530);
}
);
shapes = (
{
closed = 1;
nodes = (
(115,0,l),
(115,316,ls),
(115,421,o),
(173,503,o),
(259,503,cs),
(293,503,l),
(293,530,l),
(259,530,ls),
(176,530,o),
(125,472,o),
(100,370,c),
(112,360,l),
(107,530,l),
(85,530,l),
(85,0,l)
);
}
);
};
layerId = "EE2FFE84-06F1-4AFB-BBEC-60D09A436D14";
shapes = (
{
closed = 1;
nodes = (
(115,0,l),
(115,328,ls),
(115,418,o),
(172,498,o),
(250,498,cs),
(293,498,l),
(293,530,l),
(258,530,ls),
(169,530,o),
(126,476,o),
(102,372,c),
(114,364,l),
(109,530,l),
(85,530,l),
(85,0,l)
);
}
);
width = 343;
},
{
anchors = (
{
name = bottom;
pos = (153,0);
},
{
name = top;
pos = (255,540);
}
);
background = {
anchors = (
{
name = bottom;
pos = (153,0);
},
{
name = top;
pos = (255,540);
}
);
shapes = (
{
closed = 1;
nodes = (
(250,0,l),
(250,286,ls),
(250,365,o),
(284,402,o),
(375,402,cs),
(423,402,l),
(423,540,l),
(377,540,ls),
(297,540,o),
(254,481,o),
(237,373,c),
(250,370,l),
(245,540,l),
(56,540,l),
(56,0,l)
);
}
);
};
layerId = "3507EE3D-0D92-4546-A145-3A991F0A2B71";
shapes = (
{
closed = 1;
nodes = (
(250,0,l),
(250,289,ls),
(250,364,o),
(289,386,o),
(375,386,cs),
(423,386,l),
(423,540,l),
(377,540,ls),
(297,540,o),
(256,492,o),
(236,372,c),
(250,370,l),
(244,540,l),
(56,540,l),
(56,0,l)
);
}
);
width = 455;
},
{
anchors = (
{
name = bottom;
pos = (122,0);
},
{
name = top;
pos = (196,530);
}
);
background = {
anchors = (
{
name = bottom;
pos = (122,0);
},
{
name = top;
pos = (196,530);
}
);
shapes = (
{
closed = 1;
nodes = (
(164,0,l),
(164,316,ls),
(164,407,o),
(202,456,o),
(283,456,cs),
(335,456,l),
(335,530,l),
(283,530,ls),
(203,530,o),
(163,489,o),
(150,399,c),
(158,391,l),
(154,530,l),
(80,530,l),
(80,0,l)
);
}
);
};
layerId = "6C190511-B94A-4F5A-B519-D6E9DB0E7B93";
shapes = (
{
closed = 1;
nodes = (
(164,0,l),
(164,320,ls),
(164,407,o),
(204,450,o),
(284,450,cs),
(335,450,l),
(335,530,l),
(283,530,ls),
(208,530,o),
(163,489,o),
(150,399,c),
(158,396,l),
(154,530,l),
(80,530,l),
(80,0,l)
);
}
);
width = 379;
}
);
metricLeft = n;
metricRight = o;
unicode = 114;
}
{
color = 4;
glyphname = s;
kernLeft = o;
kernRight = o;
layers = (
{
anchors = (
{
name = bottom;
pos = (262,0);
},
{
name = top;
pos = (248,530);
}
);
background = {
anchors = (
{
name = bottom;
pos = (262,0);
},
{
name = top;
pos = (252,530);
}
);
shapes = (
{
closed = 1;
nodes = (
(382,-12,o),
(458,40,o),
(458,130,cs),
(458,204,o),
(393,239,o),
(263,272,cs),
(145,304,o),
(103,338,o),
(100,392,cs),
(96,462,o),
(155,512,o),
(243,512,cs),
(333,512,o),
(398,461,o),
(412,379,c),
(443,385,l),
(428,477,o),
(349,542,o),
(252,542,cs),
(140,542,o),
(64,480,o),
(68,392,cs),
(71,321,o),
(125,283,o),
(248,246,cs),
(318,225,o),
(426,208,o),
(426,130,cs),
(426,55,o),
(362,18,o),
(261,18,cs),
(160,18,o),
(81,80,o),
(81,159,c),
(50,155,l),
(51,61,o),
(144,-12,o),
(261,-12,cs)
);
}
);
};
layerId = "EE2FFE84-06F1-4AFB-BBEC-60D09A436D14";
shapes = (
{
closed = 1;
nodes = (
(388,-12,o),
(458,38,o),
(458,130,cs),
(458,208,o),
(412,249,o),
(262,273,cs),
(132,294,o),
(100,320,o),
(100,390,cs),
(100,468,o),
(158,512,o),
(248,512,cs),
(348,512,o),
(402,449,o),
(412,379,c),
(443,385,l),
(427,471,o),
(362,542,o),
(248,542,cs),
(140,542,o),
(68,482,o),
(68,390,cs),
(68,312,o),
(100,272,o),
(248,246,cs),
(404,219,o),
(426,186,o),
(426,128,cs),
(426,56,o),
(371,18,o),
(265,18,cs),
(155,18,o),
(85,75,o),
(81,159,c),
(50,155,l),
(56,61,o),
(135,-12,o),
(265,-12,cs)
);
}
);
width = 508;
},
{
anchors = (
{
name = bottom;
pos = (310,0);
},
{
name = top;
pos = (307,540);
}
);
background = {
anchors = (
{
name = bottom;
pos = (311,0);
},
{
name = top;
pos = (310,530);
}
);
shapes = (
{
closed = 1;
nodes = (
(472,-12,o),
(572,51,o),
(572,152,cs),
(572,251,o),
(504,299,o),
(326,325,cs),
(269,333,o),
(247,345,o),
(245,371,cs),
(242,400,o),
(265,419,o),
(306,419,cs),
(343,419,o),
(374,396,o),
(380,352,c),
(572,358,l),
(555,472,o),
(454,543,o),
(310,543,cs),
(148,543,o),
(46,477,o),
(46,373,cs),
(46,278,o),
(111,230,o),
(282,200,cs),
(327,191,o),
(372,186,o),
(373,153,cs),
(375,125,o),
(343,112,o),
(311,112,cs),
(264,112,o),
(235,134,o),
(227,177,c),
(33,170,l),
(42,58,o),
(150,-12,o),
(314,-12,cs)
);
}
);
};
layerId = "3507EE3D-0D92-4546-A145-3A991F0A2B71";
shapes = (
{
closed = 1;
nodes = (
(475,-12,o),
(571,47,o),
(571,156,cs),
(571,254,o),
(503,306,o),
(325,329,cs),
(264,337,o),
(244,350,o),
(244,380,cs),
(244,410,o),
(269,428,o),
(307,428,cs),
(348,428,o),
(375,402,o),
(379,352,c),
(571,358,l),
(559,476,o),
(475,552,o),
(309,552,cs),
(130,552,o),
(45,482,o),
(45,374,cs),
(45,274,o),
(99,233,o),
(281,204,cs),
(357,192,o),
(372,178,o),
(372,151,cs),
(372,125,o),
(351,112,o),
(310,112,cs),
(261,112,o),
(235,132,o),
(227,175,c),
(32,170,l),
(40,64,o),
(127,-12,o),
(309,-12,cs)
);
}
);
width = 603;
},
{
anchors = (
{
name = bottom;
pos = (265,0);
},
{
name = top;
pos = (257,530);
}
);
background = {
anchors = (
{
name = bottom;
pos = (268,0);
},
{
name = top;
pos = (265,530);
}
);
shapes = (
{
closed = 1;
nodes = (
(377,-12,o),
(483,32,o),
(483,135,cs),
(483,240,o),
(395,273,o),
(275,296,cs),
(217,308,o),
(148,329,o),
(148,381,cs),
(148,432,o),
(196,462,o),
(255,462,cs),
(314,462,o),
(373,426,o),
(385,366,c),
(473,372,l),
(456,475,o),
(369,542,o),
(264,542,cs),
(142,542,o),
(60,478,o),
(60,377,cs),
(60,274,o),
(163,246,o),
(260,224,cs),
(320,210,o),
(395,203,o),
(395,140,cs),
(395,85,o),
(328,68,o),
(276,68,cs),
(197,68,o),
(146,109,o),
(135,173,c),
(47,167,l),
(55,57,o),
(151,-12,o),
(276,-12,cs)
);
}
);
};
layerId = "6C190511-B94A-4F5A-B519-D6E9DB0E7B93";
shapes = (
{
closed = 1;
nodes = (
(390,-12,o),
(480,44,o),
(480,142,cs),
(480,226,o),
(435,268,o),
(273,296,cs),
(179,312,o),
(145,332,o),
(145,384,cs),
(145,429,o),
(180,462,o),
(256,462,cs),
(328,462,o),
(370,422,o),
(382,366,c),
(470,372,l),
(454,464,o),
(386,542,o),
(257,542,cs),
(129,542,o),
(57,474,o),
(57,380,cs),
(57,296,o),
(105,249,o),
(257,222,cs),
(371,202,o),
(392,184,o),
(392,142,cs),
(392,90,o),
(345,68,o),
(273,68,cs),
(183,68,o),
(142,109,o),
(132,173,c),
(44,167,l),
(52,63,o),
(131,-12,o),
(273,-12,cs)
);
}
);
width = 524;
}
);
metricLeft = o;
metricRight = o;
unicode = 115;
}
{
color = 4;
glyphname = t;
kernLeft = t;
kernRight = t;
layers = (
{
anchors = (
{
name = bottom;
pos = (227,0);
},
{
name = center;
pos = (186,325);
},
{
name = top;
pos = (176,530);
},
{
name = topright;
pos = (312,530);
}
);
background = {
anchors = (
{
name = bottom;
pos = (227,0);
},
{
name = center;
pos = (176,265);
},
{
name = top;
pos = (176,530);
},
{
name = topright;
pos = (203,607);
}
);
shapes = (
{
closed = 1;
nodes = (
(312,0,l),
(312,27,l),
(256,27,ls),
(209,27,o),
(183,56,o),
(183,107,cs),
(183,654,l),
(153,654,l),
(153,107,ls),
(153,41,o),
(193,0,o),
(256,0,cs)
);
},
{
closed = 1;
nodes = (
(312,500,l),
(312,530,l),
(60,530,l),
(60,500,l)
);
}
);
};
layerId = "EE2FFE84-06F1-4AFB-BBEC-60D09A436D14";
shapes = (
{
closed = 1;
nodes = (
(312,0,l),
(312,28,l),
(256,28,ls),
(208,28,o),
(183,48,o),
(183,102,cs),
(183,654,l),
(153,654,l),
(153,100,ls),
(153,34,o),
(186,0,o),
(254,0,cs)
);
},
{
closed = 1;
nodes = (
(312,502,l),
(312,530,l),
(60,530,l),
(60,502,l)
);
}
);
width = 352;
},
{
anchors = (
{
name = bottom;
pos = (280,0);
},
{
name = center;
pos = (238,278);
},
{
name = top;
pos = (241,540);
},
{
name = topright;
pos = (458,540);
}
);
background = {
anchors = (
{
name = bottom;
pos = (271,0);
},
{
name = center;
pos = (241,270);
},
{
name = top;
pos = (241,540);
},
{
name = topright;
pos = (328,678);
}
);
shapes = (
{
closed = 1;
nodes = (
(458,0,l),
(458,137,l),
(373,137,l),
(338,137,o),
(318,160,o),
(318,197,cs),
(318,667,l),
(123,667,l),
(123,197,l),
(123,63,o),
(189,0,o),
(320,0,c)
);
},
{
closed = 1;
nodes = (
(455,403,l),
(455,540,l),
(31,540,l),
(31,403,l)
);
}
);
};
layerId = "3507EE3D-0D92-4546-A145-3A991F0A2B71";
shapes = (
{
closed = 1;
nodes = (
(458,0,l),
(458,137,l),
(384,137,ls),
(339,137,o),
(317,152,o),
(317,206,cs),
(317,667,l),
(123,667,l),
(123,178,ls),
(123,54,o),
(177,0,o),
(298,0,cs)
);
},
{
closed = 1;
nodes = (
(458,403,l),
(458,540,l),
(31,540,l),
(31,403,l)
);
}
);
width = 481;
},
{
anchors = (
{
name = bottom;
pos = (234,0);
},
{
name = center;
pos = (203,290);
},
{
name = top;
pos = (198,530);
},
{
name = topright;
pos = (358,530);
}
);
background = {
anchors = (
{
name = bottom;
pos = (234,0);
},
{
name = center;
pos = (198,265);
},
{
name = top;
pos = (198,530);
},
{
name = topright;
pos = (226,616);
}
);
shapes = (
{
closed = 1;
nodes = (
(356,0,l),
(356,74,l),
(280,74,ls),
(238,74,o),
(217,97,o),
(217,141,cs),
(217,654,l),
(133,654,l),
(133,141,ls),
(133,51,o),
(185,0,o),
(280,0,cs)
);
},
{
closed = 1;
nodes = (
(358,456,l),
(358,530,l),
(55,530,l),
(55,456,l)
);
}
);
};
layerId = "6C190511-B94A-4F5A-B519-D6E9DB0E7B93";
shapes = (
{
closed = 1;
nodes = (
(358,0,l),
(358,74,l),
(282,74,ls),
(238,74,o),
(217,90,o),
(217,138,cs),
(217,654,l),
(133,654,l),
(133,136,ls),
(133,42,o),
(178,0,o),
(274,0,cs)
);
},
{
closed = 1;
nodes = (
(358,456,l),
(358,530,l),
(55,530,l),
(55,456,l)
);
}
);
width = 395;
}
);
metricLeft = "=f-5";
metricRight = c;
unicode = 116;
}
{
color = 4;
glyphname = u;
kernLeft = u;
kernRight = u;
layers = (
{
anchors = (
{
name = bottom;
pos = (278,0);
},
{
name = ogonek;
pos = (471,0);
},
{
name = top;
pos = (278,530);
}
);
background = {
anchors = (
{
name = bottom;
pos = (278,0);
},
{
name = ogonek;
pos = (471,0);
},
{
name = top;
pos = (278,530);
}
);
shapes = (
{
closed = 1;
nodes = (
(355,-12,o),
(438,36,o),
(445,145,c),
(440,145,l),
(443,0,l),
(471,0,l),
(471,530,l),
(441,530,l),
(441,213,ls),
(441,99,o),
(378,18,o),
(267,18,cs),
(158,18,o),
(115,98,o),
(115,213,cs),
(115,530,l),
(85,530,l),
(85,189,ls),
(85,77,o),
(144,-12,o),
(259,-12,cs)
);
}
);
};
layerId = "EE2FFE84-06F1-4AFB-BBEC-60D09A436D14";
shapes = (
{
closed = 1;
nodes = (
(366,-12,o),
(436,46,o),
(447,145,c),
(442,145,l),
(445,0,l),
(471,0,l),
(471,530,l),
(441,530,l),
(441,213,ls),
(441,94,o),
(373,18,o),
(267,18,cs),
(169,18,o),
(115,81,o),
(115,202,cs),
(115,530,l),
(85,530,l),
(85,189,ls),
(85,63,o),
(153,-12,o),
(259,-12,cs)
);
}
);
width = 556;
},
{
anchors = (
{
name = bottom;
pos = (313,0);
},
{
name = ogonek;
pos = (573,0);
},
{
name = top;
pos = (313,540);
}
);
background = {
anchors = (
{
name = bottom;
pos = (313,0);
},
{
name = ogonek;
pos = (573,0);
},
{
name = top;
pos = (313,540);
}
);
shapes = (
{
closed = 1;
nodes = (
(328,-12,o),
(402,28,o),
(415,167,c),
(390,170,l),
(398,0,l),
(573,0,l),
(573,540,l),
(379,540,l),
(379,259,ls),
(379,182,o),
(360,137,o),
(311,137,cs),
(259,137,o),
(250,182,o),
(250,259,cs),
(250,540,l),
(56,540,l),
(56,192,ls),
(56,61,o),
(129,-12,o),
(239,-12,cs)
);
}
);
};
layerId = "3507EE3D-0D92-4546-A145-3A991F0A2B71";
shapes = (
{
closed = 1;
nodes = (
(343,-12,o),
(403,47,o),
(414,168,c),
(392,170,l),
(399,0,l),
(573,0,l),
(573,540,l),
(379,540,l),
(379,246,ls),
(379,168,o),
(354,137,o),
(308,137,cs),
(268,137,o),
(250,166,o),
(250,236,cs),
(250,540,l),
(56,540,l),
(56,192,ls),
(56,62,o),
(120,-12,o),
(234,-12,cs)
);
}
);
width = 629;
},
{
anchors = (
{
name = bottom;
pos = (284,0);
},
{
name = ogonek;
pos = (495,0);
},
{
name = top;
pos = (284,530);
}
);
background = {
anchors = (
{
name = bottom;
pos = (284,0);
},
{
name = ogonek;
pos = (495,0);
},
{
name = top;
pos = (284,530);
}
);
shapes = (
{
closed = 1;
nodes = (
(336,-12,o),
(405,29,o),
(425,120,c),
(415,131,l),
(415,0,l),
(495,0,l),
(495,530,l),
(411,530,l),
(411,214,ls),
(411,115,o),
(356,62,o),
(274,62,cs),
(197,62,o),
(164,115,o),
(164,214,cs),
(164,530,l),
(80,530,l),
(80,189,ls),
(80,77,o),
(138,-12,o),
(256,-12,cs)
);
}
);
};
layerId = "6C190511-B94A-4F5A-B519-D6E9DB0E7B93";
shapes = (
{
closed = 1;
nodes = (
(344,-12,o),
(407,37,o),
(428,124,c),
(415,131,l),
(415,0,l),
(495,0,l),
(495,530,l),
(411,530,l),
(411,214,ls),
(411,119,o),
(360,62,o),
(276,62,cs),
(200,62,o),
(164,109,o),
(164,212,cs),
(164,530,l),
(80,530,l),
(80,189,ls),
(80,63,o),
(148,-12,o),
(254,-12,cs)
);
}
);
width = 575;
}
);
metricLeft = n;
metricRight = n;
unicode = 117;
}
{
color = 4;
glyphname = v;
kernLeft = v;
kernRight = v;
layers = (
{
anchors = (
{
name = bottom;
pos = (241,0);
},
{
name = top;
pos = (241,530);
}
);
background = {
shapes = (
{
closed = 1;
nodes = (
(260,0,l),
(458,530,l),
(426,530,l),
(241,31,l),
(56,530,l),
(24,530,l),
(222,0,l)
);
}
);
};
layerId = "EE2FFE84-06F1-4AFB-BBEC-60D09A436D14";
shapes = (
{
closed = 1;
nodes = (
(260,0,l),
(458,530,l),
(426,530,l),
(241,28,l),
(56,530,l),
(24,530,l),
(222,0,l)
);
}
);
width = 482;
},
{
anchors = (
{
name = bottom;
pos = (328,0);
},
{
name = top;
pos = (328,540);
}
);
background = {
shapes = (
{
closed = 1;
nodes = (
(439,0,l),
(638,540,l),
(440,540,l),
(329,192,l),
(218,540,l),
(21,540,l),
(219,0,l)
);
}
);
};
layerId = "3507EE3D-0D92-4546-A145-3A991F0A2B71";
shapes = (
{
closed = 1;
nodes = (
(438,0,l),
(637,540,l),
(437,540,l),
(329,194,l),
(220,540,l),
(20,540,l),
(218,0,l)
);
}
);
width = 657;
},
{
anchors = (
{
name = bottom;
pos = (268,0);
},
{
name = top;
pos = (268,530);
}
);
background = {
shapes = (
{
closed = 1;
nodes = (
(321,0,l),
(514,530,l),
(424,530,l),
(268,88,l),
(112,530,l),
(22,530,l),
(215,0,l)
);
}
);
};
layerId = "6C190511-B94A-4F5A-B519-D6E9DB0E7B93";
shapes = (
{
closed = 1;
nodes = (
(321,0,l),
(514,530,l),
(422,530,l),
(268,86,l),
(114,530,l),
(22,530,l),
(215,0,l)
);
}
);
width = 536;
}
);
unicode = 118;
}
{
color = 4;
glyphname = w;
kernLeft = v;
kernRight = v;
layers = (
{
anchors = (
{
name = bottom;
pos = (389,0);
},
{
name = top;
pos = (389,530);
}
);
background = {
anchors = (
{
name = bottom;
pos = (389,0);
},
{
name = top;
pos = (389,530);
}
);
shapes = (
{
closed = 1;
nodes = (
(239,0,l),
(389,480,l),
(538,0,l),
(574,0,l),
(753,530,l),
(721,530,l),
(556,33,l),
(404,530,l),
(373,530,l),
(221,33,l),
(56,530,l),
(24,530,l),
(203,0,l)
);
}
);
};
layerId = "EE2FFE84-06F1-4AFB-BBEC-60D09A436D14";
shapes = (
{
closed = 1;
nodes = (
(239,0,l),
(389,484,l),
(538,0,l),
(574,0,l),
(753,530,l),
(721,530,l),
(556,30,l),
(404,530,l),
(374,530,l),
(221,30,l),
(56,530,l),
(24,530,l),
(203,0,l)
);
}
);
width = 777;
},
{
anchors = (
{
name = bottom;
pos = (435,0);
},
{
name = top;
pos = (435,540);
}
);
background = {
anchors = (
{
name = bottom;
pos = (436,0);
},
{
name = top;
pos = (436,540);
}
);
shapes = (
{
closed = 1;
nodes = (
(350,0,l),
(436,296,l),
(521,0,l),
(690,0,l),
(850,540,l),
(672,540,l),
(591,229,l),
(506,540,l),
(364,540,l),
(279,229,l),
(198,540,l),
(21,540,l),
(180,0,l)
);
}
);
};
layerId = "3507EE3D-0D92-4546-A145-3A991F0A2B71";
shapes = (
{
closed = 1;
nodes = (
(348,0,l),
(434,290,l),
(521,0,l),
(693,0,l),
(849,540,l),
(659,540,l),
(587,230,l),
(506,540,l),
(362,540,l),
(282,230,l),
(210,540,l),
(20,540,l),
(176,0,l)
);
}
);
width = 869;
},
{
anchors = (
{
name = bottom;
pos = (410,0);
},
{
name = top;
pos = (410,530);
}
);
background = {
anchors = (
{
name = bottom;
pos = (410,0);
},
{
name = top;
pos = (410,530);
}
);
shapes = (
{
closed = 1;
nodes = (
(291,0,l),
(409,403,l),
(527,0,l),
(633,0,l),
(797,530,l),
(707,530,l),
(580,93,l),
(454,530,l),
(364,530,l),
(238,93,l),
(112,530,l),
(22,530,l),
(186,0,l)
);
}
);
};
layerId = "6C190511-B94A-4F5A-B519-D6E9DB0E7B93";
shapes = (
{
closed = 1;
nodes = (
(291,0,l),
(409,403,l),
(527,0,l),
(633,0,l),
(797,530,l),
(705,530,l),
(580,88,l),
(454,530,l),
(364,530,l),
(238,88,l),
(114,530,l),
(22,530,l),
(186,0,l)
);
}
);
width = 819;
}
);
metricLeft = v;
metricRight = v;
unicode = 119;
}
{
color = 4;
glyphname = x;
kernLeft = x;
kernRight = x;
layers = (
{
anchors = (
{
name = bottom;
pos = (268,0);
},
{
name = top;
pos = (268,530);
}
);
background = {
shapes = (
{
closed = 1;
nodes = (
(91,0,l),
(273,248,l),
(455,0,l),
(492,0,l),
(295,266,l),
(485,530,l),
(448,530,l),
(273,285,l),
(98,530,l),
(61,530,l),
(251,266,l),
(54,0,l)
);
}
);
};
layerId = "EE2FFE84-06F1-4AFB-BBEC-60D09A436D14";
shapes = (
{
closed = 1;
nodes = (
(85,0,l),
(270,249,l),
(452,0,l),
(487,0,l),
(288,266,l),
(480,530,l),
(444,530,l),
(268,284,l),
(91,530,l),
(56,530,l),
(248,266,l),
(49,0,l)
);
}
);
width = 536;
},
{
anchors = (
{
name = bottom;
pos = (346,0);
},
{
name = top;
pos = (346,540);
}
);
background = {
shapes = (
{
closed = 1;
nodes = (
(257,0,l),
(353,156,l),
(447,0,l),
(654,0,l),
(462,272,l),
(650,540,l),
(445,540,l),
(353,390,l),
(260,540,l),
(55,540,l),
(242,272,l),
(51,0,l)
);
}
);
};
layerId = "3507EE3D-0D92-4546-A145-3A991F0A2B71";
shapes = (
{
closed = 1;
nodes = (
(249,0,l),
(349,160,l),
(448,0,l),
(648,0,l),
(459,272,l),
(645,540,l),
(441,540,l),
(345,386,l),
(247,540,l),
(47,540,l),
(233,272,l),
(45,0,l)
);
}
);
width = 693;
},
{
anchors = (
{
name = bottom;
pos = (293,0);
},
{
name = top;
pos = (293,530);
}
);
background = {
shapes = (
{
closed = 1;
nodes = (
(155,0,l),
(298,206,l),
(441,0,l),
(543,0,l),
(351,271,l),
(534,530,l),
(431,530,l),
(298,336,l),
(165,530,l),
(62,530,l),
(246,272,l),
(52,0,l)
);
}
);
};
layerId = "6C190511-B94A-4F5A-B519-D6E9DB0E7B93";
shapes = (
{
closed = 1;
nodes = (
(147,0,l),
(294,214,l),
(440,0,l),
(538,0,l),
(346,270,l),
(529,530,l),
(429,530,l),
(294,330,l),
(155,530,l),
(57,530,l),
(242,272,l),
(47,0,l)
);
}
);
width = 585;
}
);
metricLeft = "=v+25";
metricRight = "=v+25";
unicode = 120;
}
{
color = 4;
glyphname = y;
kernLeft = v;
kernRight = v;
layers = (
{
anchors = (
{
name = bottom;
pos = (128,-150);
},
{
name = top;
pos = (256,530);
}
);
background = {
anchors = (
{
name = top;
pos = (256,530);
}
);
shapes = (
{
closed = 1;
nodes = (
(131,-150,ls),
(193,-150,o),
(227,-125,o),
(249,-67,cs),
(473,530,l),
(441,530,l),
(256,31,l),
(56,530,l),
(24,530,l),
(233,10,l),
(249,10,l),
(230,-39,ls),
(204,-105,o),
(185,-123,o),
(132,-123,cs),
(92,-123,l),
(92,-150,l)
);
}
);
};
layerId = "EE2FFE84-06F1-4AFB-BBEC-60D09A436D14";
shapes = (
{
closed = 1;
nodes = (
(128,-150,ls),
(197,-150,o),
(226,-127,o),
(250,-64,cs),
(473,530,l),
(441,530,l),
(255,30,l),
(56,530,l),
(24,530,l),
(233,10,l),
(249,10,l),
(226,-52,ls),
(206,-106,o),
(185,-122,o),
(128,-122,cs),
(88,-122,l),
(88,-150,l)
);
}
);
width = 497;
},
{
anchors = (
{
name = bottom;
pos = (239,-150);
},
{
name = top;
pos = (311,540);
}
);
background = {
anchors = (
{
name = top;
pos = (312,540);
}
);
shapes = (
{
closed = 1;
nodes = (
(229,-150,ls),
(322,-150,o),
(370,-111,o),
(396,-39,cs),
(600,540,l),
(423,540,l),
(313,201,l),
(198,540,l),
(21,540,l),
(210,39,l),
(261,39,l),
(253,19,ls),
(242,-8,o),
(223,-16,o),
(187,-16,cs),
(116,-16,l),
(116,-150,l)
);
}
);
};
layerId = "3507EE3D-0D92-4546-A145-3A991F0A2B71";
shapes = (
{
closed = 1;
nodes = (
(239,-150,ls),
(327,-150,o),
(371,-120,o),
(399,-40,cs),
(599,540,l),
(405,540,l),
(313,220,l),
(214,540,l),
(20,540,l),
(205,38,l),
(254,38,l),
(247,20,ls),
(237,-6,o),
(225,-13,o),
(193,-13,cs),
(115,-13,l),
(115,-150,l)
);
}
);
width = 619;
},
{
anchors = (
{
name = bottom;
pos = (172,-150);
},
{
name = top;
pos = (269,530);
}
);
background = {
anchors = (
{
name = top;
pos = (269,530);
}
);
shapes = (
{
closed = 1;
nodes = (
(182,-150,ls),
(242,-150,o),
(280,-124,o),
(300,-67,cs),
(515,530,l),
(426,530,l),
(271,90,l),
(112,530,l),
(22,530,l),
(216,10,l),
(244,10,l),
(225,-39,ls),
(215,-65,o),
(200,-76,o),
(174,-76,cs),
(113,-76,l),
(113,-150,l)
);
}
);
};
layerId = "6C190511-B94A-4F5A-B519-D6E9DB0E7B93";
shapes = (
{
closed = 1;
nodes = (
(172,-150,ls),
(243,-150,o),
(280,-124,o),
(300,-67,cs),
(515,530,l),
(423,530,l),
(272,88,l),
(114,530,l),
(22,530,l),
(216,10,l),
(245,10,l),
(226,-40,ls),
(216,-65,o),
(201,-76,o),
(164,-76,cs),
(103,-76,l),
(103,-150,l)
);
}
);
width = 537;
}
);
metricLeft = v;
metricRight = v;
unicode = 121;
}
{
color = 4;
glyphname = z;
kernLeft = z;
kernRight = z;
layers = (
{
anchors = (
{
name = bottom;
pos = (269,0);
},
{
name = top;
pos = (269,530);
}
);
background = {
anchors = (
{
name = bottom;
pos = (292,0);
},
{
name = top;
pos = (292,530);
}
);
shapes = (
{
closed = 1;
nodes = (
(500,0,l),
(500,30,l),
(118,30,l),
(492,500,l),
(492,530,l),
(92,530,l),
(92,500,l),
(456,500,l),
(82,30,l),
(82,0,l)
);
}
);
};
layerId = "EE2FFE84-06F1-4AFB-BBEC-60D09A436D14";
shapes = (
{
closed = 1;
nodes = (
(477,0,l),
(477,28,l),
(93,28,l),
(469,500,l),
(469,530,l),
(69,530,l),
(69,502,l),
(435,502,l),
(59,30,l),
(59,0,l)
);
}
);
width = 536;
},
{
anchors = (
{
name = bottom;
pos = (317,0);
},
{
name = top;
pos = (317,540);
}
);
background = {
anchors = (
{
name = bottom;
pos = (341,0);
},
{
name = top;
pos = (341,540);
}
);
shapes = (
{
closed = 1;
nodes = (
(594,0,l),
(594,137,l),
(310,137,l),
(587,406,l),
(587,540,l),
(98,540,l),
(98,402,l),
(348,402,l),
(79,137,l),
(79,0,l)
);
}
);
};
layerId = "3507EE3D-0D92-4546-A145-3A991F0A2B71";
shapes = (
{
closed = 1;
nodes = (
(570,0,l),
(570,137,l),
(286,137,l),
(563,400,l),
(563,540,l),
(69,540,l),
(69,403,l),
(324,403,l),
(55,140,l),
(55,0,l)
);
}
);
width = 625;
},
{
anchors = (
{
name = bottom;
pos = (276,0);
},
{
name = top;
pos = (276,530);
}
);
background = {
anchors = (
{
name = bottom;
pos = (299,0);
},
{
name = top;
pos = (299,530);
}
);
shapes = (
{
closed = 1;
nodes = (
(515,0,l),
(515,74,l),
(171,74,l),
(507,437,l),
(507,530,l),
(90,530,l),
(90,456,l),
(417,456,l),
(80,91,l),
(80,0,l)
);
}
);
};
layerId = "6C190511-B94A-4F5A-B519-D6E9DB0E7B93";
shapes = (
{
closed = 1;
nodes = (
(492,0,l),
(492,74,l),
(149,74,l),
(484,446,l),
(484,530,l),
(67,530,l),
(67,456,l),
(392,456,l),
(57,84,l),
(57,0,l)
);
}
);
width = 549;
}
);
metricLeft = "=x+10";
metricRight = "=x+10";
unicode = 122;
}
{
color = 4;
glyphname = braceleft;
layers = (
{
background = {
shapes = (
{
closed = 1;
nodes = (
(338,-113,l),
(338,-83,l),
(243,-83,o),
(192,-29,o),
(192,57,cs),
(192,149,ls),
(192,244,o),
(147,312,o),
(82,319,c),
(82,320,l),
(146,327,o),
(192,394,o),
(192,488,cs),
(192,580,ls),
(192,666,o),
(243,720,o),
(338,720,c),
(338,750,l),
(324,750,ls),
(223,750,o),
(160,684,o),
(160,578,cs),
(160,488,ls),
(160,393,o),
(113,334,o),
(50,334,c),
(50,303,l),
(113,303,o),
(160,244,o),
(160,149,cs),
(160,59,ls),
(160,-47,o),
(223,-113,o),
(324,-113,cs)
);
}
);
};
layerId = "EE2FFE84-06F1-4AFB-BBEC-60D09A436D14";
shapes = (
{
closed = 1;
nodes = (
(338,-113,l),
(338,-83,l),
(234,-83,o),
(192,-29,o),
(192,57,cs),
(192,149,ls),
(192,254,o),
(149,312,o),
(88,319,c),
(88,320,l),
(148,327,o),
(192,384,o),
(192,488,cs),
(192,580,ls),
(192,666,o),
(234,720,o),
(338,720,c),
(338,750,l),
(324,750,ls),
(223,750,o),
(160,686,o),
(160,580,cs),
(160,488,ls),
(160,383,o),
(116,334,o),
(50,334,c),
(50,303,l),
(116,303,o),
(160,254,o),
(160,149,cs),
(160,57,ls),
(160,-49,o),
(223,-113,o),
(324,-113,cs)
);
}
);
width = 358;
},
{
associatedMasterId = "EE2FFE84-06F1-4AFB-BBEC-60D09A436D14";
layerId = "27AC9A21-3019-4552-A298-52D9AE209BDC";
name = "24 de ene. de 23 14:05";
shapes = (
{
closed = 1;
nodes = (
(56,323,o),
(101,383,o),
(101,460,c),
(101,543,l),
(101,644,o),
(175,715,o),
(281,715,cs),
(313,715,l),
(313,634,l),
(219,634,o),
(183,608,o),
(183,543,c),
(183,453,l),
(183,352,o),
(121,280,o),
(32,280,cs),
(-2,280,l),
(-2,325,l)
);
},
{
closed = 1;
nodes = (
(-2,285,l),
(32,285,ls),
(121,285,o),
(183,213,o),
(183,112,c),
(183,22,l),
(183,-43,o),
(219,-69,o),
(313,-69,c),
(313,-150,l),
(281,-150,ls),
(175,-150,o),
(101,-79,o),
(101,22,c),
(101,105,l),
(101,182,o),
(56,242,o),
(-2,240,c)
);
}
);
width = 445;
},
{
background = {
shapes = (
{
closed = 1;
nodes = (
(405,-132,l),
(405,25,l),
(337,22,o),
(302,52,o),
(302,109,cs),
(302,154,ls),
(302,244,o),
(237,308,o),
(144,312,c),
(144,321,l),
(236,325,o),
(302,389,o),
(302,479,cs),
(302,524,ls),
(302,577,o),
(337,603,o),
(405,601,c),
(405,764,l),
(358,764,ls),
(216,764,o),
(117,681,o),
(117,564,cs),
(117,481,ls),
(117,399,o),
(95,386,o),
(35,387,c),
(35,246,l),
(95,246,o),
(117,233,o),
(117,152,cs),
(117,69,ls),
(117,-48,o),
(216,-132,o),
(358,-132,cs)
);
}
);
};
layerId = "3507EE3D-0D92-4546-A145-3A991F0A2B71";
shapes = (
{
closed = 1;
nodes = (
(410,-132,l),
(410,25,l),
(342,22,o),
(307,52,o),
(307,109,cs),
(307,164,ls),
(307,254,o),
(252,308,o),
(189,312,c),
(189,321,l),
(251,325,o),
(307,379,o),
(307,469,cs),
(307,524,ls),
(307,577,o),
(342,603,o),
(410,601,c),
(410,764,l),
(343,764,ls),
(201,764,o),
(122,681,o),
(122,564,cs),
(122,481,ls),
(122,399,o),
(100,386,o),
(40,387,c),
(40,246,l),
(100,246,o),
(122,233,o),
(122,152,cs),
(122,69,ls),
(122,-48,o),
(201,-132,o),
(343,-132,cs)
);
}
);
width = 420;
},
{
background = {
shapes = (
{
closed = 1;
nodes = (
(378,-115,l),
(378,-37,l),
(272,-40,o),
(232,-14,o),
(232,55,cs),
(232,147,ls),
(232,238,o),
(183,304,o),
(110,318,c),
(110,319,l),
(181,333,o),
(232,398,o),
(232,488,cs),
(232,580,ls),
(232,650,o),
(272,676,o),
(378,672,c),
(378,750,l),
(332,750,ls),
(226,750,o),
(152,679,o),
(152,578,cs),
(152,495,ls),
(152,413,o),
(109,357,o),
(49,359,c),
(49,276,l),
(109,278,o),
(152,222,o),
(152,140,cs),
(152,57,ls),
(152,-44,o),
(226,-115,o),
(332,-115,cs)
);
}
);
};
layerId = "6C190511-B94A-4F5A-B519-D6E9DB0E7B93";
shapes = (
{
closed = 1;
nodes = (
(374,-115,l),
(374,-37,l),
(268,-40,o),
(228,-14,o),
(228,55,cs),
(228,147,ls),
(228,247,o),
(179,304,o),
(116,318,c),
(116,319,l),
(177,333,o),
(228,388,o),
(228,488,cs),
(228,580,ls),
(228,650,o),
(268,676,o),
(374,672,c),
(374,750,l),
(318,750,ls),
(212,750,o),
(148,679,o),
(148,578,cs),
(148,495,ls),
(148,409,o),
(111,359,o),
(45,359,c),
(45,276,l),
(111,276,o),
(148,226,o),
(148,140,cs),
(148,57,ls),
(148,-44,o),
(212,-115,o),
(318,-115,cs)
);
}
);
width = 389;
}
);
metricLeft = O;
metricRight = X;
unicode = 123;
}
{
color = 4;
glyphname = bar;
layers = (
{
layerId = "EE2FFE84-06F1-4AFB-BBEC-60D09A436D14";
shapes = (
{
closed = 1;
nodes = (
(126,-110,l),
(126,750,l),
(96,750,l),
(96,-110,l)
);
}
);
width = 222;
},
{
layerId = "3507EE3D-0D92-4546-A145-3A991F0A2B71";
shapes = (
{
closed = 1;
nodes = (
(252,-110,l),
(252,750,l),
(62,750,l),
(62,-110,l)
);
}
);
width = 314;
},
{
layerId = "6C190511-B94A-4F5A-B519-D6E9DB0E7B93";
shapes = (
{
closed = 1;
nodes = (
(172,-110,l),
(172,750,l),
(92,750,l),
(92,-110,l)
);
}
);
width = 264;
}
);
metricLeft = H;
metricRight = H;
unicode = 124;
}
{
color = 4;
glyphname = asciitilde;
kernLeft = plus;
kernRight = plus;
layers = (
{
associatedMasterId = "EE2FFE84-06F1-4AFB-BBEC-60D09A436D14";
guides = (
{
angle = 270;
pos = (516,235);
},
{
pos = (112,235);
},
{
pos = (441,419);
}
);
layerId = "4F0FB2D7-28AD-46D9-9CCC-E76156F069EC";
name = "30 de ene. de 23 12:33";
shapes = (
{
closed = 1;
nodes = (
(285,370,l),
(160,478,o),
(36,407,o),
(36,245,c),
(116,245,l),
(116,387,o),
(212,360,o),
(285,270,c)
);
},
{
closed = 1;
nodes = (
(260,297,l),
(385,189,o),
(509,260,o),
(509,422,c),
(429,422,l),
(429,280,o),
(333,307,o),
(260,397,c)
);
}
);
width = 556;
},
{
associatedMasterId = "EE2FFE84-06F1-4AFB-BBEC-60D09A436D14";
guides = (
{
angle = 270;
pos = (516,235);
},
{
pos = (116,245);
},
{
pos = (441,419);
}
);
layerId = "C505FC5B-995D-4589-A342-07E0B778C222";
name = "30 de ene. de 23 13:00";
shapes = (
{
closed = 1;
nodes = (
(283,279,l),
(431,191,o),
(509,284,o),
(509,422,c),
(429,422,l),
(429,299,o),
(377,315,o),
(284,373,c),
(257,391,l),
(148,466,o),
(36,396,o),
(36,245,c),
(116,245,l),
(116,371,o),
(180,342,o),
(257,294,c)
);
}
);
width = 556;
},
{
background = {
shapes = (
{
closed = 1;
nodes = (
(397,263,o),
(437,312,o),
(442,398,c),
(410,398,l),
(407,340,o),
(377,295,o),
(329,295,cs),
(298,295,o),
(277,314,o),
(246,350,cs),
(216,384,o),
(186,404,o),
(150,404,cs),
(85,404,o),
(45,355,o),
(40,268,c),
(72,268,l),
(75,327,o),
(104,372,o),
(153,372,cs),
(181,372,o),
(205,351,o),
(235,317,cs),
(262,286,o),
(299,263,o),
(332,263,cs)
);
}
);
};
guides = (
{
angle = 270;
pos = (507,235);
},
{
pos = (107,245);
},
{
pos = (432,421);
}
);
layerId = "EE2FFE84-06F1-4AFB-BBEC-60D09A436D14";
name = Regular;
shapes = (
{
closed = 1;
nodes = (
(397,263,o),
(437,312,o),
(442,398,c),
(410,398,l),
(407,336,o),
(376,293,o),
(331,293,cs),
(304,293,o),
(284,304,o),
(246,348,cs),
(216,382,o),
(188,404,o),
(148,404,cs),
(85,404,o),
(45,355,o),
(40,268,c),
(72,268,l),
(75,331,o),
(106,374,o),
(148,374,cs),
(182,374,o),
(199,358,o),
(234,318,cs),
(268,280,o),
(294,263,o),
(332,263,cs)
);
}
);
width = 482;
},
{
background = {
shapes = (
{
closed = 1;
nodes = (
(430,242,o),
(483,309,o),
(483,421,c),
(358,421,l),
(358,380,o),
(349,356,o),
(326,356,cs),
(309,356,o),
(299,366,o),
(281,384,cs),
(252,412,o),
(222,424,o),
(186,424,cs),
(94,424,o),
(40,357,o),
(40,245,c),
(166,245,l),
(166,286,o),
(176,310,o),
(198,310,cs),
(216,310,o),
(226,298,o),
(246,279,cs),
(274,252,o),
(304,242,o),
(338,242,cs)
);
}
);
};
layerId = "3507EE3D-0D92-4546-A145-3A991F0A2B71";
name = Regular;
shapes = (
{
closed = 1;
nodes = (
(429,242,o),
(483,308,o),
(483,421,c),
(358,421,l),
(358,377,o),
(348,356,o),
(326,356,cs),
(312,356,o),
(304,361,o),
(281,384,cs),
(253,411,o),
(223,424,o),
(186,424,cs),
(94,424,o),
(40,357,o),
(40,245,c),
(166,245,l),
(166,288,o),
(177,310,o),
(198,310,cs),
(212,310,o),
(217,307,o),
(246,279,cs),
(272,254,o),
(301,242,o),
(338,242,cs)
);
}
);
width = 523;
},
{
background = {
shapes = (
{
closed = 1;
nodes = (
(432,236,o),
(483,313,o),
(483,420,c),
(404,420,l),
(404,355,o),
(388,313,o),
(349,313,cs),
(316,313,o),
(299,339,o),
(279,366,cs),
(256,398,o),
(229,430,o),
(170,430,cs),
(91,430,o),
(40,353,o),
(40,246,c),
(119,246,l),
(119,311,o),
(135,353,o),
(173,353,cs),
(211,353,o),
(227,319,o),
(253,288,cs),
(274,261,o),
(302,236,o),
(352,236,cs)
);
}
);
};
layerId = "6C190511-B94A-4F5A-B519-D6E9DB0E7B93";
name = Regular;
shapes = (
{
closed = 1;
nodes = (
(430,236,o),
(483,310,o),
(483,420,c),
(404,420,l),
(404,350,o),
(385,313,o),
(351,313,cs),
(325,313,o),
(314,321,o),
(279,366,cs),
(244,411,o),
(221,430,o),
(170,430,cs),
(93,430,o),
(40,355,o),
(40,246,c),
(119,246,l),
(119,316,o),
(138,353,o),
(173,353,cs),
(195,353,o),
(203,349,o),
(244,299,cs),
(284,251,o),
(305,236,o),
(352,236,cs)
);
}
);
width = 523;
}
);
metricLeft = plus;
metricRight = plus;
unicode = 126;
}
{
color = 4;
glyphname = exclamdown;
layers = (
{
anchors = (
{
name = top;
pos = (138,530);
}
);
associatedMasterId = "EE2FFE84-06F1-4AFB-BBEC-60D09A436D14";
layerId = "BEE6232E-7C53-4EDA-8B26-9CFE14D20731";
name = "25 de ene. de 23 09:34";
shapes = (
{
closed = 1;
nodes = (
(105,555,o),
(80,531,o),
(80,498,cs),
(80,465,o),
(105,441,o),
(138,441,cs),
(171,441,o),
(196,465,o),
(196,498,cs),
(196,531,o),
(171,555,o),
(138,555,cs)
);
},
{
closed = 1;
nodes = (
(182,-161,l),
(182,69,l),
(166,344,l),
(110,344,l),
(94,69,l),
(94,-161,l)
);
}
);
width = 276;
},
{
layerId = "EE2FFE84-06F1-4AFB-BBEC-60D09A436D14";
name = Regular;
shapes = (
{
closed = 1;
nodes = (
(101,-162,l),
(101,88,ls),
(101,170,o),
(98,253,o),
(96,343,c),
(74,343,l),
(72,253,o),
(69,170,o),
(69,88,cs),
(69,-162,l)
);
},
{
pos = (5,548);
ref = period;
scale = (1,-1);
}
);
width = 169;
},
{
layerId = "3507EE3D-0D92-4546-A145-3A991F0A2B71";
name = Regular;
shapes = (
{
closed = 1;
nodes = (
(236,-162,l),
(236,41,ls),
(236,121,o),
(218,240,o),
(206,306,c),
(72,306,l),
(60,240,o),
(41,121,o),
(41,41,cs),
(41,-162,l)
);
},
{
alignment = -1;
pos = (7,548);
ref = period;
scale = (1,-1);
}
);
width = 276;
},
{
layerId = "6C190511-B94A-4F5A-B519-D6E9DB0E7B93";
name = Regular;
shapes = (
{
closed = 1;
nodes = (
(154,-162,l),
(154,68,ls),
(154,148,o),
(145,273,o),
(139,343,c),
(84,343,l),
(78,273,o),
(68,148,o),
(68,68,cs),
(68,-162,l)
);
},
{
alignment = -1;
pos = (7,548);
ref = period;
scale = (1,-1);
}
);
width = 221;
}
);
metricLeft = "=O+5";
metricRight = "=O+5";
unicode = 161;
}
